<svg width="353" height="53" viewBox="0 0 353 53" fill="none" xmlns="http://www.w3.org/2000/svg">
<path d="M0 26.5C0 11.8645 11.8645 0 26.5 0H326.5C341.136 0 353 11.8645 353 26.5V26.5C353 41.1355 341.136 53 326.5 53H26.5C11.8644 53 0 41.1355 0 26.5V26.5Z" fill="#EBF7FF"/>
<path d="M37.01 25.5H25V27.5H37.01V30.5L41 26.5L37.01 22.5V25.5V25.5Z" fill="#5C5C5C"/>
<path d="M66.884 20.422V33.106H68.046V20.422H66.884ZM61.368 21.402C59.506 21.402 58.162 23.124 58.162 25.812C58.162 28.514 59.506 30.236 61.368 30.236C63.244 30.236 64.588 28.514 64.588 25.812C64.588 23.124 63.244 21.402 61.368 21.402ZM61.368 22.452C62.614 22.452 63.468 23.768 63.468 25.812C63.468 27.87 62.614 29.214 61.368 29.214C60.136 29.214 59.268 27.87 59.268 25.812C59.268 23.768 60.136 22.452 61.368 22.452ZM71.2929 21.668V29.914H77.1169V21.668H71.2929ZM75.9829 22.606V28.976H72.4269V22.606H75.9829ZM79.7629 20.422V33.106H80.9249V20.422H79.7629ZM87.1629 30.53V31.496H98.6289V30.53H87.1629ZM92.3009 27.674V31.048H93.4629V27.674H92.3009ZM92.3009 23.082V23.362C92.3009 25.322 90.2569 26.792 87.7789 27.184L88.2269 28.108C90.9709 27.632 93.3229 25.952 93.3229 23.362V23.082H92.3009ZM92.4549 23.082V23.362C92.4549 25.952 94.7929 27.632 97.5369 28.108L97.9849 27.184C95.5069 26.792 93.4629 25.322 93.4629 23.362V23.082H92.4549ZM88.2129 22.424V23.39H97.5369V22.424H88.2129ZM92.3009 20.702V22.774H93.4629V20.702H92.3009ZM109.66 20.436V33.092H110.78V20.436H109.66ZM107.518 25.504V26.47H109.954V25.504H107.518ZM106.79 20.716V32.448H107.882V20.716H106.79ZM100.49 29.004V29.97H101.316C103.22 29.97 104.494 29.914 106.006 29.592L105.894 28.626C104.424 28.934 103.164 29.004 101.316 29.004H100.49ZM100.49 21.976V29.438H101.638V22.928H105.194V21.976H100.49ZM114.097 24.566V25.518H120.201V24.566H114.097ZM116.533 25.14V27.674H117.695V25.14H116.533ZM114.097 21.262V24.986H115.259V22.214H120.117V21.262H114.097ZM122.105 20.436V29.9H123.267V20.436H122.105ZM115.091 31.86V32.812H123.687V31.86H115.091ZM115.091 29.284V32.266H116.239V29.284H115.091ZM113.131 28.304C115.497 28.304 118.493 28.234 121.167 27.842L121.097 26.988C118.493 27.296 115.413 27.352 112.977 27.352L113.131 28.304ZM130.233 26.288V27.212H131.255C134.013 27.212 135.553 27.17 137.387 26.848L137.261 25.924C135.483 26.232 133.985 26.288 131.255 26.288H130.233ZM130.233 21.206V26.764H131.381V22.144H136.253V21.206H130.233ZM131.003 23.698V24.636H135.903V23.698H131.003ZM138.703 20.45V27.982H139.879V20.45H138.703ZM131.703 28.612V32.924H139.879V28.612H131.703ZM138.731 29.55V31.986H132.837V29.55H138.731ZM155.777 20.436V33.092H156.897V20.436H155.777ZM151.605 25.252V26.274H153.705V25.252H151.605ZM153.327 20.744V32.434H154.433V20.744H153.327ZM146.201 22.032V22.984H151.983V22.032H146.201ZM146.089 29.984C147.713 29.984 150.359 29.928 152.333 29.55L152.249 28.696C150.331 28.948 147.587 29.004 145.949 29.004L146.089 29.984ZM147.237 22.648V29.27H148.301V22.648H147.237ZM149.869 22.648V29.27H150.933V22.648H149.869ZM168.152 20.422V33.106H169.314V20.422H168.152ZM162.636 21.402C160.774 21.402 159.43 23.124 159.43 25.812C159.43 28.514 160.774 30.236 162.636 30.236C164.512 30.236 165.856 28.514 165.856 25.812C165.856 23.124 164.512 21.402 162.636 21.402ZM162.636 22.452C163.882 22.452 164.736 23.768 164.736 25.812C164.736 27.87 163.882 29.214 162.636 29.214C161.404 29.214 160.536 27.87 160.536 25.812C160.536 23.768 161.404 22.452 162.636 22.452ZM175.192 22.242V24.3C175.192 26.484 173.666 28.864 171.832 29.732L172.504 30.656C174.52 29.662 176.13 26.974 176.13 24.3V22.242H175.192ZM175.416 22.242V24.3C175.416 26.932 177.04 29.396 179.084 30.348L179.742 29.424C177.88 28.626 176.354 26.442 176.354 24.3V22.242H175.416ZM172.252 21.724V22.704H179.322V21.724H172.252ZM181.03 20.436V33.092H182.192V20.436H181.03ZM189.849 25.35V26.316H192.243V25.35H189.849ZM194.357 20.436V33.092H195.477V20.436H194.357ZM191.851 20.702V32.462H192.957V20.702H191.851ZM187.567 21.486C185.929 21.486 184.879 23.18 184.879 25.896C184.879 28.612 185.929 30.306 187.567 30.306C189.205 30.306 190.269 28.612 190.269 25.896C190.269 23.18 189.205 21.486 187.567 21.486ZM187.567 22.564C188.575 22.564 189.205 23.852 189.205 25.896C189.205 27.94 188.575 29.228 187.567 29.228C186.573 29.228 185.943 27.94 185.943 25.896C185.943 23.852 186.573 22.564 187.567 22.564ZM208.057 23.502V24.454H210.871V23.502H208.057ZM210.549 20.436V27.31H211.711V20.436H210.549ZM203.605 27.926V32.924H211.711V27.926H210.563V29.466H204.753V27.926H203.605ZM204.753 30.404H210.563V31.972H204.753V30.404ZM204.529 21.43V22.466C204.529 24.258 203.227 25.938 201.337 26.596L201.939 27.534C204.053 26.75 205.481 24.762 205.481 22.466V21.43H204.529ZM204.753 21.43V22.452C204.753 24.58 206.111 26.484 208.169 27.226L208.757 26.316C206.923 25.672 205.691 24.09 205.691 22.452V21.43H204.753ZM201.701 21.192V22.13H208.463V21.192H201.701ZM214.174 26.778V27.73H225.654V26.778H214.174ZM219.312 24.86V27.212H220.46V24.86H219.312ZM219.298 20.632V21.192C219.298 22.886 217.128 24.286 214.86 24.594L215.308 25.518C217.884 25.098 220.306 23.474 220.306 21.192V20.632H219.298ZM219.48 20.632V21.192C219.48 23.474 221.916 25.084 224.478 25.518L224.912 24.594C222.658 24.286 220.474 22.886 220.474 21.192V20.632H219.48ZM215.448 28.962V29.9H223.036V33.092H224.198V28.962H215.448ZM235.635 20.436V33.092H236.797V20.436H235.635ZM236.517 25.63V26.61H238.869V25.63H236.517ZM226.997 22.452V23.404H234.459V22.452H226.997ZM230.777 24.454C228.999 24.454 227.697 25.658 227.697 27.366C227.697 29.074 228.999 30.278 230.777 30.278C232.569 30.278 233.857 29.074 233.857 27.366C233.857 25.658 232.569 24.454 230.777 24.454ZM230.777 25.42C231.925 25.42 232.751 26.218 232.751 27.366C232.751 28.5 231.925 29.312 230.777 29.312C229.629 29.312 228.803 28.5 228.803 27.366C228.803 26.218 229.629 25.42 230.777 25.42ZM230.175 20.59V22.886H231.337V20.59H230.175ZM241.15 21.696V22.662H249.298V21.696H241.15ZM239.946 30.362V31.328H251.384V30.362H239.946ZM244.384 25.84V30.838H245.546V25.84H244.384ZM248.864 21.696V22.956C248.864 24.468 248.864 26.246 248.388 28.668L249.55 28.822C250.012 26.26 250.012 24.524 250.012 22.956V21.696H248.864ZM265.728 20.45V27.464H266.904V20.45H265.728ZM259.82 20.898V22.13C259.82 23.95 258.504 25.63 256.6 26.302L257.188 27.212C259.33 26.442 260.786 24.468 260.786 22.13V20.898H259.82ZM260.03 20.898V22.13C260.03 24.398 261.486 26.26 263.614 26.988L264.188 26.064C262.312 25.448 260.982 23.894 260.982 22.13V20.898H260.03ZM258.532 28.22V29.172H266.974V28.22H258.532ZM258.406 31.986V32.924H267.114V31.986H258.406ZM260.268 28.626V32.532H261.402V28.626H260.268ZM264.104 28.626V32.532H265.252V28.626H264.104ZM275.121 21.234C272.489 21.234 270.515 22.634 270.515 24.734C270.515 26.848 272.489 28.234 275.121 28.234C277.753 28.234 279.713 26.848 279.713 24.734C279.713 22.634 277.753 21.234 275.121 21.234ZM275.121 22.186C277.123 22.186 278.607 23.208 278.607 24.734C278.607 26.246 277.123 27.282 275.121 27.282C273.119 27.282 271.635 26.246 271.635 24.734C271.635 23.208 273.119 22.186 275.121 22.186ZM269.409 30.446V31.426H280.875V30.446H269.409ZM291.486 20.45V29.718H292.662V20.45H291.486ZM284.528 31.86V32.812H293.04V31.86H284.528ZM284.528 28.864V32.308H285.676V28.864H284.528ZM285.578 21.136V22.424C285.578 24.384 284.318 26.232 282.414 26.974L283.016 27.912C285.144 27.044 286.544 24.888 286.544 22.424V21.136H285.578ZM285.788 21.136V22.424C285.788 24.832 287.188 26.862 289.288 27.674L289.904 26.736C288.014 26.05 286.74 24.328 286.74 22.424V21.136H285.788ZM303.721 20.422V33.092H304.897V20.422H303.721ZM304.575 25.56V26.526H306.913V25.56H304.575ZM300.487 21.794V21.976C300.487 25.322 298.737 28.024 295.237 29.802L295.881 30.698C299.969 28.64 301.621 25.392 301.621 21.794H300.487ZM295.825 21.794V22.746H301.089V21.794H295.825ZM310.846 26.946V30.74H311.994V26.946H310.846ZM315.522 26.946V30.74H316.684V26.946H315.522ZM308.046 30.516V31.482H319.512V30.516H308.046ZM313.758 21.234C311.07 21.234 309.152 22.508 309.152 24.496C309.152 26.47 311.07 27.744 313.758 27.744C316.432 27.744 318.35 26.47 318.35 24.496C318.35 22.508 316.432 21.234 313.758 21.234ZM313.758 22.158C315.788 22.158 317.23 23.082 317.23 24.496C317.23 25.896 315.788 26.82 313.758 26.82C311.728 26.82 310.272 25.896 310.272 24.496C310.272 23.082 311.728 22.158 313.758 22.158ZM322.85 29.0717V28.9773C322.856 28.3608 322.918 27.8703 323.034 27.5057C323.153 27.1411 323.322 26.8461 323.541 26.6207C323.759 26.3954 324.023 26.1899 324.331 26.0043C324.53 25.8783 324.709 25.7375 324.868 25.5817C325.027 25.4259 325.153 25.2469 325.246 25.0447C325.339 24.8426 325.385 24.6188 325.385 24.3736C325.385 24.0786 325.316 23.8234 325.176 23.608C325.037 23.3925 324.852 23.2268 324.619 23.1108C324.391 22.9915 324.136 22.9318 323.854 22.9318C323.599 22.9318 323.355 22.9848 323.123 23.0909C322.891 23.197 322.699 23.3627 322.546 23.5881C322.394 23.8101 322.306 24.0968 322.283 24.4482H320.771C320.795 23.8516 320.945 23.3478 321.224 22.9368C321.502 22.5225 321.87 22.2093 322.328 21.9972C322.788 21.785 323.297 21.679 323.854 21.679C324.464 21.679 324.997 21.7933 325.455 22.022C325.912 22.2474 326.267 22.5639 326.519 22.9716C326.774 23.3759 326.901 23.8482 326.901 24.3885C326.901 24.7597 326.843 25.0945 326.727 25.3928C326.611 25.6877 326.446 25.9512 326.23 26.1832C326.018 26.4152 325.763 26.6207 325.465 26.7997C325.183 26.9754 324.954 27.1577 324.779 27.3466C324.606 27.5355 324.48 27.7592 324.401 28.0178C324.321 28.2763 324.278 28.5961 324.271 28.9773V29.0717H322.85ZM323.6 32.0945C323.329 32.0945 323.095 31.9983 322.899 31.8061C322.704 31.6106 322.606 31.3752 322.606 31.1001C322.606 30.8284 322.704 30.5964 322.899 30.4041C323.095 30.2086 323.329 30.1108 323.6 30.1108C323.869 30.1108 324.101 30.2086 324.296 30.4041C324.495 30.5964 324.595 30.8284 324.595 31.1001C324.595 31.2824 324.548 31.4498 324.455 31.6023C324.366 31.7514 324.247 31.8707 324.097 31.9602C323.948 32.0497 323.783 32.0945 323.6 32.0945Z" fill="#5C5C5C"/>
</svg>
