<svg width="309" height="53" viewBox="0 0 309 53" fill="none" xmlns="http://www.w3.org/2000/svg">
<path d="M0 26.5C0 11.8645 11.8645 0 26.5 0H282.5C297.136 0 309 11.8645 309 26.5V26.5C309 41.1355 297.136 53 282.5 53H26.5C11.8645 53 0 41.1355 0 26.5V26.5Z" fill="#EBF7FF"/>
<path d="M39 27.5H33V33.5H31V27.5H25V25.5H31V19.5H33V25.5H39V27.5Z" fill="#5C5C5C"/>
<path d="M58.346 21.626V24.034C58.346 26.204 57.296 28.472 55.546 29.494L56.288 30.362C58.136 29.242 59.256 26.68 59.256 24.034V21.626H58.346ZM58.556 21.626V23.964C58.556 26.512 59.578 28.976 61.426 30.04L62.126 29.13C60.446 28.192 59.466 26.05 59.466 23.964V21.626H58.556ZM65.332 20.436V33.092H66.452V20.436H65.332ZM63.33 25.518V26.484H65.752V25.518H63.33ZM62.546 20.702V32.462H63.652V20.702H62.546ZM68.5789 30.572V31.538H80.0449V30.572H68.5789ZM73.7029 27.856V30.978H74.8649V27.856H73.7029ZM69.9649 21.374V22.312H77.4829V24.272H70.0069V27.744H71.1549V25.21H78.6309V21.374H69.9649ZM70.0069 27.254V28.206H78.9249V27.254H70.0069ZM81.4438 26.848V27.8H92.9238V26.848H81.4438ZM86.6798 27.45V30.362H87.8558V27.45H86.6798ZM82.8998 31.846V32.812H91.6498V31.846H82.8998ZM82.8998 29.116V32.112H84.0618V29.116H82.8998ZM87.1698 20.744C84.4818 20.744 82.7318 21.724 82.7318 23.292C82.7318 24.86 84.4818 25.84 87.1698 25.84C89.8438 25.84 91.6078 24.86 91.6078 23.292C91.6078 21.724 89.8438 20.744 87.1698 20.744ZM87.1698 21.696C89.1018 21.696 90.3758 22.312 90.3758 23.292C90.3758 24.286 89.1018 24.888 87.1698 24.888C85.2378 24.888 83.9638 24.286 83.9638 23.292C83.9638 22.312 85.2378 21.696 87.1698 21.696ZM98.7698 26.288V27.212H99.7918C102.55 27.212 104.09 27.17 105.924 26.848L105.798 25.924C104.02 26.232 102.522 26.288 99.7918 26.288H98.7698ZM98.7698 21.206V26.764H99.9178V22.144H104.79V21.206H98.7698ZM99.5398 23.698V24.636H104.44V23.698H99.5398ZM107.24 20.45V27.982H108.416V20.45H107.24ZM100.24 28.612V32.924H108.416V28.612H100.24ZM107.268 29.55V31.986H101.374V29.55H107.268ZM124.314 20.436V33.092H125.434V20.436H124.314ZM120.142 25.252V26.274H122.242V25.252H120.142ZM121.864 20.744V32.434H122.97V20.744H121.864ZM114.738 22.032V22.984H120.52V22.032H114.738ZM114.626 29.984C116.25 29.984 118.896 29.928 120.87 29.55L120.786 28.696C118.868 28.948 116.124 29.004 114.486 29.004L114.626 29.984ZM115.774 22.648V29.27H116.838V22.648H115.774ZM118.406 22.648V29.27H119.47V22.648H118.406ZM136.689 20.422V33.106H137.851V20.422H136.689ZM131.173 21.402C129.311 21.402 127.967 23.124 127.967 25.812C127.967 28.514 129.311 30.236 131.173 30.236C133.049 30.236 134.393 28.514 134.393 25.812C134.393 23.124 133.049 21.402 131.173 21.402ZM131.173 22.452C132.419 22.452 133.273 23.768 133.273 25.812C133.273 27.87 132.419 29.214 131.173 29.214C129.941 29.214 129.073 27.87 129.073 25.812C129.073 23.768 129.941 22.452 131.173 22.452ZM143.73 22.242V24.3C143.73 26.484 142.204 28.864 140.37 29.732L141.042 30.656C143.058 29.662 144.668 26.974 144.668 24.3V22.242H143.73ZM143.954 22.242V24.3C143.954 26.932 145.578 29.396 147.622 30.348L148.28 29.424C146.418 28.626 144.892 26.442 144.892 24.3V22.242H143.954ZM140.79 21.724V22.704H147.86V21.724H140.79ZM149.568 20.436V33.092H150.73V20.436H149.568ZM153.249 26.316V27.198H164.729V26.316H153.249ZM154.607 28.22V29.046H162.153V30.124H154.649V32.406H155.797V30.922H163.287V28.22H154.607ZM154.649 32.098V32.938H163.693V32.098H154.649ZM154.705 20.8V21.626H162.111V22.648H154.733V24.804H155.881V23.432H163.245V20.8H154.705ZM154.733 24.524V25.364H163.483V24.524H154.733ZM170.364 21.57V27.436H176.174V21.57H170.364ZM175.04 22.508V26.498H171.498V22.508H175.04ZM178.498 20.422V29.704H179.66V20.422H178.498ZM179.296 24.286V25.252H181.536V24.286H179.296ZM171.778 31.86V32.812H180.234V31.86H171.778ZM171.778 28.822V32.266H172.94V28.822H171.778ZM182.725 25.714V26.666H194.163V25.714H182.725ZM184.237 23.754V24.692H192.805V23.754H184.237ZM184.237 20.842V24.51H185.385V21.794H192.665V20.842H184.237ZM184.097 27.758V28.668H191.545V29.872H184.125V32.336H185.273V30.74H192.693V27.758H184.097ZM184.125 32.028V32.952H193.071V32.028H184.125ZM196.808 21.696V22.662H204.956V21.696H196.808ZM195.604 30.362V31.328H207.042V30.362H195.604ZM200.042 25.84V30.838H201.204V25.84H200.042ZM204.522 21.696V22.956C204.522 24.468 204.522 26.246 204.046 28.668L205.208 28.822C205.67 26.26 205.67 24.524 205.67 22.956V21.696H204.522ZM221.386 20.45V27.464H222.562V20.45H221.386ZM215.478 20.898V22.13C215.478 23.95 214.162 25.63 212.258 26.302L212.846 27.212C214.988 26.442 216.444 24.468 216.444 22.13V20.898H215.478ZM215.688 20.898V22.13C215.688 24.398 217.144 26.26 219.272 26.988L219.846 26.064C217.97 25.448 216.64 23.894 216.64 22.13V20.898H215.688ZM214.19 28.22V29.172H222.632V28.22H214.19ZM214.064 31.986V32.924H222.772V31.986H214.064ZM215.926 28.626V32.532H217.06V28.626H215.926ZM219.762 28.626V32.532H220.91V28.626H219.762ZM230.779 21.234C228.147 21.234 226.173 22.634 226.173 24.734C226.173 26.848 228.147 28.234 230.779 28.234C233.411 28.234 235.371 26.848 235.371 24.734C235.371 22.634 233.411 21.234 230.779 21.234ZM230.779 22.186C232.781 22.186 234.265 23.208 234.265 24.734C234.265 26.246 232.781 27.282 230.779 27.282C228.777 27.282 227.293 26.246 227.293 24.734C227.293 23.208 228.777 22.186 230.779 22.186ZM225.067 30.446V31.426H236.533V30.446H225.067ZM247.144 20.45V29.718H248.32V20.45H247.144ZM240.186 31.86V32.812H248.698V31.86H240.186ZM240.186 28.864V32.308H241.334V28.864H240.186ZM241.236 21.136V22.424C241.236 24.384 239.976 26.232 238.072 26.974L238.674 27.912C240.802 27.044 242.202 24.888 242.202 22.424V21.136H241.236ZM241.446 21.136V22.424C241.446 24.832 242.846 26.862 244.946 27.674L245.562 26.736C243.672 26.05 242.398 24.328 242.398 22.424V21.136H241.446ZM259.379 20.422V33.092H260.555V20.422H259.379ZM260.233 25.56V26.526H262.571V25.56H260.233ZM256.145 21.794V21.976C256.145 25.322 254.395 28.024 250.895 29.802L251.539 30.698C255.627 28.64 257.279 25.392 257.279 21.794H256.145ZM251.483 21.794V22.746H256.747V21.794H251.483ZM266.504 26.946V30.74H267.652V26.946H266.504ZM271.18 26.946V30.74H272.342V26.946H271.18ZM263.704 30.516V31.482H275.17V30.516H263.704ZM269.416 21.234C266.728 21.234 264.81 22.508 264.81 24.496C264.81 26.47 266.728 27.744 269.416 27.744C272.09 27.744 274.008 26.47 274.008 24.496C274.008 22.508 272.09 21.234 269.416 21.234ZM269.416 22.158C271.446 22.158 272.888 23.082 272.888 24.496C272.888 25.896 271.446 26.82 269.416 26.82C267.386 26.82 265.93 25.896 265.93 24.496C265.93 23.082 267.386 22.158 269.416 22.158ZM278.508 29.0717V28.9773C278.514 28.3608 278.576 27.8703 278.692 27.5057C278.811 27.1411 278.98 26.8461 279.199 26.6207C279.418 26.3954 279.681 26.1899 279.989 26.0043C280.188 25.8783 280.367 25.7375 280.526 25.5817C280.685 25.4259 280.811 25.2469 280.904 25.0447C280.997 24.8426 281.043 24.6188 281.043 24.3736C281.043 24.0786 280.974 23.8234 280.835 23.608C280.695 23.3925 280.51 23.2268 280.278 23.1108C280.049 22.9915 279.794 22.9318 279.512 22.9318C279.257 22.9318 279.013 22.9848 278.781 23.0909C278.549 23.197 278.357 23.3627 278.205 23.5881C278.052 23.8101 277.964 24.0968 277.941 24.4482H276.43C276.453 23.8516 276.604 23.3478 276.882 22.9368C277.161 22.5225 277.528 22.2093 277.986 21.9972C278.446 21.785 278.955 21.679 279.512 21.679C280.122 21.679 280.656 21.7933 281.113 22.022C281.57 22.2474 281.925 22.5639 282.177 22.9716C282.432 23.3759 282.56 23.8482 282.56 24.3885C282.56 24.7597 282.502 25.0945 282.386 25.3928C282.27 25.6877 282.104 25.9512 281.888 26.1832C281.676 26.4152 281.421 26.6207 281.123 26.7997C280.841 26.9754 280.612 27.1577 280.437 27.3466C280.264 27.5355 280.138 27.7592 280.059 28.0178C279.979 28.2763 279.936 28.5961 279.93 28.9773V29.0717H278.508ZM279.259 32.0945C278.987 32.0945 278.753 31.9983 278.558 31.8061C278.362 31.6106 278.264 31.3752 278.264 31.1001C278.264 30.8284 278.362 30.5964 278.558 30.4041C278.753 30.2086 278.987 30.1108 279.259 30.1108C279.527 30.1108 279.759 30.2086 279.955 30.4041C280.153 30.5964 280.253 30.8284 280.253 31.1001C280.253 31.2824 280.206 31.4498 280.114 31.6023C280.024 31.7514 279.905 31.8707 279.756 31.9602C279.607 32.0497 279.441 32.0945 279.259 32.0945Z" fill="#5C5C5C"/>
</svg>
