<svg width="180" height="180" viewBox="0 0 180 180" fill="none" xmlns="http://www.w3.org/2000/svg">
<path d="M0 87C0 38.9512 38.9512 0 87 0H93C141.049 0 180 38.9512 180 87V93C180 141.049 141.049 180 93 180H87C38.9512 180 0 141.049 0 93V87Z" fill="#D7D7D7"/>
<path d="M117.281 62.7278C115.395 61.0903 113.808 62.7278 113.808 62.7278L104.065 68.3878C99.7631 65.4917 94.5882 63.7986 89.0182 63.7986C74.0967 63.7986 62 75.9322 62 90.8993C62 105.866 74.0967 118 89.0182 118C103.94 118 116.036 105.866 116.036 90.8993C116.036 85.2462 114.307 79.9964 111.354 75.6506L117.277 66.2079C117.281 66.2114 118.899 64.4766 117.281 62.7278ZM89.0182 107.653C79.7949 107.653 72.3151 100.154 72.3151 90.8993C72.3151 81.6479 79.7915 74.1452 89.0182 74.1452C98.2415 74.1452 105.721 81.6444 105.721 90.8993C105.721 100.154 98.2449 107.653 89.0182 107.653Z" fill="white"/>
</svg>
