<svg width="132" height="54" viewBox="0 0 132 54" fill="none" xmlns="http://www.w3.org/2000/svg">
<rect width="132" height="54" rx="6" fill="#063250"/>
<path d="M39.2223 31.48V33.64H55.9823V31.48H39.2223ZM46.2423 27.52V32H48.9023V27.52H46.2423ZM40.9823 18.44V28.08H54.1623V18.44H51.5223V21.28H43.6223V18.44H40.9823ZM43.6223 23.36H51.5223V25.96H43.6223V23.36ZM70.9208 17.26V35.78H73.4608V17.26H70.9208ZM68.5008 24.4V26.52H71.5808V24.4H68.5008ZM66.7808 17.58V34.9H69.2608V17.58H66.7808ZM58.3208 19.3V30H60.9808V19.3H58.3208ZM58.3208 29V31.28H59.6008C61.4808 31.28 63.6008 31.18 66.0208 30.74L65.7608 28.46C63.4608 28.9 61.3808 29 59.6008 29H58.3208ZM88.7592 17.26V35.78H91.4392V17.26H88.7592ZM83.2992 19.18V19.66C83.2992 24.62 81.3792 27.98 76.0592 30.54L77.4392 32.66C84.0192 29.48 85.9392 24.84 85.9392 19.18H83.2992ZM77.0392 19.18V21.28H84.5592V19.18H77.0392Z" fill="white"/>
</svg>
