<svg width="132" height="48" viewBox="0 0 132 48" fill="none" xmlns="http://www.w3.org/2000/svg">
<rect width="132" height="48" rx="6" fill="#063250"/>
<path d="M57.5533 25.596V30.94H59.6653V25.596H57.5533ZM51.9373 24.972V26.7H65.3293V24.972H51.9373ZM57.5373 18.764V19.116C57.5373 20.492 55.9533 22.172 52.6093 22.556L53.3453 24.22C57.2653 23.756 59.4093 21.596 59.4093 19.116V18.764H57.5373ZM57.8093 18.764V19.116C57.8093 21.532 59.9533 23.772 63.8573 24.22L64.6093 22.556C61.2812 22.172 59.6813 20.46 59.6813 19.116V18.764H57.8093ZM53.1373 17.804V19.484H64.1133V17.804H53.1373ZM57.5533 16.14V18.38H59.6653V16.14H57.5533ZM76.112 16.092V30.908H78.256V16.092H76.112ZM77.696 21.756V23.5H80.304V21.756H77.696ZM72.224 17.628V17.996C72.224 22.012 70.384 24.732 66.496 26.748L67.68 28.364C72.608 25.884 74.304 22.076 74.304 17.628H72.224ZM67.312 17.628V19.34H73.312V17.628H67.312Z" fill="white"/>
</svg>
