<svg width="200" height="54" viewBox="0 0 200 54" fill="none" xmlns="http://www.w3.org/2000/svg">
<rect width="200" height="54" rx="6" fill="#063250"/>
<path d="M91.4816 20.36V22.46H96.2016V20.36H91.4816ZM91.4816 24.34V26.44H96.2816V24.34H91.4816ZM95.2416 17.28V30.94H97.9016V17.28H95.2416ZM85.6416 33.34V35.46H98.3016V33.34H85.6416ZM85.6416 29.6V34.56H88.3216V29.6H85.6416ZM83.1816 18.48V28.04H91.9416V18.48H89.3416V21.3H85.8216V18.48H83.1816ZM85.8216 23.32H89.3416V25.94H85.8216V23.32ZM109.72 20.18V22.3H114.06V20.18H109.72ZM109.58 24.02V26.14H113.92V24.02H109.58ZM113.64 17.26V27.92H116.3V17.26H113.64ZM107.6 18.52V19.8C107.6 22.7 105.64 25.02 100.94 26.24L101.98 28.34C107.6 26.8 110.44 23.56 110.44 18.52H107.6ZM101.96 18.52V20.64H109.46V18.52H101.96ZM110.16 28.16C106.4 28.16 103.9 29.6 103.9 31.92C103.9 34.24 106.4 35.7 110.16 35.7C113.92 35.7 116.42 34.24 116.42 31.92C116.42 29.6 113.92 28.16 110.16 28.16ZM110.16 30.2C112.44 30.2 113.8 30.78 113.8 31.92C113.8 33.06 112.44 33.62 110.16 33.62C107.9 33.62 106.54 33.06 106.54 31.92C106.54 30.78 107.9 30.2 110.16 30.2Z" fill="white"/>
</svg>
