<svg width="132" height="48" viewBox="0 0 132 48" fill="none" xmlns="http://www.w3.org/2000/svg">
<rect width="132" height="48" rx="6" fill="#063250"/>
<path d="M40.9829 23.548V26.156H43.1109V23.548H40.9829ZM35.3509 22.844V24.524H48.7429V22.844H35.3509ZM42.0229 25.58C38.8069 25.58 36.8709 26.54 36.8709 28.252C36.8709 29.964 38.8069 30.924 42.0229 30.924C45.2229 30.924 47.1589 29.964 47.1589 28.252C47.1589 26.54 45.2229 25.58 42.0229 25.58ZM42.0229 27.18C44.0069 27.18 45.0149 27.516 45.0149 28.252C45.0149 28.972 44.0069 29.324 42.0229 29.324C40.0389 29.324 39.0309 28.972 39.0309 28.252C39.0309 27.516 40.0389 27.18 42.0229 27.18ZM40.5829 17.5V17.868C40.5829 19.02 39.1589 20.332 35.9109 20.604L36.6469 22.268C40.4709 21.916 42.4709 20.092 42.4709 17.868V17.5H40.5829ZM41.6229 17.5V17.868C41.6229 20.108 43.6389 21.916 47.4469 22.268L48.1829 20.604C44.9189 20.332 43.5109 19.036 43.5109 17.868V17.5H41.6229ZM36.5669 16.716V18.396H47.5429V16.716H36.5669ZM50.0697 23.42V25.132H63.4617V23.42H50.0697ZM55.6857 21.532V23.788H57.8137V21.532H55.6857ZM51.5577 26.14V27.82H59.7177V30.924H61.8457V26.14H51.5577ZM51.7817 16.476V22.204H61.7657V16.476H59.6537V17.788H53.8777V16.476H51.7817ZM53.8777 19.372H59.6537V20.54H53.8777V19.372ZM71.8516 22.876V25.004H73.9796V22.876H71.8516ZM78.1236 16.124V26.204H80.2516V16.124H78.1236ZM79.4996 20.348V22.092H82.1076V20.348H79.4996ZM68.5556 25.916C71.1476 25.9 74.5396 25.868 77.6276 25.34L77.4676 23.884C74.4756 24.252 70.9716 24.268 68.3156 24.268L68.5556 25.916ZM70.2036 26.796V28.428H78.1236V30.924H80.2516V26.796H70.2036ZM68.6996 17.196V18.716H77.0996V17.196H68.6996ZM72.9076 19.068C70.7156 19.068 69.2916 19.916 69.2916 21.276C69.2916 22.636 70.7156 23.484 72.9076 23.484C75.0836 23.484 76.5076 22.636 76.5076 21.276C76.5076 19.916 75.0836 19.068 72.9076 19.068ZM72.9076 20.46C73.8996 20.46 74.4916 20.716 74.4916 21.276C74.4916 21.804 73.8996 22.092 72.9076 22.092C71.8996 22.092 71.3076 21.804 71.3076 21.276C71.3076 20.716 71.8996 20.46 72.9076 20.46ZM71.8516 15.996V17.884H73.9796V15.996H71.8516ZM93.3863 16.124V26.764H95.5303V16.124H93.3863ZM85.6583 28.972V30.668H95.8983V28.972H85.6583ZM85.6583 25.692V29.66H87.7863V25.692H85.6583ZM87.4663 17.052C85.1943 17.052 83.4343 18.62 83.4343 20.812C83.4343 22.988 85.1943 24.572 87.4663 24.572C89.7383 24.572 91.4823 22.988 91.4823 20.812C91.4823 18.62 89.7383 17.052 87.4663 17.052ZM87.4663 18.892C88.5543 18.892 89.4023 19.596 89.4023 20.812C89.4023 22.012 88.5543 22.716 87.4663 22.716C86.3623 22.716 85.5143 22.012 85.5143 20.812C85.5143 19.596 86.3623 18.892 87.4663 18.892Z" fill="white"/>
</svg>
