<svg width="237" height="54" viewBox="0 0 237 54" fill="none" xmlns="http://www.w3.org/2000/svg">
<path d="M0.5 6C0.5 2.68629 3.18629 0 6.5 0H230.5C233.814 0 236.5 2.68629 236.5 6V48C236.5 51.3137 233.814 54 230.5 54H6.49999C3.18629 54 0.5 51.3137 0.5 48V6Z" fill="#063250"/>
<path d="M112.742 17.24V35.82H115.422V17.24H112.742ZM114.822 24.1V26.28H118.102V24.1H114.822ZM101.622 29.16V31.36H103.182C106.402 31.36 108.942 31.28 111.742 30.78L111.482 28.58C108.762 29.06 106.302 29.16 103.182 29.16H101.622ZM101.622 18.96V30.22H104.262V21.1H110.262V18.96H101.622ZM127.68 17.6C123.6 17.6 120.98 18.98 120.98 21.22C120.98 23.46 123.6 24.82 127.68 24.82C131.76 24.82 134.38 23.46 134.38 21.22C134.38 18.98 131.76 17.6 127.68 17.6ZM127.68 19.66C130.2 19.66 131.64 20.16 131.64 21.22C131.64 22.26 130.2 22.78 127.68 22.78C125.14 22.78 123.72 22.26 123.72 21.22C123.72 20.16 125.14 19.66 127.68 19.66ZM121.24 29.26V35.58H134.04V29.26H121.24ZM131.44 31.36V33.48H123.86V31.36H131.44ZM119.3 25.88V27.98H136.04V25.88H119.3Z" fill="white"/>
</svg>
