<svg width="170" height="93" viewBox="0 0 170 93" fill="none" xmlns="http://www.w3.org/2000/svg">
<g clip-path="url(#clip0_1484_9727)">
<path d="M82.31 2.26973C88.81 2.30973 93.38 3.46973 97.56 6.01973C98.34 6.49973 99.01 6.44973 99.78 5.99973C102.33 4.47973 105.03 3.23974 107.73 1.99973C108.42 1.67974 109.04 1.24974 109.78 1.01974C110.9 0.659735 111.68 1.13973 112.32 1.94973C112.94 2.71973 113.32 3.55974 112.68 4.52974C111.3 6.60974 109.93 8.69974 108.55 10.7797C108.05 11.5297 107.51 12.2597 107.04 13.0297C106.54 13.8397 106.44 14.5397 107.07 15.4897C108.59 17.7597 109.47 20.3497 110.17 22.9697C110.89 25.6897 110.99 28.4797 110.83 31.2597C110.62 34.9797 109.62 38.4797 107.91 41.8097C106.62 44.3197 105.01 46.5797 103.01 48.5197C98.62 52.7697 93.44 55.2997 87.25 55.9297C83.4 56.3197 79.69 55.9797 76.04 54.9697C72.26 53.9197 68.95 51.9297 66.04 49.2897C63.55 47.0297 61.51 44.4197 59.97 41.4197C58.57 38.6897 57.7 35.7997 57.27 32.7697C56.63 28.3097 57.13 23.9397 58.65 19.7497C59.72 16.7897 61.35 14.0997 63.43 11.6697C65.72 8.98974 68.41 6.83974 71.51 5.21974C75.39 3.18974 79.53 2.19973 82.3 2.26973H82.31Z" fill="#EAEAEA"/>
<path d="M96.0502 17.2053L95.7603 16.9153C94.7254 15.8804 93.0475 15.8804 92.0126 16.9153L71.7399 37.1881C70.705 38.223 70.705 39.9009 71.7399 40.9358L72.0298 41.2257C73.0647 42.2606 74.7426 42.2606 75.7775 41.2257L96.0502 20.9529C97.0851 19.918 97.0851 18.2401 96.0502 17.2053Z" fill="white"/>
<path d="M72.0351 16.9202L71.7452 17.2102C70.7103 18.245 70.7103 19.9229 71.7452 20.9578L92.0179 41.2306C93.0528 42.2655 94.7307 42.2655 95.7656 41.2306L96.0555 40.9407C97.0904 39.9058 97.0904 38.2279 96.0555 37.193L75.7828 16.9202C74.7479 15.8853 73.07 15.8853 72.0351 16.9202Z" fill="white"/>
</g>
<path d="M4.17133 76.5021C2.30933 76.5021 0.993328 78.2241 0.993328 80.9121C0.993328 83.6141 2.30933 85.3361 4.17133 85.3361C6.03333 85.3361 7.34933 83.6141 7.34933 80.9121C7.34933 78.2241 6.03333 76.5021 4.17133 76.5021ZM4.17133 77.5521C5.38933 77.5521 6.24333 78.8681 6.24333 80.9121C6.24333 82.9701 5.38933 84.3141 4.17133 84.3141C2.93933 84.3141 2.09933 82.9701 2.09933 80.9121C2.09933 78.8681 2.93933 77.5521 4.17133 77.5521ZM9.36533 75.5361V88.1921H10.5413V75.5361H9.36533ZM10.2613 80.5901V81.5701H12.6133V80.5901H10.2613ZM17.0502 76.8381V77.8461C17.0502 79.6381 15.7622 81.2901 13.8582 81.9621L14.4602 82.8721C16.5882 82.1161 18.0162 80.1701 18.0162 77.8461V76.8381H17.0502ZM17.2742 76.8381V77.8461C17.2742 80.0581 18.7302 81.9201 20.8302 82.6341L21.4322 81.7241C19.5562 81.0941 18.2402 79.5541 18.2402 77.8461V76.8381H17.2742ZM22.8882 75.5361V83.1941H24.0642V75.5361H22.8882ZM15.6082 83.8661V84.8181H22.8882V88.1921H24.0642V83.8661H15.6082ZM14.1662 76.4181V77.3561H21.0962V76.4181H14.1662ZM33.6342 76.9221V78.2101C33.6342 80.0161 32.3462 81.6541 30.4422 82.3261L31.0442 83.2501C33.1722 82.4801 34.6002 80.5341 34.6002 78.2101V76.9221H33.6342ZM33.8582 76.9221V78.2101C33.8582 80.4361 35.3142 82.2841 37.4142 82.9981L38.0162 82.0881C36.1402 81.4581 34.8242 79.9181 34.8242 78.2101V76.9221H33.8582ZM30.7502 76.5861V77.5241H37.6802V76.5861H30.7502ZM39.4722 75.5501V84.8041H40.6482V75.5501H39.4722ZM32.5142 86.9601V87.9121H41.0262V86.9601H32.5142ZM32.5142 83.9361V87.3801H33.6622V83.9361H32.5142ZM52.7011 75.5361V83.5441H53.8071V75.5361H52.7011ZM50.6431 78.9661V79.9321H53.0371V78.9661H50.6431ZM49.9991 75.7881V83.0961H51.0911V75.7881H49.9991ZM43.0831 77.0481V77.9721H49.4951V77.0481H43.0831ZM46.3031 78.6161C44.7071 78.6161 43.6011 79.4841 43.6011 80.7861C43.6011 82.1021 44.7071 82.9561 46.3031 82.9561C47.8851 82.9561 48.9911 82.1021 48.9911 80.7861C48.9911 79.4841 47.8851 78.6161 46.3031 78.6161ZM46.3031 79.4841C47.2831 79.4841 47.9551 80.0021 47.9551 80.7861C47.9551 81.5841 47.2831 82.0881 46.3031 82.0881C45.3091 82.0881 44.6371 81.5841 44.6371 80.7861C44.6371 80.0021 45.3091 79.4841 46.3031 79.4841ZM45.7291 75.6341V77.5661H46.8631V75.6341H45.7291ZM49.6631 83.7681C47.0031 83.7681 45.4351 84.5521 45.4351 85.9661C45.4351 87.3661 47.0031 88.1641 49.6631 88.1641C52.2951 88.1641 53.8771 87.3661 53.8771 85.9661C53.8771 84.5521 52.2951 83.7681 49.6631 83.7681ZM49.6631 84.6641C51.5811 84.6641 52.7291 85.1261 52.7291 85.9661C52.7291 86.8061 51.5811 87.2821 49.6631 87.2821C47.7171 87.2821 46.5831 86.8061 46.5831 85.9661C46.5831 85.1261 47.7171 84.6641 49.6631 84.6641ZM57.208 79.6661V80.6181H63.312V79.6661H57.208ZM59.644 80.2401V82.7741H60.806V80.2401H59.644ZM57.208 76.3621V80.0861H58.37V77.3141H63.228V76.3621H57.208ZM65.216 75.5361V85.0001H66.378V75.5361H65.216ZM58.202 86.9601V87.9121H66.798V86.9601H58.202ZM58.202 84.3841V87.3661H59.35V84.3841H58.202ZM56.242 83.4041C58.608 83.4041 61.604 83.3341 64.278 82.9421L64.208 82.0881C61.604 82.3961 58.524 82.4521 56.088 82.4521L56.242 83.4041ZM73.33 76.7681V85.0141H79.154V76.7681H73.33ZM78.02 77.7061V84.0761H74.464V77.7061H78.02ZM81.8 75.5221V88.2061H82.962V75.5221H81.8ZM86.2229 81.5421V82.4801H87.2449C90.0029 82.4801 91.5429 82.4381 93.3769 82.1161L93.2509 81.1921C91.4729 81.4861 89.9749 81.5421 87.2449 81.5421H86.2229ZM86.2229 76.4601V82.0181H87.3709V77.3981H92.2429V76.4601H86.2229ZM86.9929 78.9661V79.8901H91.8929V78.9661H86.9929ZM94.6929 75.5501V83.3761H95.8689V75.5501H94.6929ZM91.6829 83.5581C89.0369 83.5581 87.4269 84.3981 87.4269 85.8541C87.4269 87.3241 89.0369 88.1641 91.6829 88.1641C94.3149 88.1641 95.9249 87.3241 95.9249 85.8541C95.9249 84.3981 94.3149 83.5581 91.6829 83.5581ZM91.6829 84.4821C93.6009 84.4821 94.7629 84.9861 94.7629 85.8541C94.7629 86.7501 93.6009 87.2541 91.6829 87.2541C89.7509 87.2541 88.5889 86.7501 88.5889 85.8541C88.5889 84.9861 89.7509 84.4821 91.6829 84.4821ZM107.558 75.5221V88.2061H108.72V75.5221H107.558ZM102.042 76.5021C100.18 76.5021 98.8358 78.2241 98.8358 80.9121C98.8358 83.6141 100.18 85.3361 102.042 85.3361C103.918 85.3361 105.262 83.6141 105.262 80.9121C105.262 78.2241 103.918 76.5021 102.042 76.5021ZM102.042 77.5521C103.288 77.5521 104.142 78.8681 104.142 80.9121C104.142 82.9701 103.288 84.3141 102.042 84.3141C100.81 84.3141 99.9418 82.9701 99.9418 80.9121C99.9418 78.8681 100.81 77.5521 102.042 77.5521ZM116.4 82.9561V88.0241H120.782V82.9561H119.704V84.5381H117.492V82.9561H116.4ZM117.492 85.4061H119.704V87.1141H117.492V85.4061ZM123.232 82.8861V83.9361C123.232 85.2241 122.448 86.6101 120.922 87.2541L121.51 88.1361C123.26 87.3941 124.128 85.6581 124.128 83.9361V82.8861H123.232ZM123.47 82.8861V83.9361C123.47 85.7281 124.324 87.4081 126.088 88.1361L126.676 87.2541C125.15 86.6661 124.366 85.2941 124.366 83.9361V82.8861H123.47ZM121.314 78.5041V79.4701H124.716V78.5041H121.314ZM118.402 76.0961C116.512 76.0961 115.14 77.2721 115.14 79.0081C115.14 80.7301 116.512 81.9201 118.402 81.9201C120.292 81.9201 121.664 80.7301 121.664 79.0081C121.664 77.2721 120.292 76.0961 118.402 76.0961ZM118.402 77.0621C119.648 77.0621 120.544 77.8601 120.544 79.0081C120.544 80.1421 119.648 80.9541 118.402 80.9541C117.156 80.9541 116.26 80.1421 116.26 79.0081C116.26 77.8601 117.156 77.0621 118.402 77.0621ZM124.198 75.5361V82.2421H125.36V75.5361H124.198ZM129.279 83.1241V88.0241H137.777V83.1241H136.615V84.5941H130.427V83.1241H129.279ZM130.427 85.4901H136.615V87.0861H130.427V85.4901ZM127.823 81.3041V82.2421H139.261V81.3041H127.823ZM132.961 75.6761V76.2361C132.961 77.8321 130.763 79.1901 128.481 79.4981L128.901 80.4081C131.505 80.0161 133.955 78.4341 133.955 76.2361V75.6761H132.961ZM133.143 75.6761V76.2361C133.143 78.4061 135.607 80.0161 138.183 80.4081L138.617 79.4981C136.363 79.1901 134.137 77.8041 134.137 76.2361V75.6761H133.143ZM149.914 75.5361V88.1921H151.076V75.5361H149.914ZM141.514 76.7681V84.6081H142.662V76.7681H141.514ZM141.514 83.9221V84.9301H142.55C144.552 84.9301 146.554 84.7761 148.752 84.3281L148.612 83.3341C146.47 83.7821 144.468 83.9221 142.55 83.9221H141.514ZM162.149 75.5221V88.2061H163.325V75.5221H162.149ZM163.045 80.5201V81.5001H165.397V80.5201H163.045ZM154.127 84.0761V85.0561H155.121C157.501 85.0561 159.167 84.9861 161.113 84.6221L160.987 83.6421C159.097 83.9921 157.459 84.0761 155.121 84.0761H154.127ZM154.127 76.7541V84.5101H155.275V77.7061H160.007V76.7541H154.127ZM168.647 76.9183L168.518 84.1718H167.141L167.011 76.9183H168.647ZM167.832 87.1946C167.557 87.1946 167.321 87.0984 167.126 86.9062C166.93 86.7107 166.834 86.4753 166.837 86.2002C166.834 85.9285 166.93 85.6965 167.126 85.5042C167.321 85.3087 167.557 85.2109 167.832 85.2109C168.1 85.2109 168.332 85.3087 168.528 85.5042C168.723 85.6965 168.823 85.9285 168.826 86.2002C168.823 86.3825 168.775 86.5499 168.682 86.7024C168.592 86.8515 168.473 86.9708 168.324 87.0603C168.175 87.1498 168.011 87.1946 167.832 87.1946Z" fill="#D7D7D7"/>
<defs>
<clipPath id="clip0_1484_9727">
<rect width="56" height="55.2" fill="white" transform="translate(57 0.899902)"/>
</clipPath>
</defs>
</svg>
