<svg width="188" height="93" viewBox="0 0 188 93" fill="none" xmlns="http://www.w3.org/2000/svg">
<g clip-path="url(#clip0_1484_9728)">
<path d="M91.31 2.26973C97.81 2.30973 102.38 3.46973 106.56 6.01973C107.34 6.49973 108.01 6.44973 108.78 5.99973C111.33 4.47973 114.03 3.23974 116.73 1.99973C117.42 1.67974 118.04 1.24974 118.78 1.01974C119.9 0.659735 120.68 1.13973 121.32 1.94973C121.94 2.71973 122.32 3.55974 121.68 4.52974C120.3 6.60974 118.93 8.69974 117.55 10.7797C117.05 11.5297 116.51 12.2597 116.04 13.0297C115.54 13.8397 115.44 14.5397 116.07 15.4897C117.59 17.7597 118.47 20.3497 119.17 22.9697C119.89 25.6897 119.99 28.4797 119.83 31.2597C119.62 34.9797 118.62 38.4797 116.91 41.8097C115.62 44.3197 114.01 46.5797 112.01 48.5197C107.62 52.7697 102.44 55.2997 96.25 55.9297C92.4 56.3197 88.69 55.9797 85.04 54.9697C81.26 53.9197 77.95 51.9297 75.04 49.2897C72.55 47.0297 70.51 44.4197 68.97 41.4197C67.57 38.6897 66.7 35.7997 66.27 32.7697C65.63 28.3097 66.13 23.9397 67.65 19.7497C68.72 16.7897 70.35 14.0997 72.43 11.6697C74.72 8.98974 77.41 6.83974 80.51 5.21974C84.39 3.18974 88.53 2.19973 91.3 2.26973H91.31Z" fill="#EAEAEA"/>
<path d="M105.05 17.2053L104.76 16.9153C103.725 15.8804 102.048 15.8804 101.013 16.9153L80.7399 37.1881C79.705 38.223 79.705 39.9009 80.7399 40.9358L81.0298 41.2257C82.0647 42.2606 83.7426 42.2606 84.7775 41.2257L105.05 20.9529C106.085 19.918 106.085 18.2401 105.05 17.2053Z" fill="white"/>
<path d="M81.0351 16.9202L80.7452 17.2102C79.7103 18.245 79.7103 19.9229 80.7452 20.9578L101.018 41.2306C102.053 42.2655 103.731 42.2655 104.766 41.2306L105.056 40.9407C106.09 39.9058 106.09 38.2279 105.056 37.193L84.7828 16.9202C83.7479 15.8853 82.07 15.8853 81.0351 16.9202Z" fill="white"/>
</g>
<path d="M10.7593 75.5501V85.1961H11.9213V75.5501H10.7593ZM8.61734 78.8961V79.8481H11.2493V78.8961H8.61734ZM8.61734 81.5701V82.5081H11.2493V81.5701H8.61734ZM1.53334 77.0761V78.0141H8.61734V77.0761H1.53334ZM5.11734 78.7141C3.42334 78.7141 2.24734 79.6801 2.24734 81.1361C2.24734 82.5781 3.42334 83.5581 5.11734 83.5581C6.79734 83.5581 7.97334 82.5781 7.97334 81.1361C7.97334 79.6801 6.79734 78.7141 5.11734 78.7141ZM5.11734 79.6241C6.16734 79.6241 6.88134 80.2401 6.88134 81.1361C6.88134 82.0321 6.16734 82.6341 5.11734 82.6341C4.06734 82.6341 3.35334 82.0321 3.35334 81.1361C3.35334 80.2401 4.06734 79.6241 5.11734 79.6241ZM4.54334 75.5221V77.6781H5.70534V75.5221H4.54334ZM3.78734 86.9601V87.9121H12.2293V86.9601H3.78734ZM3.78734 84.3701V87.4221H4.94934V84.3701H3.78734ZM24.0722 75.5361V88.1921H25.1782V75.5361H24.0722ZM22.0702 80.6321V81.6121H24.5062V80.6321H22.0702ZM21.3142 75.8021V87.5621H22.4062V75.8021H21.3142ZM17.0022 77.4961V78.9521C17.0022 81.5281 16.0782 83.6841 14.2582 84.6921L14.9722 85.5881C16.9182 84.4261 17.9122 81.9901 17.9122 78.9521V77.4961H17.0022ZM17.2122 77.4961V78.9521C17.2122 81.7381 18.2202 84.0761 20.1522 85.1401L20.8382 84.2441C19.0602 83.3341 18.1222 81.2761 18.1222 78.9521V77.4961H17.2122ZM14.5522 77.0201V77.9861H20.4322V77.0201H14.5522ZM34.3422 76.9221V78.2101C34.3422 80.0161 33.0542 81.6541 31.1502 82.3261L31.7522 83.2501C33.8802 82.4801 35.3082 80.5341 35.3082 78.2101V76.9221H34.3422ZM34.5662 76.9221V78.2101C34.5662 80.4361 36.0222 82.2841 38.1222 82.9981L38.7242 82.0881C36.8482 81.4581 35.5322 79.9181 35.5322 78.2101V76.9221H34.5662ZM31.4582 76.5861V77.5241H38.3882V76.5861H31.4582ZM40.1802 75.5501V84.8041H41.3562V75.5501H40.1802ZM33.2222 86.9601V87.9121H41.7342V86.9601H33.2222ZM33.2222 83.9361V87.3801H34.3702V83.9361H33.2222ZM53.4091 75.5361V83.5441H54.5151V75.5361H53.4091ZM51.3511 78.9661V79.9321H53.7451V78.9661H51.3511ZM50.7071 75.7881V83.0961H51.7991V75.7881H50.7071ZM43.7911 77.0481V77.9721H50.2031V77.0481H43.7911ZM47.0111 78.6161C45.4151 78.6161 44.3091 79.4841 44.3091 80.7861C44.3091 82.1021 45.4151 82.9561 47.0111 82.9561C48.5931 82.9561 49.6991 82.1021 49.6991 80.7861C49.6991 79.4841 48.5931 78.6161 47.0111 78.6161ZM47.0111 79.4841C47.9911 79.4841 48.6631 80.0021 48.6631 80.7861C48.6631 81.5841 47.9911 82.0881 47.0111 82.0881C46.0171 82.0881 45.3451 81.5841 45.3451 80.7861C45.3451 80.0021 46.0171 79.4841 47.0111 79.4841ZM46.4371 75.6341V77.5661H47.5711V75.6341H46.4371ZM50.3711 83.7681C47.7111 83.7681 46.1431 84.5521 46.1431 85.9661C46.1431 87.3661 47.7111 88.1641 50.3711 88.1641C53.0031 88.1641 54.5851 87.3661 54.5851 85.9661C54.5851 84.5521 53.0031 83.7681 50.3711 83.7681ZM50.3711 84.6641C52.2891 84.6641 53.4371 85.1261 53.4371 85.9661C53.4371 86.8061 52.2891 87.2821 50.3711 87.2821C48.4251 87.2821 47.2911 86.8061 47.2911 85.9661C47.2911 85.1261 48.4251 84.6641 50.3711 84.6641ZM65.5691 81.8641V84.0761H66.7311V81.8641H65.5691ZM60.4311 81.4581V82.3961H71.8691V81.4581H60.4311ZM66.1431 83.7261C63.4271 83.7261 61.8031 84.5241 61.8031 85.9521C61.8031 87.3661 63.4271 88.1641 66.1431 88.1641C68.8591 88.1641 70.4831 87.3661 70.4831 85.9521C70.4831 84.5241 68.8591 83.7261 66.1431 83.7261ZM66.1431 84.6221C68.1311 84.6221 69.3071 85.0981 69.3071 85.9521C69.3071 86.7921 68.1311 87.2681 66.1431 87.2681C64.1691 87.2681 62.9791 86.7921 62.9791 85.9521C62.9791 85.0981 64.1691 84.6221 66.1431 84.6221ZM65.4011 76.5721V76.9501C65.4011 78.3921 63.3431 79.5261 61.0751 79.7641L61.4951 80.6881C64.1131 80.3661 66.4371 78.9941 66.4371 76.9501V76.5721H65.4011ZM65.8911 76.5721V76.9501C65.8911 78.9941 68.2011 80.3661 70.8191 80.6881L71.2391 79.7641C68.9711 79.5261 66.9131 78.3921 66.9131 76.9501V76.5721H65.8911ZM61.4811 76.1101V77.0481H70.8471V76.1101H61.4811ZM82.522 75.5501V84.7901H83.698V75.5501H82.522ZM75.564 86.9601V87.9121H84.076V86.9601H75.564ZM75.564 83.8381V87.2821H76.712V83.8381H75.564ZM76.908 76.4181C75.018 76.4181 73.604 77.7061 73.604 79.5401C73.604 81.3601 75.018 82.6621 76.908 82.6621C78.798 82.6621 80.198 81.3601 80.198 79.5401C80.198 77.7061 78.798 76.4181 76.908 76.4181ZM76.908 77.4261C78.14 77.4261 79.078 78.2941 79.078 79.5401C79.078 80.7721 78.14 81.6401 76.908 81.6401C75.676 81.6401 74.738 80.7721 74.738 79.5401C74.738 78.2941 75.676 77.4261 76.908 77.4261ZM90.622 76.7681V85.0141H96.446V76.7681H90.622ZM95.312 77.7061V84.0761H91.756V77.7061H95.312ZM99.092 75.5221V88.2061H100.254V75.5221H99.092ZM103.515 81.5421V82.4801H104.537C107.295 82.4801 108.835 82.4381 110.669 82.1161L110.543 81.1921C108.765 81.4861 107.267 81.5421 104.537 81.5421H103.515ZM103.515 76.4601V82.0181H104.663V77.3981H109.535V76.4601H103.515ZM104.285 78.9661V79.8901H109.185V78.9661H104.285ZM111.985 75.5501V83.3761H113.161V75.5501H111.985ZM108.975 83.5581C106.329 83.5581 104.719 84.3981 104.719 85.8541C104.719 87.3241 106.329 88.1641 108.975 88.1641C111.607 88.1641 113.217 87.3241 113.217 85.8541C113.217 84.3981 111.607 83.5581 108.975 83.5581ZM108.975 84.4821C110.893 84.4821 112.055 84.9861 112.055 85.8541C112.055 86.7501 110.893 87.2541 108.975 87.2541C107.043 87.2541 105.881 86.7501 105.881 85.8541C105.881 84.9861 107.043 84.4821 108.975 84.4821ZM124.85 75.5221V88.2061H126.012V75.5221H124.85ZM119.334 76.5021C117.472 76.5021 116.128 78.2241 116.128 80.9121C116.128 83.6141 117.472 85.3361 119.334 85.3361C121.21 85.3361 122.554 83.6141 122.554 80.9121C122.554 78.2241 121.21 76.5021 119.334 76.5021ZM119.334 77.5521C120.58 77.5521 121.434 78.8681 121.434 80.9121C121.434 82.9701 120.58 84.3141 119.334 84.3141C118.102 84.3141 117.234 82.9701 117.234 80.9121C117.234 78.8681 118.102 77.5521 119.334 77.5521ZM133.692 82.9561V88.0241H138.074V82.9561H136.996V84.5381H134.784V82.9561H133.692ZM134.784 85.4061H136.996V87.1141H134.784V85.4061ZM140.524 82.8861V83.9361C140.524 85.2241 139.74 86.6101 138.214 87.2541L138.802 88.1361C140.552 87.3941 141.42 85.6581 141.42 83.9361V82.8861H140.524ZM140.762 82.8861V83.9361C140.762 85.7281 141.616 87.4081 143.38 88.1361L143.968 87.2541C142.442 86.6661 141.658 85.2941 141.658 83.9361V82.8861H140.762ZM138.606 78.5041V79.4701H142.008V78.5041H138.606ZM135.694 76.0961C133.804 76.0961 132.432 77.2721 132.432 79.0081C132.432 80.7301 133.804 81.9201 135.694 81.9201C137.584 81.9201 138.956 80.7301 138.956 79.0081C138.956 77.2721 137.584 76.0961 135.694 76.0961ZM135.694 77.0621C136.94 77.0621 137.836 77.8601 137.836 79.0081C137.836 80.1421 136.94 80.9541 135.694 80.9541C134.448 80.9541 133.552 80.1421 133.552 79.0081C133.552 77.8601 134.448 77.0621 135.694 77.0621ZM141.49 75.5361V82.2421H142.652V75.5361H141.49ZM146.571 83.1241V88.0241H155.069V83.1241H153.907V84.5941H147.719V83.1241H146.571ZM147.719 85.4901H153.907V87.0861H147.719V85.4901ZM145.115 81.3041V82.2421H156.553V81.3041H145.115ZM150.253 75.6761V76.2361C150.253 77.8321 148.055 79.1901 145.773 79.4981L146.193 80.4081C148.797 80.0161 151.247 78.4341 151.247 76.2361V75.6761H150.253ZM150.435 75.6761V76.2361C150.435 78.4061 152.899 80.0161 155.475 80.4081L155.909 79.4981C153.655 79.1901 151.429 77.8041 151.429 76.2361V75.6761H150.435ZM167.206 75.5361V88.1921H168.368V75.5361H167.206ZM158.806 76.7681V84.6081H159.954V76.7681H158.806ZM158.806 83.9221V84.9301H159.842C161.844 84.9301 163.846 84.7761 166.044 84.3281L165.904 83.3341C163.762 83.7821 161.76 83.9221 159.842 83.9221H158.806ZM179.441 75.5221V88.2061H180.617V75.5221H179.441ZM180.337 80.5201V81.5001H182.689V80.5201H180.337ZM171.419 84.0761V85.0561H172.413C174.793 85.0561 176.459 84.9861 178.405 84.6221L178.279 83.6421C176.389 83.9921 174.751 84.0761 172.413 84.0761H171.419ZM171.419 76.7541V84.5101H172.567V77.7061H177.299V76.7541H171.419ZM185.939 76.9183L185.81 84.1718H184.433L184.303 76.9183H185.939ZM185.124 87.1946C184.849 87.1946 184.613 87.0984 184.418 86.9062C184.222 86.7107 184.126 86.4753 184.129 86.2002C184.126 85.9285 184.222 85.6965 184.418 85.5042C184.613 85.3087 184.849 85.2109 185.124 85.2109C185.392 85.2109 185.624 85.3087 185.82 85.5042C186.015 85.6965 186.115 85.9285 186.118 86.2002C186.115 86.3825 186.067 86.5499 185.974 86.7024C185.884 86.8515 185.765 86.9708 185.616 87.0603C185.467 87.1498 185.303 87.1946 185.124 87.1946Z" fill="#D7D7D7"/>
<defs>
<clipPath id="clip0_1484_9728">
<rect width="56" height="55.2" fill="white" transform="translate(66 0.899902)"/>
</clipPath>
</defs>
</svg>
