<svg width="170" height="92" viewBox="0 0 170 92" fill="none" xmlns="http://www.w3.org/2000/svg">
<g clip-path="url(#clip0_1484_9729)">
<path d="M82.31 1.76973C88.81 1.80973 93.38 2.96973 97.56 5.51973C98.34 5.99973 99.01 5.94973 99.78 5.49973C102.33 3.97973 105.03 2.73974 107.73 1.49973C108.42 1.17974 109.04 0.749735 109.78 0.519735C110.9 0.159735 111.68 0.639735 112.32 1.44973C112.94 2.21973 113.32 3.05974 112.68 4.02974C111.3 6.10974 109.93 8.19974 108.55 10.2797C108.05 11.0297 107.51 11.7597 107.04 12.5297C106.54 13.3397 106.44 14.0397 107.07 14.9897C108.59 17.2597 109.47 19.8497 110.17 22.4697C110.89 25.1897 110.99 27.9797 110.83 30.7597C110.62 34.4797 109.62 37.9797 107.91 41.3097C106.62 43.8197 105.01 46.0797 103.01 48.0197C98.62 52.2697 93.44 54.7997 87.25 55.4297C83.4 55.8197 79.69 55.4797 76.04 54.4697C72.26 53.4197 68.95 51.4297 66.04 48.7897C63.55 46.5297 61.51 43.9197 59.97 40.9197C58.57 38.1897 57.7 35.2997 57.27 32.2697C56.63 27.8097 57.13 23.4397 58.65 19.2497C59.72 16.2897 61.35 13.5997 63.43 11.1697C65.72 8.48974 68.41 6.33974 71.51 4.71974C75.39 2.68974 79.53 1.69973 82.3 1.76973H82.31Z" fill="#EAEAEA"/>
<path d="M96.0502 16.7053L95.7603 16.4153C94.7254 15.3804 93.0475 15.3804 92.0126 16.4153L71.7399 36.6881C70.705 37.723 70.705 39.4009 71.7399 40.4358L72.0298 40.7257C73.0647 41.7606 74.7426 41.7606 75.7775 40.7257L96.0502 20.4529C97.0851 19.418 97.0851 17.7401 96.0502 16.7053Z" fill="white"/>
<path d="M72.0351 16.4202L71.7452 16.7102C70.7103 17.745 70.7103 19.4229 71.7452 20.4578L92.0179 40.7306C93.0528 41.7655 94.7307 41.7655 95.7656 40.7306L96.0555 40.4407C97.0904 39.4058 97.0904 37.7279 96.0555 36.693L75.7828 16.4202C74.7479 15.3853 73.07 15.3853 72.0351 16.4202Z" fill="white"/>
</g>
<path d="M10.0513 75.0501V84.6961H11.2133V75.0501H10.0513ZM7.90933 78.3961V79.3481H10.5413V78.3961H7.90933ZM7.90933 81.0701V82.0081H10.5413V81.0701H7.90933ZM0.825328 76.5761V77.5141H7.90933V76.5761H0.825328ZM4.40933 78.2141C2.71533 78.2141 1.53933 79.1801 1.53933 80.6361C1.53933 82.0781 2.71533 83.0581 4.40933 83.0581C6.08933 83.0581 7.26533 82.0781 7.26533 80.6361C7.26533 79.1801 6.08933 78.2141 4.40933 78.2141ZM4.40933 79.1241C5.45933 79.1241 6.17333 79.7401 6.17333 80.6361C6.17333 81.5321 5.45933 82.1341 4.40933 82.1341C3.35933 82.1341 2.64533 81.5321 2.64533 80.6361C2.64533 79.7401 3.35933 79.1241 4.40933 79.1241ZM3.83533 75.0221V77.1781H4.99733V75.0221H3.83533ZM3.07933 86.4601V87.4121H11.5213V86.4601H3.07933ZM3.07933 83.8701V86.9221H4.24133V83.8701H3.07933ZM23.3642 75.0361V87.6921H24.4702V75.0361H23.3642ZM21.3622 80.1321V81.1121H23.7982V80.1321H21.3622ZM20.6062 75.3021V87.0621H21.6982V75.3021H20.6062ZM16.2942 76.9961V78.4521C16.2942 81.0281 15.3702 83.1841 13.5502 84.1921L14.2642 85.0881C16.2102 83.9261 17.2042 81.4901 17.2042 78.4521V76.9961H16.2942ZM16.5042 76.9961V78.4521C16.5042 81.2381 17.5122 83.5761 19.4442 84.6401L20.1302 83.7441C18.3522 82.8341 17.4142 80.7761 17.4142 78.4521V76.9961H16.5042ZM13.8442 76.5201V77.4861H19.7242V76.5201H13.8442ZM35.3142 78.0881V79.0541H37.7782V78.0881H35.3142ZM35.3142 81.9381V82.9041H37.7782V81.9381H35.3142ZM39.9062 75.0361V87.6921H41.0262V75.0361H39.9062ZM37.4282 75.3021V87.0621H38.5202V75.3021H37.4282ZM33.1162 76.0861C31.4782 76.0861 30.4282 77.7801 30.4282 80.4961C30.4282 83.2121 31.4782 84.9061 33.1162 84.9061C34.7542 84.9061 35.8182 83.2121 35.8182 80.4961C35.8182 77.7801 34.7542 76.0861 33.1162 76.0861ZM33.1162 77.1641C34.1242 77.1641 34.7542 78.4521 34.7542 80.4961C34.7542 82.5401 34.1242 83.8281 33.1162 83.8281C32.1222 83.8281 31.4782 82.5401 31.4782 80.4961C31.4782 78.4521 32.1222 77.1641 33.1162 77.1641ZM49.9011 78.3121V79.2781H52.7571V78.3121H49.9011ZM52.3931 75.0361V82.5821H53.5551V75.0361H52.3931ZM49.3971 82.9601C46.7791 82.9601 45.1691 83.8421 45.1691 85.3261C45.1691 86.8241 46.7791 87.6781 49.3971 87.6781C52.0011 87.6781 53.6111 86.8241 53.6111 85.3261C53.6111 83.8421 52.0011 82.9601 49.3971 82.9601ZM49.3971 83.8701C51.3011 83.8701 52.4631 84.4021 52.4631 85.3261C52.4631 86.2361 51.3011 86.7681 49.3971 86.7681C47.4931 86.7681 46.3311 86.2361 46.3311 85.3261C46.3311 84.4021 47.4931 83.8701 49.3971 83.8701ZM46.3731 76.3101V77.3321C46.3731 79.1521 45.0711 80.8461 43.1951 81.5321L43.7971 82.4561C45.8971 81.6721 47.3251 79.6701 47.3251 77.3321V76.3101H46.3731ZM46.5971 76.3101V77.3321C46.5971 79.4601 47.9551 81.3641 50.0131 82.1061L50.6011 81.1821C48.7671 80.5381 47.5351 78.9701 47.5351 77.3321V76.3101H46.5971ZM43.5451 75.9601V76.9121H50.3071V75.9601H43.5451ZM57.208 79.1661V80.1181H63.312V79.1661H57.208ZM59.644 79.7401V82.2741H60.806V79.7401H59.644ZM57.208 75.8621V79.5861H58.37V76.8141H63.228V75.8621H57.208ZM65.216 75.0361V84.5001H66.378V75.0361H65.216ZM58.202 86.4601V87.4121H66.798V86.4601H58.202ZM58.202 83.8841V86.8661H59.35V83.8841H58.202ZM56.242 82.9041C58.608 82.9041 61.604 82.8341 64.278 82.4421L64.208 81.5881C61.604 81.8961 58.524 81.9521 56.088 81.9521L56.242 82.9041ZM73.33 76.2681V84.5141H79.154V76.2681H73.33ZM78.02 77.2061V83.5761H74.464V77.2061H78.02ZM81.8 75.0221V87.7061H82.962V75.0221H81.8ZM86.2229 81.0421V81.9801H87.2449C90.0029 81.9801 91.5429 81.9381 93.3769 81.6161L93.2509 80.6921C91.4729 80.9861 89.9749 81.0421 87.2449 81.0421H86.2229ZM86.2229 75.9601V81.5181H87.3709V76.8981H92.2429V75.9601H86.2229ZM86.9929 78.4661V79.3901H91.8929V78.4661H86.9929ZM94.6929 75.0501V82.8761H95.8689V75.0501H94.6929ZM91.6829 83.0581C89.0369 83.0581 87.4269 83.8981 87.4269 85.3541C87.4269 86.8241 89.0369 87.6641 91.6829 87.6641C94.3149 87.6641 95.9249 86.8241 95.9249 85.3541C95.9249 83.8981 94.3149 83.0581 91.6829 83.0581ZM91.6829 83.9821C93.6009 83.9821 94.7629 84.4861 94.7629 85.3541C94.7629 86.2501 93.6009 86.7541 91.6829 86.7541C89.7509 86.7541 88.5889 86.2501 88.5889 85.3541C88.5889 84.4861 89.7509 83.9821 91.6829 83.9821ZM107.558 75.0221V87.7061H108.72V75.0221H107.558ZM102.042 76.0021C100.18 76.0021 98.8358 77.7241 98.8358 80.4121C98.8358 83.1141 100.18 84.8361 102.042 84.8361C103.918 84.8361 105.262 83.1141 105.262 80.4121C105.262 77.7241 103.918 76.0021 102.042 76.0021ZM102.042 77.0521C103.288 77.0521 104.142 78.3681 104.142 80.4121C104.142 82.4701 103.288 83.8141 102.042 83.8141C100.81 83.8141 99.9418 82.4701 99.9418 80.4121C99.9418 78.3681 100.81 77.0521 102.042 77.0521ZM116.4 82.4561V87.5241H120.782V82.4561H119.704V84.0381H117.492V82.4561H116.4ZM117.492 84.9061H119.704V86.6141H117.492V84.9061ZM123.232 82.3861V83.4361C123.232 84.7241 122.448 86.1101 120.922 86.7541L121.51 87.6361C123.26 86.8941 124.128 85.1581 124.128 83.4361V82.3861H123.232ZM123.47 82.3861V83.4361C123.47 85.2281 124.324 86.9081 126.088 87.6361L126.676 86.7541C125.15 86.1661 124.366 84.7941 124.366 83.4361V82.3861H123.47ZM121.314 78.0041V78.9701H124.716V78.0041H121.314ZM118.402 75.5961C116.512 75.5961 115.14 76.7721 115.14 78.5081C115.14 80.2301 116.512 81.4201 118.402 81.4201C120.292 81.4201 121.664 80.2301 121.664 78.5081C121.664 76.7721 120.292 75.5961 118.402 75.5961ZM118.402 76.5621C119.648 76.5621 120.544 77.3601 120.544 78.5081C120.544 79.6421 119.648 80.4541 118.402 80.4541C117.156 80.4541 116.26 79.6421 116.26 78.5081C116.26 77.3601 117.156 76.5621 118.402 76.5621ZM124.198 75.0361V81.7421H125.36V75.0361H124.198ZM129.279 82.6241V87.5241H137.777V82.6241H136.615V84.0941H130.427V82.6241H129.279ZM130.427 84.9901H136.615V86.5861H130.427V84.9901ZM127.823 80.8041V81.7421H139.261V80.8041H127.823ZM132.961 75.1761V75.7361C132.961 77.3321 130.763 78.6901 128.481 78.9981L128.901 79.9081C131.505 79.5161 133.955 77.9341 133.955 75.7361V75.1761H132.961ZM133.143 75.1761V75.7361C133.143 77.9061 135.607 79.5161 138.183 79.9081L138.617 78.9981C136.363 78.6901 134.137 77.3041 134.137 75.7361V75.1761H133.143ZM149.914 75.0361V87.6921H151.076V75.0361H149.914ZM141.514 76.2681V84.1081H142.662V76.2681H141.514ZM141.514 83.4221V84.4301H142.55C144.552 84.4301 146.554 84.2761 148.752 83.8281L148.612 82.8341C146.47 83.2821 144.468 83.4221 142.55 83.4221H141.514ZM162.149 75.0221V87.7061H163.325V75.0221H162.149ZM163.045 80.0201V81.0001H165.397V80.0201H163.045ZM154.127 83.5761V84.5561H155.121C157.501 84.5561 159.167 84.4861 161.113 84.1221L160.987 83.1421C159.097 83.4921 157.459 83.5761 155.121 83.5761H154.127ZM154.127 76.2541V84.0101H155.275V77.2061H160.007V76.2541H154.127ZM168.647 76.4183L168.518 83.6718H167.141L167.011 76.4183H168.647ZM167.832 86.6946C167.557 86.6946 167.321 86.5984 167.126 86.4062C166.93 86.2107 166.834 85.9753 166.837 85.7002C166.834 85.4285 166.93 85.1965 167.126 85.0042C167.321 84.8087 167.557 84.7109 167.832 84.7109C168.1 84.7109 168.332 84.8087 168.528 85.0042C168.723 85.1965 168.823 85.4285 168.826 85.7002C168.823 85.8825 168.775 86.0499 168.682 86.2024C168.592 86.3515 168.473 86.4708 168.324 86.5603C168.175 86.6498 168.011 86.6946 167.832 86.6946Z" fill="#D7D7D7"/>
<defs>
<clipPath id="clip0_1484_9729">
<rect width="56" height="55.2" fill="white" transform="translate(57 0.399902)"/>
</clipPath>
</defs>
</svg>
