<svg width="132" height="48" viewBox="0 0 132 48" fill="none" xmlns="http://www.w3.org/2000/svg">
<rect width="132" height="48" rx="6" fill="#063250"/>
<path d="M37.2025 23.42V25.132H50.5945V23.42H37.2025ZM42.8185 21.532V23.788H44.9465V21.532H42.8185ZM38.6905 26.14V27.82H46.8505V30.924H48.9785V26.14H38.6905ZM38.9145 16.476V22.204H48.8985V16.476H46.7865V17.788H41.0105V16.476H38.9145ZM41.0105 19.372H46.7865V20.54H41.0105V19.372ZM55.2493 17.244V19.404C55.2493 22.156 54.1133 25.004 51.6173 26.172L52.8973 27.884C55.6973 26.508 56.9773 23.068 56.9773 19.404V17.244H55.2493ZM55.6813 17.244V19.404C55.6813 22.956 56.8493 26.252 59.5213 27.612L60.8013 25.916C58.4333 24.764 57.3773 22.06 57.3773 19.404V17.244H55.6813ZM61.3933 16.108V30.924H63.5373V16.108H61.3933ZM63.0573 21.804V23.58H65.6813V21.804H63.0573ZM76.144 16.108V30.924H78.256V16.108H76.144ZM77.776 21.884V23.66H80.4V21.884H77.776ZM66.576 18.3V19.996H75.2V18.3H66.576ZM70.912 20.828C68.752 20.828 67.152 22.3 67.152 24.364C67.152 26.428 68.752 27.9 70.912 27.9C73.072 27.9 74.672 26.428 74.672 24.364C74.672 22.3 73.072 20.828 70.912 20.828ZM70.912 22.556C71.92 22.556 72.64 23.228 72.64 24.364C72.64 25.5 71.92 26.172 70.912 26.172C69.904 26.172 69.184 25.5 69.184 24.364C69.184 23.228 69.904 22.556 70.912 22.556ZM69.84 16.348V18.94H71.968V16.348H69.84ZM91.5668 16.108V30.924H93.7108V16.108H91.5668ZM87.1988 17.644V18.028C87.1988 21.996 85.6628 24.684 81.4068 26.732L82.5108 28.428C87.7748 25.884 89.3108 22.172 89.3108 17.644H87.1988ZM82.1908 17.644V19.324H88.2068V17.644H82.1908Z" fill="white"/>
</svg>
