<svg width="160" height="48" viewBox="0 0 160 48" fill="none" xmlns="http://www.w3.org/2000/svg">
<rect width="160" height="48" rx="6" fill="#063250"/>
<path d="M37 20C37 17.79 35.21 16 33 16C30.79 16 29 17.79 29 20C29 22.21 30.79 24 33 24C35.21 24 37 22.21 37 20ZM35 20C35 21.1 34.1 22 33 22C31.9 22 31 21.1 31 20C31 18.9 31.9 18 33 18C34.1 18 35 18.9 35 20ZM25 30V32H41V30C41 27.34 35.67 26 33 26C30.33 26 25 27.34 25 30ZM27 30C27.2 29.29 30.3 28 33 28C35.69 28 38.78 29.28 39 30H27ZM44 27V24H47V22H44V19H42V22H39V24H42V27H44Z" fill="white"/>
<path d="M62.3196 17.244V19.404C62.3196 22.156 61.1836 25.004 58.6876 26.172L59.9676 27.884C62.7676 26.508 64.0476 23.068 64.0476 19.404V17.244H62.3196ZM62.7516 17.244V19.404C62.7516 22.956 63.9196 26.252 66.5916 27.612L67.8716 25.916C65.5036 24.764 64.4476 22.06 64.4476 19.404V17.244H62.7516ZM68.4636 16.108V30.924H70.6076V16.108H68.4636ZM70.1276 21.804V23.58H72.7516V21.804H70.1276ZM76.7183 21.068V23.788H78.8463V21.068H76.7183ZM81.9343 21.068V23.788H84.0463V21.068H81.9343ZM73.7103 23.132V24.812H87.1023V23.132H73.7103ZM80.3823 25.564C77.1663 25.564 75.2303 26.524 75.2303 28.236C75.2303 29.964 77.1663 30.924 80.3823 30.924C83.5823 30.924 85.5183 29.964 85.5183 28.236C85.5183 26.524 83.5823 25.564 80.3823 25.564ZM80.3823 27.164C82.3663 27.164 83.3743 27.5 83.3743 28.236C83.3743 28.988 82.3663 29.324 80.3823 29.324C78.3983 29.324 77.3903 28.988 77.3903 28.236C77.3903 27.5 78.3983 27.164 80.3823 27.164ZM80.4143 16.316C77.1343 16.316 75.0543 17.404 75.0543 19.18C75.0543 20.94 77.1343 21.996 80.4143 21.996C83.6783 21.996 85.7743 20.94 85.7743 19.18C85.7743 17.404 83.6783 16.316 80.4143 16.316ZM80.4143 17.948C82.4463 17.948 83.5823 18.348 83.5823 19.18C83.5823 19.996 82.4463 20.396 80.4143 20.396C78.3823 20.396 77.2463 19.996 77.2463 19.18C77.2463 18.348 78.3823 17.948 80.4143 17.948ZM91.7571 18.444V20.108C91.7571 22.54 90.5571 25.308 88.1091 26.46L89.3091 28.14C92.0291 26.86 93.4371 23.452 93.4371 20.108V18.444H91.7571ZM92.2051 18.444V20.108C92.2051 23.26 93.5811 26.508 96.3011 27.772L97.4691 26.092C95.0371 24.972 93.8851 22.348 93.8851 20.108V18.444H92.2051ZM88.6851 17.532V19.276H96.8131V17.532H88.6851ZM97.9011 16.108V30.924H100.045V16.108H97.9011ZM99.5651 21.756V23.516H102.189V21.756H99.5651ZM106.867 27.516V29.244H120.275V27.516H106.867ZM112.499 24.668V28.412H114.627V24.668H112.499ZM112.483 19.196V19.516C112.483 21.212 110.883 23.052 107.283 23.484L108.051 25.164C112.115 24.636 114.371 22.348 114.371 19.516V19.196H112.483ZM112.771 19.196V19.516C112.771 22.348 115.011 24.636 119.075 25.164L119.843 23.484C116.243 23.052 114.643 21.212 114.643 19.516V19.196H112.771ZM108.003 18.108V19.82H119.123V18.108H108.003ZM112.499 16.3V18.812H114.627V16.3H112.499ZM132.274 16.108V30.924H134.29V16.108H132.274ZM130.29 21.804V23.516H132.754V21.804H130.29ZM128.962 16.364V30.22H130.93V16.364H128.962ZM121.986 25.836V27.58H123.026C124.93 27.58 126.498 27.532 128.29 27.18L128.13 25.452C126.37 25.772 124.85 25.836 123.026 25.836H121.986ZM121.986 17.82V26.668H124.098V19.532H127.458V17.82H121.986Z" fill="white"/>
</svg>
