<svg width="132" height="49" viewBox="0 0 132 49" fill="none" xmlns="http://www.w3.org/2000/svg">
<rect y="0.00012207" width="132" height="49" rx="6" fill="#063250"/>
<path d="M59.1853 19.0881V20.7681H62.9613V19.0881H59.1853ZM59.1853 22.2721V23.9521H63.0253V22.2721H59.1853ZM62.1933 16.6241V27.5521H64.3213V16.6241H62.1933ZM54.5133 29.4721V31.1681H64.6413V29.4721H54.5133ZM54.5133 26.4801V30.4481H56.6573V26.4801H54.5133ZM52.5453 17.5841V25.2321H59.5533V17.5841H57.4733V19.8401H54.6573V17.5841H52.5453ZM54.6573 21.4561H57.4733V23.5521H54.6573V21.4561ZM73.776 18.9441V20.6401H77.248V18.9441H73.776ZM73.664 22.0161V23.7121H77.136V22.0161H73.664ZM76.912 16.6081V25.1361H79.04V16.6081H76.912ZM72.08 17.6161V18.6401C72.08 20.9601 70.512 22.8161 66.752 23.7921L67.584 25.4721C72.08 24.2401 74.352 21.6481 74.352 17.6161H72.08ZM67.568 17.6161V19.3121H73.568V17.6161H67.568ZM74.128 25.3281C71.12 25.3281 69.12 26.4801 69.12 28.3361C69.12 30.1921 71.12 31.3601 74.128 31.3601C77.136 31.3601 79.136 30.1921 79.136 28.3361C79.136 26.4801 77.136 25.3281 74.128 25.3281ZM74.128 26.9601C75.952 26.9601 77.04 27.4241 77.04 28.3361C77.04 29.2481 75.952 29.6961 74.128 29.6961C72.32 29.6961 71.232 29.2481 71.232 28.3361C71.232 27.4241 72.32 26.9601 74.128 26.9601Z" fill="white"/>
</svg>
