<svg width="200" height="54" viewBox="0 0 200 54" fill="none" xmlns="http://www.w3.org/2000/svg">
<path d="M87.1816 20.7802V21.0002C87.1816 22.6002 85.9216 24.1202 83.0616 24.6402L84.1216 26.7002C87.6816 25.9802 89.3216 23.7402 89.3216 21.0002V20.7802H87.1816ZM87.7216 20.7802V21.0002C87.7216 23.6202 89.3616 25.7602 92.8616 26.4202L93.9016 24.3802C91.1016 23.8802 89.8616 22.5002 89.8616 21.0002V20.7802H87.7216ZM83.5616 19.1002V21.1402H93.4616V19.1002H83.5616ZM87.1816 17.3002V20.5602H89.8616V17.3002H87.1816ZM87.1616 27.7802V35.2202H89.8216V27.7802H87.1616ZM95.2616 17.2602V35.7802H97.9016V17.2602H95.2616ZM82.7816 29.6402C86.0816 29.6402 90.3816 29.5802 94.3816 28.8602L94.2016 26.9402C90.3216 27.4602 85.8216 27.4802 82.4616 27.4802L82.7816 29.6402ZM100.82 31.4402V33.6202H117.58V31.4402H100.82ZM107.78 27.3202V32.0202H110.42V27.3202H107.78ZM107.68 18.2802V19.6202C107.68 22.1802 105.42 25.0202 101.2 25.7002L102.3 27.9202C107.14 27.0402 110 23.5602 110 19.6202V18.2802H107.68ZM108.2 18.2802V19.6202C108.2 23.6202 111.06 27.0202 115.92 27.9202L117.02 25.7002C112.78 25.0202 110.52 22.2402 110.52 19.6202V18.2802H108.2Z" fill="#888888"/>
<rect x="0.5" y="0.500183" width="199" height="53" rx="5.5" stroke="#5C5C5C"/>
</svg>
