<svg width="51" height="51" viewBox="0 0 51 51" fill="none" xmlns="http://www.w3.org/2000/svg">
<path d="M50.3449 0.662804C48.6277 -0.828505 47.182 0.662804 47.182 0.662804L38.3087 5.81747C34.3914 3.17998 29.6785 1.63801 24.6059 1.63801C11.0166 1.63801 0 12.6883 0 26.319C0 39.9497 11.0166 51 24.6059 51C38.1951 51 49.2117 39.9497 49.2117 26.319C49.2117 21.1707 47.6366 16.3896 44.9471 12.4318L50.3418 3.83223C50.3449 3.8354 51.8191 2.25543 50.3449 0.662804ZM24.6059 41.5772C16.2061 41.5772 9.3941 34.7476 9.3941 26.319C9.3941 17.8936 16.2029 11.0608 24.6059 11.0608C33.0056 11.0608 39.8176 17.8904 39.8176 26.319C39.8176 34.7476 33.0088 41.5772 24.6059 41.5772Z" fill="#2396F0"/>
</svg>
