<svg width="132" height="49" viewBox="0 0 132 49" fill="none" xmlns="http://www.w3.org/2000/svg">
<rect y="0.00012207" width="132" height="49" rx="6" fill="#063250"/>
<path d="M38.1516 16.5921V31.4561H40.2956V16.5921H38.1516ZM32.3116 17.6321C30.0716 17.6321 28.4236 19.6801 28.4236 22.9121C28.4236 26.1761 30.0716 28.2241 32.3116 28.2241C34.5516 28.2241 36.1996 26.1761 36.1996 22.9121C36.1996 19.6801 34.5516 17.6321 32.3116 17.6321ZM32.3116 19.5681C33.4156 19.5681 34.1516 20.7361 34.1516 22.9121C34.1516 25.1201 33.4156 26.3041 32.3116 26.3041C31.2076 26.3041 30.4556 25.1201 30.4556 22.9121C30.4556 20.7361 31.2076 19.5681 32.3116 19.5681ZM43.4463 17.9361V27.9041H50.5663V17.9361H43.4463ZM48.4863 19.6001V26.2241H45.5423V19.6001H48.4863ZM52.8703 16.5921V31.4561H55.0143V16.5921H52.8703ZM60.9971 18.9441V20.6081C60.9971 23.1201 59.7971 25.8561 57.3171 26.9601L58.5171 28.6401C61.3011 27.3761 62.6931 24.0321 62.6931 20.6081V18.9441H60.9971ZM61.4771 18.9441V20.6081C61.4771 23.9041 62.8531 27.0561 65.6691 28.2721L66.8211 26.5921C64.3411 25.5681 63.1571 23.0081 63.1571 20.6081V18.9441H61.4771ZM57.9091 18.0321V19.7761H66.2131V18.0321H57.9091ZM67.5891 16.6081V31.4241H69.7331V16.6081H67.5891ZM83.1149 19.0881V20.7681H86.8909V19.0881H83.1149ZM83.1149 22.2721V23.9521H86.9549V22.2721H83.1149ZM86.1229 16.6241V27.5521H88.2509V16.6241H86.1229ZM78.4429 29.4721V31.1681H88.5709V29.4721H78.4429ZM78.4429 26.4801V30.4481H80.5869V26.4801H78.4429ZM76.4749 17.5841V25.2321H83.4829V17.5841H81.4029V19.8401H78.5869V17.5841H76.4749ZM78.5869 21.4561H81.4029V23.5521H78.5869V21.4561ZM97.7057 18.9441V20.6401H101.178V18.9441H97.7057ZM97.5937 22.0161V23.7121H101.066V22.0161H97.5937ZM100.842 16.6081V25.1361H102.97V16.6081H100.842ZM96.0097 17.6161V18.6401C96.0097 20.9601 94.4417 22.8161 90.6817 23.7921L91.5137 25.4721C96.0097 24.2401 98.2817 21.6481 98.2817 17.6161H96.0097ZM91.4977 17.6161V19.3121H97.4977V17.6161H91.4977ZM98.0577 25.3281C95.0497 25.3281 93.0497 26.4801 93.0497 28.3361C93.0497 30.1921 95.0497 31.3601 98.0577 31.3601C101.066 31.3601 103.066 30.1921 103.066 28.3361C103.066 26.4801 101.066 25.3281 98.0577 25.3281ZM98.0577 26.9601C99.8817 26.9601 100.97 27.4241 100.97 28.3361C100.97 29.2481 99.8817 29.6961 98.0577 29.6961C96.2497 29.6961 95.1617 29.2481 95.1617 28.3361C95.1617 27.4241 96.2497 26.9601 98.0577 26.9601Z" fill="white"/>
</svg>
