<svg width="132" height="49" viewBox="0 0 132 49" fill="none" xmlns="http://www.w3.org/2000/svg">
<path d="M38.1996 16.6081V31.4241H40.3436V16.6081H38.1996ZM33.8316 18.1441V18.5281C33.8316 22.4961 32.2956 25.1841 28.0396 27.2321L29.1436 28.9281C34.4076 26.3841 35.9436 22.6721 35.9436 18.1441H33.8316ZM28.8236 18.1441V19.8241H34.8396V18.1441H28.8236ZM44.4223 17.1521V23.1841H54.4063V17.1521H52.2943V18.5921H46.5183V17.1521H44.4223ZM46.5183 20.2241H52.2943V21.5041H46.5183V20.2241ZM42.7103 24.4321V26.1281H56.1023V24.4321H42.7103ZM48.3263 22.2881V25.1361H50.4543V22.2881H48.3263ZM44.3263 29.4721V31.1681H54.5983V29.4721H44.3263ZM44.3263 26.9921V30.0961H46.4543V26.9921H44.3263ZM71.2922 16.5921V31.4561H73.4362V16.5921H71.2922ZM65.4522 17.6321C63.2122 17.6321 61.5642 19.6801 61.5642 22.9121C61.5642 26.1761 63.2122 28.2241 65.4522 28.2241C67.6922 28.2241 69.3402 26.1761 69.3402 22.9121C69.3402 19.6801 67.6922 17.6321 65.4522 17.6321ZM65.4522 19.5681C66.5562 19.5681 67.2922 20.7361 67.2922 22.9121C67.2922 25.1201 66.5562 26.3041 65.4522 26.3041C64.3482 26.3041 63.5962 25.1201 63.5962 22.9121C63.5962 20.7361 64.3482 19.5681 65.4522 19.5681ZM76.5869 17.9361V27.9041H83.7069V17.9361H76.5869ZM81.6269 19.6001V26.2241H78.6829V19.6001H81.6269ZM86.0109 16.5921V31.4561H88.1549V16.5921H86.0109ZM94.1377 18.9441V20.6081C94.1377 23.1201 92.9377 25.8561 90.4577 26.9601L91.6577 28.6401C94.4417 27.3761 95.8337 24.0321 95.8337 20.6081V18.9441H94.1377ZM94.6177 18.9441V20.6081C94.6177 23.9041 95.9937 27.0561 98.8097 28.2721L99.9617 26.5921C97.4817 25.5681 96.2977 23.0081 96.2977 20.6081V18.9441H94.6177ZM91.0497 18.0321V19.7761H99.3537V18.0321H91.0497ZM100.73 16.6081V31.4241H102.874V16.6081H100.73Z" fill="black"/>
<rect x="0.5" y="0.500122" width="131" height="48" rx="5.5" stroke="#063250"/>
</svg>
