<svg width="117" height="117" viewBox="0 0 117 117" fill="none" xmlns="http://www.w3.org/2000/svg">
<circle cx="58.5" cy="58.5001" r="58.5" fill="#D9D9D9"/>
<path d="M58 40.5001C62.6964 40.5001 66.5 44.3038 66.5 49.0001C66.5 53.6965 62.6964 57.5001 58 57.5001C53.3036 57.5001 49.5 53.6965 49.5 49.0001C49.5 44.3038 53.3036 40.5001 58 40.5001ZM40.5 75.5001V71.5001C40.5 70.1875 41.1536 69.0008 42.3068 67.9364C43.4634 66.8689 45.0891 65.9586 46.9331 65.2199C50.622 63.7421 55.0588 63.0001 58 63.0001C60.9412 63.0001 65.378 63.7421 69.0669 65.2199C70.9109 65.9586 72.5366 66.8689 73.6932 67.9364C74.8464 69.0008 75.5 70.1875 75.5 71.5001V75.5001H40.5Z" fill="#888888" stroke="#D7D7D7"/>
</svg>
