<svg width="32" height="32" viewBox="0 0 32 32" fill="none" xmlns="http://www.w3.org/2000/svg">
<path d="M31.5909 0.415851C30.5133 -0.519814 29.6062 0.415851 29.6062 0.415851L24.0383 3.64995C21.5802 1.99516 18.6229 1.02771 15.4399 1.02771C6.91279 1.02771 0 7.96077 0 16.5148C0 25.0689 6.91279 32 15.4399 32C23.967 32 30.8798 25.0669 30.8798 16.5148C30.8798 13.2847 29.8914 10.285 28.2038 7.80184L31.5889 2.40637C31.5889 2.40637 32.5139 1.41509 31.5889 0.415851H31.5909ZM15.4399 26.088C10.1691 26.088 5.89469 21.803 5.89469 16.5148C5.89469 11.2267 10.1672 6.94167 15.4399 6.94167C20.7126 6.94167 24.9851 11.2267 24.9851 16.5148C24.9851 21.803 20.7126 26.088 15.4399 26.088Z" fill="#2396F0"/>
</svg>
