<svg width="21" height="20" viewBox="0 0 21 20" fill="none" xmlns="http://www.w3.org/2000/svg">
<path d="M6.33333 9.16675H8V10.8334H6.33333V9.16675ZM18 5.00008V16.6667C18 17.5834 17.25 18.3334 16.3333 18.3334H4.66667C3.74167 18.3334 3 17.5834 3 16.6667L3.00833 5.00008C3.00833 4.08341 3.74167 3.33341 4.66667 3.33341H5.5V1.66675H7.16667V3.33341H13.8333V1.66675H15.5V3.33341H16.3333C17.25 3.33341 18 4.08341 18 5.00008ZM4.66667 6.66675H16.3333V5.00008H4.66667V6.66675ZM16.3333 16.6667V8.33341H4.66667V16.6667H16.3333ZM13 10.8334H14.6667V9.16675H13V10.8334ZM9.66667 10.8334H11.3333V9.16675H9.66667V10.8334Z" fill="#2396F0"/>
</svg>
