<svg width="132" height="54" viewBox="0 0 132 54" fill="none" xmlns="http://www.w3.org/2000/svg">
<rect width="132" height="54" rx="6" fill="#063250"/>
<path d="M36.0031 18C33.2031 18 31.1631 19.62 31.1631 21.96C31.1631 24.26 33.2031 25.92 36.0031 25.92C38.8231 25.92 40.8631 24.26 40.8631 21.96C40.8631 19.62 38.8231 18 36.0031 18ZM36.0031 20.16C37.3631 20.16 38.3231 20.8 38.3231 21.96C38.3231 23.1 37.3631 23.74 36.0031 23.74C34.6631 23.74 33.7031 23.1 33.7031 21.96C33.7031 20.8 34.6631 20.16 36.0031 20.16ZM34.7631 27.76V35.22H37.4231V27.76H34.7631ZM42.8631 17.26V35.78H45.5031V17.26H42.8631ZM30.3831 29.16C33.5831 29.14 37.9631 29.1 41.9831 28.3L41.8031 26.36C37.8831 26.96 33.3031 27 30.0631 27L30.3831 29.16ZM61.1216 17.28V27.74H63.8016V17.28H61.1216ZM51.4816 28.58V35.58H63.8016V28.58H51.4816ZM61.1816 30.66V33.48H54.0816V30.66H61.1816ZM53.7216 18.12C50.8416 18.12 48.6816 19.96 48.6816 22.56C48.6816 25.14 50.8416 27 53.7216 27C56.6016 27 58.7416 25.14 58.7416 22.56C58.7416 19.96 56.6016 18.12 53.7216 18.12ZM53.7216 20.32C55.1216 20.32 56.1416 21.14 56.1416 22.56C56.1416 23.96 55.1216 24.78 53.7216 24.78C52.3216 24.78 51.2816 23.96 51.2816 22.56C51.2816 21.14 52.3216 20.32 53.7216 20.32ZM78.68 17.26V35.78H81.32V17.26H78.68ZM80.72 24.48V26.7H84V24.48H80.72ZM66.72 20V22.12H77.5V20H66.72ZM72.14 23.16C69.44 23.16 67.44 25 67.44 27.58C67.44 30.16 69.44 32 72.14 32C74.84 32 76.84 30.16 76.84 27.58C76.84 25 74.84 23.16 72.14 23.16ZM72.14 25.32C73.4 25.32 74.3 26.16 74.3 27.58C74.3 29 73.4 29.84 72.14 29.84C70.88 29.84 69.98 29 69.98 27.58C69.98 26.16 70.88 25.32 72.14 25.32ZM70.8 17.56V20.8H73.46V17.56H70.8ZM97.9584 17.26V35.78H100.638V17.26H97.9584ZM92.4984 19.18V19.66C92.4984 24.62 90.5784 27.98 85.2584 30.54L86.6384 32.66C93.2184 29.48 95.1384 24.84 95.1384 19.18H92.4984ZM86.2384 19.18V21.28H93.7584V19.18H86.2384Z" fill="white"/>
</svg>
