<svg width="181" height="180" viewBox="0 0 181 180" fill="none" xmlns="http://www.w3.org/2000/svg">
<path d="M0.5 87C0.5 38.9512 39.4512 0 87.5 0H93.5C141.549 0 180.5 38.9512 180.5 87V93C180.5 141.049 141.549 180 93.5 180H87.5C39.4512 180 0.5 141.049 0.5 93V87Z" fill="#D7D7D7"/>
<path d="M117.781 62.7278C115.895 61.0903 114.308 62.7278 114.308 62.7278L104.565 68.3878C100.263 65.4917 95.0882 63.7986 89.5182 63.7986C74.5967 63.7986 62.5 75.9322 62.5 90.8993C62.5 105.866 74.5967 118 89.5182 118C104.44 118 116.536 105.866 116.536 90.8993C116.536 85.2462 114.807 79.9964 111.854 75.6506L117.777 66.2079C117.781 66.2114 119.399 64.4766 117.781 62.7278ZM89.5182 107.653C80.2949 107.653 72.8151 100.154 72.8151 90.8993C72.8151 81.6479 80.2915 74.1452 89.5182 74.1452C98.7415 74.1452 106.221 81.6444 106.221 90.8993C106.221 100.154 98.7449 107.653 89.5182 107.653Z" fill="white"/>
</svg>
