<svg width="132" height="54" viewBox="0 0 132 54" fill="none" xmlns="http://www.w3.org/2000/svg">
<rect width="132" height="54" rx="6" fill="#063250"/>
<path d="M43.3231 17.26V35.78H45.8631V17.26H43.3231ZM40.9031 24.4V26.52H43.9831V24.4H40.9031ZM39.1831 17.58V34.9H41.6631V17.58H39.1831ZM30.7231 19.3V30H33.3831V19.3H30.7231ZM30.7231 29V31.28H32.0031C33.8831 31.28 36.0031 31.18 38.4231 30.74L38.1631 28.46C35.8631 28.9 33.7831 29 32.0031 29H30.7231ZM48.4216 31.48V33.64H65.1816V31.48H48.4216ZM55.4416 27.52V32H58.1016V27.52H55.4416ZM50.1816 18.44V28.08H63.3616V18.44H60.7216V21.28H52.8216V18.44H50.1816ZM52.8216 23.36H60.7216V25.96H52.8216V23.36ZM80.12 17.26V35.78H82.66V17.26H80.12ZM77.7 24.4V26.52H80.78V24.4H77.7ZM75.98 17.58V34.9H78.46V17.58H75.98ZM67.52 19.3V30H70.18V19.3H67.52ZM67.52 29V31.28H68.8C70.68 31.28 72.8 31.18 75.22 30.74L74.96 28.46C72.66 28.9 70.58 29 68.8 29H67.52ZM97.9584 17.26V35.78H100.638V17.26H97.9584ZM92.4984 19.18V19.66C92.4984 24.62 90.5784 27.98 85.2584 30.54L86.6384 32.66C93.2184 29.48 95.1384 24.84 95.1384 19.18H92.4984ZM86.2384 19.18V21.28H93.7584V19.18H86.2384Z" fill="white"/>
</svg>
