<svg width="177" height="54" viewBox="0 0 177 54" fill="none" xmlns="http://www.w3.org/2000/svg">
<rect x="0.5" y="0.5" width="176" height="53" rx="5.5" fill="white"/>
<path d="M53.6895 17.24V35.82H56.3695V17.24H53.6895ZM46.3895 18.54C43.5895 18.54 41.5295 21.1 41.5295 25.14C41.5295 29.22 43.5895 31.78 46.3895 31.78C49.1895 31.78 51.2495 29.22 51.2495 25.14C51.2495 21.1 49.1895 18.54 46.3895 18.54ZM46.3895 20.96C47.7695 20.96 48.6895 22.42 48.6895 25.14C48.6895 27.9 47.7695 29.38 46.3895 29.38C45.0095 29.38 44.0695 27.9 44.0695 25.14C44.0695 22.42 45.0095 20.96 46.3895 20.96ZM60.3079 18.92V31.38H69.2079V18.92H60.3079ZM66.6079 21V29.28H62.9279V21H66.6079ZM72.0879 17.24V35.82H74.7679V17.24H72.0879ZM82.2463 20.18V22.26C82.2463 25.4 80.7463 28.82 77.6463 30.2L79.1463 32.3C82.6263 30.72 84.3663 26.54 84.3663 22.26V20.18H82.2463ZM82.8463 20.18V22.26C82.8463 26.38 84.5663 30.32 88.0863 31.84L89.5263 29.74C86.4263 28.46 84.9463 25.26 84.9463 22.26V20.18H82.8463ZM78.3863 19.04V21.22H88.7663V19.04H78.3863ZM90.4863 17.26V35.78H93.1663V17.26H90.4863ZM113.694 17.24V35.82H116.354V17.24H113.694ZM110.454 23.72V25.86H114.314V23.72H110.454ZM105.094 20.18V21.82C105.094 25.26 103.634 28.8 100.534 30.26L102.094 32.36C105.554 30.66 107.194 26.34 107.194 21.82V20.18H105.094ZM105.714 20.18V21.82C105.714 26.2 107.314 30.34 110.794 31.98L112.334 29.9C109.234 28.5 107.794 25.08 107.794 21.82V20.18H105.714ZM101.294 19.04V21.18H111.594V19.04H101.294ZM123.332 19.32V20.48C123.332 22.84 122.032 25.26 118.952 26.28L120.272 28.38C123.852 27.2 125.512 24.02 125.512 20.48V19.32H123.332ZM123.872 19.32V20.48C123.872 23.78 125.472 26.68 128.992 27.74L130.252 25.66C127.272 24.76 126.032 22.64 126.032 20.48V19.32H123.872ZM119.652 18.5V20.62H129.652V18.5H119.652ZM131.132 17.26V28.24H133.792V17.26H131.132ZM133.052 21.52V23.7H136.252V21.52H133.052ZM127.752 28.58C123.892 28.58 121.472 29.92 121.472 32.18C121.472 34.44 123.892 35.78 127.752 35.78C131.592 35.78 134.012 34.44 134.012 32.18C134.012 29.92 131.592 28.58 127.752 28.58ZM127.752 30.66C130.112 30.66 131.372 31.14 131.372 32.18C131.372 33.22 130.112 33.74 127.752 33.74C125.392 33.74 124.112 33.22 124.112 32.18C124.112 31.14 125.392 30.66 127.752 30.66Z" fill="#1E2222"/>
<rect x="0.5" y="0.5" width="176" height="53" rx="5.5" stroke="#063250"/>
</svg>
