<svg width="177" height="54" viewBox="0 0 177 54" fill="none" xmlns="http://www.w3.org/2000/svg">
<rect width="177" height="54" rx="6" fill="#063250"/>
<path d="M53.6895 17.24V35.82H56.3695V17.24H53.6895ZM46.3895 18.54C43.5895 18.54 41.5295 21.1 41.5295 25.14C41.5295 29.22 43.5895 31.78 46.3895 31.78C49.1895 31.78 51.2495 29.22 51.2495 25.14C51.2495 21.1 49.1895 18.54 46.3895 18.54ZM46.3895 20.96C47.7695 20.96 48.6895 22.42 48.6895 25.14C48.6895 27.9 47.7695 29.38 46.3895 29.38C45.0095 29.38 44.0695 27.9 44.0695 25.14C44.0695 22.42 45.0095 20.96 46.3895 20.96ZM60.3079 18.92V31.38H69.2079V18.92H60.3079ZM66.6079 21V29.28H62.9279V21H66.6079ZM72.0879 17.24V35.82H74.7679V17.24H72.0879ZM82.2463 20.18V22.26C82.2463 25.4 80.7463 28.82 77.6463 30.2L79.1463 32.3C82.6263 30.72 84.3663 26.54 84.3663 22.26V20.18H82.2463ZM82.8463 20.18V22.26C82.8463 26.38 84.5663 30.32 88.0863 31.84L89.5263 29.74C86.4263 28.46 84.9463 25.26 84.9463 22.26V20.18H82.8463ZM78.3863 19.04V21.22H88.7663V19.04H78.3863ZM90.4863 17.26V35.78H93.1663V17.26H90.4863ZM110.274 21.2V23.34H114.574V21.2H110.274ZM105.054 18.4V20.4C105.054 23.02 103.774 25.58 100.714 26.6L102.114 28.68C105.614 27.4 107.194 24.18 107.194 20.4V18.4H105.054ZM105.634 18.4V20.42C105.634 23.92 107.154 27.02 110.474 28.22L111.894 26.18C108.974 25.18 107.754 22.8 107.754 20.42V18.4H105.634ZM113.654 17.28V30.94H116.314V17.28H113.654ZM104.054 33.34V35.46H116.714V33.34H104.054ZM104.054 29.56V34.52H106.734V29.56H104.054ZM119.832 25.7V27.86H121.112C123.872 27.86 125.672 27.8 127.792 27.44L127.552 25.32C125.512 25.66 123.792 25.7 121.112 25.7H119.832ZM119.832 18.5V26.88H122.392V20.62H127.132V18.5H119.832ZM121.632 22.12V24.12H126.932V22.12H121.632ZM132.472 17.26V28.56H134.992V17.26H132.472ZM130.252 21.8V23.92H133.192V21.8H130.252ZM128.512 17.6V28.44H130.992V17.6H128.512ZM122.272 29.36V31.48H132.352V35.78H134.992V29.36H122.272Z" fill="white"/>
</svg>
