<svg width="132" height="49" viewBox="0 0 132 49" fill="none" xmlns="http://www.w3.org/2000/svg">
<rect width="132" height="49" rx="6" fill="#063250"/>
<path d="M57.5533 26.096V31.44H59.6653V26.096H57.5533ZM51.9373 25.472V27.2H65.3293V25.472H51.9373ZM57.5373 19.264V19.616C57.5373 20.992 55.9533 22.672 52.6093 23.056L53.3453 24.72C57.2653 24.256 59.4093 22.096 59.4093 19.616V19.264H57.5373ZM57.8093 19.264V19.616C57.8093 22.032 59.9533 24.272 63.8573 24.72L64.6093 23.056C61.2812 22.672 59.6813 20.96 59.6813 19.616V19.264H57.8093ZM53.1373 18.304V19.984H64.1133V18.304H53.1373ZM57.5533 16.64V18.88H59.6653V16.64H57.5533ZM76.112 16.592V31.408H78.256V16.592H76.112ZM77.696 22.256V24H80.304V22.256H77.696ZM72.224 18.128V18.496C72.224 22.512 70.384 25.232 66.496 27.248L67.68 28.864C72.608 26.384 74.304 22.576 74.304 18.128H72.224ZM67.312 18.128V19.84H73.312V18.128H67.312Z" fill="white"/>
</svg>
