<svg width="220" height="92" viewBox="0 0 220 92" fill="none" xmlns="http://www.w3.org/2000/svg">
<g filter="url(#filter0_d_1416_8049)">
<path d="M20 42C20 27.6406 31.6406 16 46 16H174C188.359 16 200 27.6406 200 42V42C200 56.3594 188.359 68 174 68H46C31.6406 68 20 56.3594 20 42V42Z" fill="#2396F0" shape-rendering="crispEdges"/>
<path d="M48 46H56V48H48V46ZM48 42H56V44H48V42ZM54 32H46C44.9 32 44 32.9 44 34V50C44 51.1 44.89 52 45.99 52H58C59.1 52 60 51.1 60 50V38L54 32ZM58 50H46V34H53V39H58V50Z" fill="#FCFCFC"/>
<path d="M77.142 51.2727V39.2727H78.8011V40.6875H78.9432C79.0417 40.5057 79.1837 40.2955 79.3693 40.0568C79.5549 39.8182 79.8125 39.6098 80.142 39.4318C80.4716 39.25 80.9072 39.1591 81.4489 39.1591C82.1534 39.1591 82.7822 39.3371 83.3352 39.6932C83.8883 40.0492 84.322 40.5625 84.6364 41.233C84.9545 41.9034 85.1136 42.7102 85.1136 43.6534C85.1136 44.5966 84.9564 45.4053 84.642 46.0795C84.3277 46.75 83.8958 47.267 83.3466 47.6307C82.7973 47.9905 82.1705 48.1705 81.4659 48.1705C80.9356 48.1705 80.5019 48.0814 80.1648 47.9034C79.8314 47.7254 79.5701 47.517 79.3807 47.2784C79.1913 47.0398 79.0455 46.8277 78.9432 46.642H78.8409V51.2727H77.142ZM78.8068 43.6364C78.8068 44.25 78.8958 44.7879 79.0739 45.25C79.2519 45.7121 79.5095 46.0739 79.8466 46.3352C80.1837 46.5928 80.5966 46.7216 81.0852 46.7216C81.5928 46.7216 82.017 46.5871 82.358 46.3182C82.6989 46.0455 82.9564 45.6761 83.1307 45.2102C83.3087 44.7443 83.3977 44.2197 83.3977 43.6364C83.3977 43.0606 83.3106 42.5436 83.1364 42.0852C82.9659 41.6269 82.7083 41.2652 82.3636 41C82.0227 40.7348 81.5966 40.6023 81.0852 40.6023C80.5928 40.6023 80.1761 40.7292 79.8352 40.983C79.4981 41.2367 79.2424 41.5909 79.0682 42.0455C78.8939 42.5 78.8068 43.0303 78.8068 43.6364ZM90.2841 48.1705C89.5795 48.1705 88.9508 47.9905 88.3977 47.6307C87.8485 47.267 87.4167 46.75 87.1023 46.0795C86.7917 45.4053 86.6364 44.5966 86.6364 43.6534C86.6364 42.7102 86.7936 41.9034 87.108 41.233C87.4261 40.5625 87.8617 40.0492 88.4148 39.6932C88.9678 39.3371 89.5947 39.1591 90.2955 39.1591C90.8371 39.1591 91.2727 39.25 91.6023 39.4318C91.9356 39.6098 92.1932 39.8182 92.375 40.0568C92.5606 40.2955 92.7045 40.5057 92.8068 40.6875H92.9091V36.3636H94.608V48H92.9489V46.642H92.8068C92.7045 46.8277 92.5568 47.0398 92.3636 47.2784C92.1742 47.517 91.9129 47.7254 91.5795 47.9034C91.2462 48.0814 90.8144 48.1705 90.2841 48.1705ZM90.6591 46.7216C91.1477 46.7216 91.5606 46.5928 91.8977 46.3352C92.2386 46.0739 92.4962 45.7121 92.6705 45.25C92.8485 44.7879 92.9375 44.25 92.9375 43.6364C92.9375 43.0303 92.8504 42.5 92.6761 42.0455C92.5019 41.5909 92.2462 41.2367 91.9091 40.983C91.572 40.7292 91.1553 40.6023 90.6591 40.6023C90.1477 40.6023 89.7216 40.7348 89.3807 41C89.0398 41.2652 88.7822 41.6269 88.608 42.0852C88.4375 42.5436 88.3523 43.0606 88.3523 43.6364C88.3523 44.2197 88.4394 44.7443 88.6136 45.2102C88.7879 45.6761 89.0455 46.0455 89.3864 46.3182C89.7311 46.5871 90.1553 46.7216 90.6591 46.7216ZM101.186 39.2727V40.6364H96.2543V39.2727H101.186ZM97.6065 48V38.2614C97.6065 37.7159 97.7259 37.2633 97.9645 36.9034C98.2031 36.5398 98.5194 36.2689 98.9134 36.0909C99.3073 35.9091 99.7353 35.8182 100.197 35.8182C100.538 35.8182 100.83 35.8466 101.072 35.9034C101.315 35.9564 101.495 36.0057 101.612 36.0511L101.214 37.4261C101.135 37.4034 101.033 37.3769 100.908 37.3466C100.783 37.3125 100.631 37.2955 100.453 37.2955C100.04 37.2955 99.7448 37.3977 99.5668 37.6023C99.3925 37.8068 99.3054 38.1023 99.3054 38.4886V48H97.6065ZM102.597 46.368V47.472H115.701V46.368H102.597ZM108.453 43.264V46.832H109.781V43.264H108.453ZM104.181 35.856V36.928H112.773V39.168H104.229V43.136H105.541V40.24H114.085V35.856H104.181ZM104.229 42.576V43.664H114.421V42.576H104.229ZM132.126 34.768V49.264H133.438V34.768H132.126ZM129.006 40.048V41.136H132.51V40.048H129.006ZM125.214 36.848V39.008C125.214 41.584 123.502 44.32 121.422 45.344L122.206 46.4C124.494 45.216 126.286 42.128 126.286 39.008V36.848H125.214ZM125.486 36.848V39.008C125.486 41.984 127.246 44.96 129.534 46.096L130.318 45.056C128.222 44.064 126.542 41.424 126.542 39.008V36.848H125.486ZM121.95 36.256V37.36H129.822V36.256H121.95ZM139.821 36.336V37.504C139.821 39.568 138.381 41.44 136.205 42.208L136.877 43.264C139.309 42.384 140.909 40.16 140.909 37.504V36.336H139.821ZM140.061 36.336V37.488C140.061 39.952 141.597 42.016 144.013 42.816L144.653 41.776C142.525 41.072 141.149 39.376 141.149 37.488V36.336H140.061ZM136.605 35.856V36.944H144.333V35.856H136.605ZM146.157 34.784V43.504H147.485V34.784H146.157ZM147.117 38.448V39.568H149.629V38.448H147.117ZM142.877 43.888C139.933 43.888 138.125 44.864 138.125 46.544C138.125 48.24 139.933 49.216 142.877 49.216C145.821 49.216 147.629 48.24 147.629 46.544C147.629 44.864 145.821 43.888 142.877 43.888ZM142.877 44.96C145.021 44.96 146.333 45.536 146.333 46.544C146.333 47.568 145.021 48.176 142.877 48.176C140.733 48.176 139.421 47.568 139.421 46.544C139.421 45.536 140.733 44.96 142.877 44.96ZM160.78 34.784V49.248H162.108V34.784H160.78ZM161.788 40.72V41.84H164.476V40.72H161.788ZM150.908 37.088V38.176H159.436V37.088H150.908ZM155.228 39.376C153.196 39.376 151.708 40.752 151.708 42.704C151.708 44.656 153.196 46.032 155.228 46.032C157.276 46.032 158.748 44.656 158.748 42.704C158.748 40.752 157.276 39.376 155.228 39.376ZM155.228 40.48C156.54 40.48 157.484 41.392 157.484 42.704C157.484 44 156.54 44.928 155.228 44.928C153.916 44.928 152.972 44 152.972 42.704C152.972 41.392 153.916 40.48 155.228 40.48ZM154.54 34.96V37.584H155.868V34.96H154.54ZM176.234 34.784V49.248H177.562V34.784H176.234ZM171.994 36.336V36.56C171.994 40.4 170.058 43.472 165.882 45.488L166.586 46.56C171.418 44.192 173.306 40.528 173.306 36.336H171.994ZM166.538 36.336V37.424H172.57V36.336H166.538Z" fill="#FCFCFC"/>
</g>
<defs>
<filter id="filter0_d_1416_8049" x="0" y="0" width="220" height="92" filterUnits="userSpaceOnUse" color-interpolation-filters="sRGB">
<feFlood flood-opacity="0" result="BackgroundImageFix"/>
<feColorMatrix in="SourceAlpha" type="matrix" values="0 0 0 0 0 0 0 0 0 0 0 0 0 0 0 0 0 0 127 0" result="hardAlpha"/>
<feOffset dy="4"/>
<feGaussianBlur stdDeviation="10"/>
<feComposite in2="hardAlpha" operator="out"/>
<feColorMatrix type="matrix" values="0 0 0 0 0 0 0 0 0 0 0 0 0 0 0 0 0 0 0.1 0"/>
<feBlend mode="normal" in2="BackgroundImageFix" result="effect1_dropShadow_1416_8049"/>
<feBlend mode="normal" in="SourceGraphic" in2="effect1_dropShadow_1416_8049" result="shape"/>
</filter>
</defs>
</svg>
