<svg width="1920" height="1080" viewBox="0 0 1920 1080" fill="none" xmlns="http://www.w3.org/2000/svg">
<rect width="1920" height="1080" fill="url(#paint0_linear_915_6287)"/>
<circle cx="328.5" cy="819.5" r="137.5" fill="white" fill-opacity="0.19"/>
<circle cx="1848" cy="1003" r="141" fill="white" fill-opacity="0.19"/>
<circle cx="88" cy="73" r="189" fill="white" fill-opacity="0.19"/>
<circle cx="1589.5" cy="366.5" r="104.5" fill="white" fill-opacity="0.13"/>
<circle cx="15.5" cy="732.5" r="72.5" fill="white" fill-opacity="0.13"/>
<circle cx="701.5" cy="0.5" r="72.5" fill="white" fill-opacity="0.13"/>
<circle cx="1505.5" cy="54.5" r="27.5" fill="white" fill-opacity="0.13"/>
<g clip-path="url(#clip0_915_6287)">
<path d="M299.424 279.441C302.928 281.075 307.093 279.56 308.727 276.056C310.362 272.553 308.846 268.387 305.343 266.753C301.839 265.119 297.674 266.634 296.04 270.138C294.406 273.641 295.921 277.806 299.424 279.441Z" stroke="white" stroke-width="3" stroke-miterlimit="10"/>
<path d="M137.097 148.934L139.66 163.712" stroke="#EBF7FF" stroke-width="3" stroke-miterlimit="10"/>
<path d="M130.989 157.603L145.768 155.041" stroke="#EBF7FF" stroke-width="3" stroke-miterlimit="10"/>
</g>
<g clip-path="url(#clip1_915_6287)">
<path d="M420.188 862.103C420.188 864.359 418.359 866.206 416.085 866.206C413.812 866.206 412 864.359 412 862.103C412 859.847 413.829 858 416.103 858C418.376 858 420.206 859.829 420.206 862.103H420.188Z" fill="#FCFCFC"/>
<path d="M440.667 862.103C440.667 864.359 438.837 866.206 436.564 866.206C434.29 866.206 432.461 864.376 432.461 862.103C432.461 859.829 434.29 858 436.564 858C438.837 858 440.667 859.829 440.667 862.103Z" fill="#FCFCFC"/>
<path d="M461.145 862.103C461.145 864.359 459.316 866.206 457.042 866.206C454.769 866.206 452.94 864.376 452.94 862.103C452.94 859.829 454.769 858 457.042 858C459.316 858 461.145 859.829 461.145 862.103Z" fill="#FCFCFC"/>
<path d="M481.624 862.103C481.624 864.359 479.795 866.206 477.521 866.206C475.248 866.206 473.418 864.376 473.418 862.103C473.418 859.829 475.248 858 477.521 858C479.795 858 481.624 859.829 481.624 862.103Z" fill="#FCFCFC"/>
<path d="M502.103 862.103C502.103 864.359 500.273 866.206 498 866.206C495.726 866.206 493.897 864.376 493.897 862.103C493.897 859.829 495.726 858 498 858C500.273 858 502.103 859.829 502.103 862.103Z" fill="#FCFCFC"/>
<path d="M522.582 862.103C522.582 864.359 520.752 866.206 518.479 866.206C516.205 866.206 514.376 864.376 514.376 862.103C514.376 859.829 516.205 858 518.479 858C520.752 858 522.582 859.829 522.582 862.103Z" fill="#FCFCFC"/>
<path d="M543.06 862.103C543.06 864.359 541.231 866.206 538.957 866.206C536.684 866.206 534.854 864.376 534.854 862.103C534.854 859.829 536.684 858 538.957 858C541.231 858 543.06 859.829 543.06 862.103Z" fill="#FCFCFC"/>
<path d="M563.521 862.103C563.521 864.359 561.692 866.206 559.418 866.206C557.145 866.206 555.316 864.376 555.316 862.103C555.316 859.829 557.145 858 559.418 858C561.692 858 563.521 859.829 563.521 862.103Z" fill="#FCFCFC"/>
<path d="M584 862.103C584 864.359 582.17 866.206 579.897 866.206C577.624 866.206 575.794 864.376 575.794 862.103C575.794 859.829 577.624 858 579.897 858C582.17 858 584 859.829 584 862.103Z" fill="#FCFCFC"/>
<path d="M416.103 886.667C418.369 886.667 420.206 884.83 420.206 882.564C420.206 880.298 418.369 878.461 416.103 878.461C413.837 878.461 412 880.298 412 882.564C412 884.83 413.837 886.667 416.103 886.667Z" fill="#FCFCFC"/>
<path d="M436.564 886.667C438.83 886.667 440.667 884.83 440.667 882.564C440.667 880.298 438.83 878.461 436.564 878.461C434.298 878.461 432.461 880.298 432.461 882.564C432.461 884.83 434.298 886.667 436.564 886.667Z" fill="#FCFCFC"/>
<path d="M461.145 882.564C461.145 884.819 459.316 886.667 457.042 886.667C454.769 886.667 452.94 884.837 452.94 882.564C452.94 880.29 454.769 878.461 457.042 878.461C459.316 878.461 461.145 880.29 461.145 882.564Z" fill="#FCFCFC"/>
<path d="M477.521 886.667C479.787 886.667 481.624 884.83 481.624 882.564C481.624 880.298 479.787 878.461 477.521 878.461C475.255 878.461 473.418 880.298 473.418 882.564C473.418 884.83 475.255 886.667 477.521 886.667Z" fill="#FCFCFC"/>
<path d="M498 886.667C500.266 886.667 502.103 884.83 502.103 882.564C502.103 880.298 500.266 878.461 498 878.461C495.734 878.461 493.897 880.298 493.897 882.564C493.897 884.83 495.734 886.667 498 886.667Z" fill="#FCFCFC"/>
<path d="M518.479 886.667C520.745 886.667 522.582 884.83 522.582 882.564C522.582 880.298 520.745 878.461 518.479 878.461C516.213 878.461 514.376 880.298 514.376 882.564C514.376 884.83 516.213 886.667 518.479 886.667Z" fill="#FCFCFC"/>
<path d="M543.06 882.564C543.06 884.819 541.231 886.667 538.957 886.667C536.684 886.667 534.854 884.837 534.854 882.564C534.854 880.29 536.684 878.461 538.957 878.461C541.231 878.461 543.06 880.29 543.06 882.564Z" fill="#FCFCFC"/>
<path d="M559.436 886.667C561.702 886.667 563.539 884.83 563.539 882.564C563.539 880.298 561.702 878.461 559.436 878.461C557.17 878.461 555.333 880.298 555.333 882.564C555.333 884.83 557.17 886.667 559.436 886.667Z" fill="#FCFCFC"/>
<path d="M579.915 886.667C582.181 886.667 584.018 884.83 584.018 882.564C584.018 880.298 582.181 878.461 579.915 878.461C577.649 878.461 575.812 880.298 575.812 882.564C575.812 884.83 577.649 886.667 579.915 886.667Z" fill="#FCFCFC"/>
<path d="M416.103 907.145C418.369 907.145 420.206 905.308 420.206 903.042C420.206 900.776 418.369 898.939 416.103 898.939C413.837 898.939 412 900.776 412 903.042C412 905.308 413.837 907.145 416.103 907.145Z" fill="#FCFCFC"/>
<path d="M436.564 907.145C438.83 907.145 440.667 905.308 440.667 903.042C440.667 900.776 438.83 898.939 436.564 898.939C434.298 898.939 432.461 900.776 432.461 903.042C432.461 905.308 434.298 907.145 436.564 907.145Z" fill="#FCFCFC"/>
<path d="M461.145 903.042C461.145 905.298 459.316 907.145 457.042 907.145C454.769 907.145 452.94 905.316 452.94 903.042C452.94 900.769 454.769 898.939 457.042 898.939C459.316 898.939 461.145 900.769 461.145 903.042Z" fill="#FCFCFC"/>
<path d="M477.521 907.145C479.787 907.145 481.624 905.308 481.624 903.042C481.624 900.776 479.787 898.939 477.521 898.939C475.255 898.939 473.418 900.776 473.418 903.042C473.418 905.308 475.255 907.145 477.521 907.145Z" fill="#FCFCFC"/>
<path d="M498 907.145C500.266 907.145 502.103 905.308 502.103 903.042C502.103 900.776 500.266 898.939 498 898.939C495.734 898.939 493.897 900.776 493.897 903.042C493.897 905.308 495.734 907.145 498 907.145Z" fill="#FCFCFC"/>
<path d="M518.479 907.145C520.745 907.145 522.582 905.308 522.582 903.042C522.582 900.776 520.745 898.939 518.479 898.939C516.213 898.939 514.376 900.776 514.376 903.042C514.376 905.308 516.213 907.145 518.479 907.145Z" fill="#FCFCFC"/>
<path d="M543.06 903.042C543.06 905.298 541.231 907.145 538.957 907.145C536.684 907.145 534.854 905.316 534.854 903.042C534.854 900.769 536.684 898.939 538.957 898.939C541.231 898.939 543.06 900.769 543.06 903.042Z" fill="#FCFCFC"/>
<path d="M559.436 907.145C561.702 907.145 563.539 905.308 563.539 903.042C563.539 900.776 561.702 898.939 559.436 898.939C557.17 898.939 555.333 900.776 555.333 903.042C555.333 905.308 557.17 907.145 559.436 907.145Z" fill="#FCFCFC"/>
<path d="M579.915 907.145C582.181 907.145 584.018 905.308 584.018 903.042C584.018 900.776 582.181 898.939 579.915 898.939C577.649 898.939 575.812 900.776 575.812 903.042C575.812 905.308 577.649 907.145 579.915 907.145Z" fill="#FCFCFC"/>
<path d="M416.103 927.624C418.369 927.624 420.206 925.787 420.206 923.521C420.206 921.255 418.369 919.418 416.103 919.418C413.837 919.418 412 921.255 412 923.521C412 925.787 413.837 927.624 416.103 927.624Z" fill="#FCFCFC"/>
<path d="M436.564 927.624C438.83 927.624 440.667 925.787 440.667 923.521C440.667 921.255 438.83 919.418 436.564 919.418C434.298 919.418 432.461 921.255 432.461 923.521C432.461 925.787 434.298 927.624 436.564 927.624Z" fill="#FCFCFC"/>
<path d="M461.145 923.521C461.145 925.776 459.316 927.624 457.042 927.624C454.769 927.624 452.94 925.794 452.94 923.521C452.94 921.247 454.769 919.418 457.042 919.418C459.316 919.418 461.145 921.247 461.145 923.521Z" fill="#FCFCFC"/>
<path d="M477.521 927.624C479.787 927.624 481.624 925.787 481.624 923.521C481.624 921.255 479.787 919.418 477.521 919.418C475.255 919.418 473.418 921.255 473.418 923.521C473.418 925.787 475.255 927.624 477.521 927.624Z" fill="#FCFCFC"/>
<path d="M498 927.624C500.266 927.624 502.103 925.787 502.103 923.521C502.103 921.255 500.266 919.418 498 919.418C495.734 919.418 493.897 921.255 493.897 923.521C493.897 925.787 495.734 927.624 498 927.624Z" fill="#FCFCFC"/>
<path d="M518.479 927.624C520.745 927.624 522.582 925.787 522.582 923.521C522.582 921.255 520.745 919.418 518.479 919.418C516.213 919.418 514.376 921.255 514.376 923.521C514.376 925.787 516.213 927.624 518.479 927.624Z" fill="#FCFCFC"/>
<path d="M543.06 923.521C543.06 925.776 541.231 927.624 538.957 927.624C536.684 927.624 534.854 925.794 534.854 923.521C534.854 921.247 536.684 919.418 538.957 919.418C541.231 919.418 543.06 921.247 543.06 923.521Z" fill="#FCFCFC"/>
<path d="M559.436 927.624C561.702 927.624 563.539 925.787 563.539 923.521C563.539 921.255 561.702 919.418 559.436 919.418C557.17 919.418 555.333 921.255 555.333 923.521C555.333 925.787 557.17 927.624 559.436 927.624Z" fill="#FCFCFC"/>
<path d="M579.915 927.624C582.181 927.624 584.018 925.787 584.018 923.521C584.018 921.255 582.181 919.418 579.915 919.418C577.649 919.418 575.812 921.255 575.812 923.521C575.812 925.787 577.649 927.624 579.915 927.624Z" fill="#FCFCFC"/>
<path d="M420.188 944C420.188 946.256 418.358 948.103 416.085 948.103C413.812 948.103 411.982 946.274 411.982 944C411.982 941.727 413.812 939.897 416.085 939.897C418.358 939.897 420.188 941.727 420.188 944Z" fill="#FCFCFC"/>
<path d="M440.667 944C440.667 946.256 438.837 948.103 436.564 948.103C434.29 948.103 432.461 946.274 432.461 944C432.461 941.727 434.29 939.897 436.564 939.897C438.837 939.897 440.667 941.727 440.667 944Z" fill="#FCFCFC"/>
<path d="M461.145 944C461.145 946.256 459.316 948.103 457.042 948.103C454.769 948.103 452.94 946.274 452.94 944C452.94 941.727 454.769 939.897 457.042 939.897C459.316 939.897 461.145 941.727 461.145 944Z" fill="#FCFCFC"/>
<path d="M481.624 944C481.624 946.256 479.795 948.103 477.521 948.103C475.248 948.103 473.418 946.274 473.418 944C473.418 941.727 475.248 939.897 477.521 939.897C479.795 939.897 481.624 941.727 481.624 944Z" fill="#FCFCFC"/>
<path d="M502.103 944C502.103 946.256 500.273 948.103 498 948.103C495.726 948.103 493.897 946.274 493.897 944C493.897 941.727 495.726 939.897 498 939.897C500.273 939.897 502.103 941.727 502.103 944Z" fill="#FCFCFC"/>
<path d="M522.582 944C522.582 946.256 520.752 948.103 518.479 948.103C516.205 948.103 514.376 946.274 514.376 944C514.376 941.727 516.205 939.897 518.479 939.897C520.752 939.897 522.582 941.727 522.582 944Z" fill="#FCFCFC"/>
<path d="M543.06 944C543.06 946.256 541.231 948.103 538.957 948.103C536.684 948.103 534.854 946.274 534.854 944C534.854 941.727 536.684 939.897 538.957 939.897C541.231 939.897 543.06 941.727 543.06 944Z" fill="#FCFCFC"/>
<path d="M563.521 944C563.521 946.256 561.692 948.103 559.418 948.103C557.145 948.103 555.316 946.274 555.316 944C555.316 941.727 557.145 939.897 559.418 939.897C561.692 939.897 563.521 941.727 563.521 944Z" fill="#FCFCFC"/>
<path d="M584 944C584 946.256 582.17 948.103 579.897 948.103C577.624 948.103 575.794 946.274 575.794 944C575.794 941.727 577.624 939.897 579.897 939.897C582.17 939.897 584 941.727 584 944Z" fill="#FCFCFC"/>
<path d="M416.103 968.582C418.369 968.582 420.206 966.745 420.206 964.479C420.206 962.213 418.369 960.376 416.103 960.376C413.837 960.376 412 962.213 412 964.479C412 966.745 413.837 968.582 416.103 968.582Z" fill="#FCFCFC"/>
<path d="M436.564 968.582C438.83 968.582 440.667 966.745 440.667 964.479C440.667 962.213 438.83 960.376 436.564 960.376C434.298 960.376 432.461 962.213 432.461 964.479C432.461 966.745 434.298 968.582 436.564 968.582Z" fill="#FCFCFC"/>
<path d="M461.145 964.479C461.145 966.735 459.316 968.582 457.042 968.582C454.769 968.582 452.94 966.752 452.94 964.479C452.94 962.205 454.769 960.376 457.042 960.376C459.316 960.376 461.145 962.205 461.145 964.479Z" fill="#FCFCFC"/>
<path d="M477.521 968.582C479.787 968.582 481.624 966.745 481.624 964.479C481.624 962.213 479.787 960.376 477.521 960.376C475.255 960.376 473.418 962.213 473.418 964.479C473.418 966.745 475.255 968.582 477.521 968.582Z" fill="#FCFCFC"/>
<path d="M498 968.582C500.266 968.582 502.103 966.745 502.103 964.479C502.103 962.213 500.266 960.376 498 960.376C495.734 960.376 493.897 962.213 493.897 964.479C493.897 966.745 495.734 968.582 498 968.582Z" fill="#FCFCFC"/>
<path d="M518.479 968.582C520.745 968.582 522.582 966.745 522.582 964.479C522.582 962.213 520.745 960.376 518.479 960.376C516.213 960.376 514.376 962.213 514.376 964.479C514.376 966.745 516.213 968.582 518.479 968.582Z" fill="#FCFCFC"/>
<path d="M543.06 964.479C543.06 966.735 541.231 968.582 538.957 968.582C536.684 968.582 534.854 966.752 534.854 964.479C534.854 962.205 536.684 960.376 538.957 960.376C541.231 960.376 543.06 962.205 543.06 964.479Z" fill="#FCFCFC"/>
<path d="M559.436 968.582C561.702 968.582 563.539 966.745 563.539 964.479C563.539 962.213 561.702 960.376 559.436 960.376C557.17 960.376 555.333 962.213 555.333 964.479C555.333 966.745 557.17 968.582 559.436 968.582Z" fill="#FCFCFC"/>
<path d="M579.915 968.582C582.181 968.582 584.018 966.745 584.018 964.479C584.018 962.213 582.181 960.376 579.915 960.376C577.649 960.376 575.812 962.213 575.812 964.479C575.812 966.745 577.649 968.582 579.915 968.582Z" fill="#FCFCFC"/>
<path d="M416.103 989.06C418.369 989.06 420.206 987.223 420.206 984.957C420.206 982.691 418.369 980.854 416.103 980.854C413.837 980.854 412 982.691 412 984.957C412 987.223 413.837 989.06 416.103 989.06Z" fill="#FCFCFC"/>
<path d="M436.564 989.06C438.83 989.06 440.667 987.223 440.667 984.957C440.667 982.691 438.83 980.854 436.564 980.854C434.298 980.854 432.461 982.691 432.461 984.957C432.461 987.223 434.298 989.06 436.564 989.06Z" fill="#FCFCFC"/>
<path d="M461.145 984.957C461.145 987.213 459.316 989.06 457.042 989.06C454.769 989.06 452.94 987.231 452.94 984.957C452.94 982.684 454.769 980.854 457.042 980.854C459.316 980.854 461.145 982.684 461.145 984.957Z" fill="#FCFCFC"/>
<path d="M477.521 989.06C479.787 989.06 481.624 987.223 481.624 984.957C481.624 982.691 479.787 980.854 477.521 980.854C475.255 980.854 473.418 982.691 473.418 984.957C473.418 987.223 475.255 989.06 477.521 989.06Z" fill="#FCFCFC"/>
<path d="M498 989.06C500.266 989.06 502.103 987.223 502.103 984.957C502.103 982.691 500.266 980.854 498 980.854C495.734 980.854 493.897 982.691 493.897 984.957C493.897 987.223 495.734 989.06 498 989.06Z" fill="#FCFCFC"/>
<path d="M518.479 989.06C520.745 989.06 522.582 987.223 522.582 984.957C522.582 982.691 520.745 980.854 518.479 980.854C516.213 980.854 514.376 982.691 514.376 984.957C514.376 987.223 516.213 989.06 518.479 989.06Z" fill="#FCFCFC"/>
<path d="M543.06 984.957C543.06 987.213 541.231 989.06 538.957 989.06C536.684 989.06 534.854 987.231 534.854 984.957C534.854 982.684 536.684 980.854 538.957 980.854C541.231 980.854 543.06 982.684 543.06 984.957Z" fill="#FCFCFC"/>
<path d="M559.436 989.06C561.702 989.06 563.539 987.223 563.539 984.957C563.539 982.691 561.702 980.854 559.436 980.854C557.17 980.854 555.333 982.691 555.333 984.957C555.333 987.223 557.17 989.06 559.436 989.06Z" fill="#FCFCFC"/>
<path d="M579.915 989.06C582.181 989.06 584.018 987.223 584.018 984.957C584.018 982.691 582.181 980.854 579.915 980.854C577.649 980.854 575.812 982.691 575.812 984.957C575.812 987.223 577.649 989.06 579.915 989.06Z" fill="#FCFCFC"/>
<path d="M416.103 1009.54C418.369 1009.54 420.206 1007.7 420.206 1005.44C420.206 1003.17 418.369 1001.33 416.103 1001.33C413.837 1001.33 412 1003.17 412 1005.44C412 1007.7 413.837 1009.54 416.103 1009.54Z" fill="#FCFCFC"/>
<path d="M436.564 1009.54C438.83 1009.54 440.667 1007.7 440.667 1005.44C440.667 1003.17 438.83 1001.33 436.564 1001.33C434.298 1001.33 432.461 1003.17 432.461 1005.44C432.461 1007.7 434.298 1009.54 436.564 1009.54Z" fill="#FCFCFC"/>
<path d="M461.145 1005.44C461.145 1007.69 459.316 1009.54 457.042 1009.54C454.769 1009.54 452.94 1007.71 452.94 1005.44C452.94 1003.16 454.769 1001.33 457.042 1001.33C459.316 1001.33 461.145 1003.16 461.145 1005.44Z" fill="#FCFCFC"/>
<path d="M477.521 1009.54C479.787 1009.54 481.624 1007.7 481.624 1005.44C481.624 1003.17 479.787 1001.33 477.521 1001.33C475.255 1001.33 473.418 1003.17 473.418 1005.44C473.418 1007.7 475.255 1009.54 477.521 1009.54Z" fill="#FCFCFC"/>
<path d="M498 1009.54C500.266 1009.54 502.103 1007.7 502.103 1005.44C502.103 1003.17 500.266 1001.33 498 1001.33C495.734 1001.33 493.897 1003.17 493.897 1005.44C493.897 1007.7 495.734 1009.54 498 1009.54Z" fill="#FCFCFC"/>
<path d="M518.479 1009.54C520.745 1009.54 522.582 1007.7 522.582 1005.44C522.582 1003.17 520.745 1001.33 518.479 1001.33C516.213 1001.33 514.376 1003.17 514.376 1005.44C514.376 1007.7 516.213 1009.54 518.479 1009.54Z" fill="#FCFCFC"/>
<path d="M543.06 1005.44C543.06 1007.69 541.231 1009.54 538.957 1009.54C536.684 1009.54 534.854 1007.71 534.854 1005.44C534.854 1003.16 536.684 1001.33 538.957 1001.33C541.231 1001.33 543.06 1003.16 543.06 1005.44Z" fill="#FCFCFC"/>
<path d="M559.436 1009.54C561.702 1009.54 563.539 1007.7 563.539 1005.44C563.539 1003.17 561.702 1001.33 559.436 1001.33C557.17 1001.33 555.333 1003.17 555.333 1005.44C555.333 1007.7 557.17 1009.54 559.436 1009.54Z" fill="#FCFCFC"/>
<path d="M579.915 1009.54C582.181 1009.54 584.018 1007.7 584.018 1005.44C584.018 1003.17 582.181 1001.33 579.915 1001.33C577.649 1001.33 575.812 1003.17 575.812 1005.44C575.812 1007.7 577.649 1009.54 579.915 1009.54Z" fill="#FCFCFC"/>
<path d="M420.188 1025.92C420.188 1028.17 418.358 1030.02 416.085 1030.02C413.812 1030.02 411.982 1028.19 411.982 1025.92C411.982 1023.64 413.812 1021.81 416.085 1021.81C418.358 1021.81 420.188 1023.64 420.188 1025.92Z" fill="#FCFCFC"/>
<path d="M440.667 1025.92C440.667 1028.17 438.837 1030.02 436.564 1030.02C434.29 1030.02 432.461 1028.19 432.461 1025.92C432.461 1023.64 434.29 1021.81 436.564 1021.81C438.837 1021.81 440.667 1023.64 440.667 1025.92Z" fill="#FCFCFC"/>
<path d="M461.145 1025.92C461.145 1028.17 459.316 1030.02 457.042 1030.02C454.769 1030.02 452.94 1028.19 452.94 1025.92C452.94 1023.64 454.769 1021.81 457.042 1021.81C459.316 1021.81 461.145 1023.64 461.145 1025.92Z" fill="#FCFCFC"/>
<path d="M481.624 1025.92C481.624 1028.17 479.795 1030.02 477.521 1030.02C475.248 1030.02 473.418 1028.19 473.418 1025.92C473.418 1023.64 475.248 1021.81 477.521 1021.81C479.795 1021.81 481.624 1023.64 481.624 1025.92Z" fill="#FCFCFC"/>
<path d="M502.103 1025.92C502.103 1028.17 500.273 1030.02 498 1030.02C495.726 1030.02 493.897 1028.19 493.897 1025.92C493.897 1023.64 495.726 1021.81 498 1021.81C500.273 1021.81 502.103 1023.64 502.103 1025.92Z" fill="#FCFCFC"/>
<path d="M522.582 1025.92C522.582 1028.17 520.752 1030.02 518.479 1030.02C516.205 1030.02 514.376 1028.19 514.376 1025.92C514.376 1023.64 516.205 1021.81 518.479 1021.81C520.752 1021.81 522.582 1023.64 522.582 1025.92Z" fill="#FCFCFC"/>
<path d="M543.06 1025.92C543.06 1028.17 541.231 1030.02 538.957 1030.02C536.684 1030.02 534.854 1028.19 534.854 1025.92C534.854 1023.64 536.684 1021.81 538.957 1021.81C541.231 1021.81 543.06 1023.64 543.06 1025.92Z" fill="#FCFCFC"/>
<path d="M563.521 1025.92C563.521 1028.17 561.692 1030.02 559.418 1030.02C557.145 1030.02 555.316 1028.19 555.316 1025.92C555.316 1023.64 557.145 1021.81 559.418 1021.81C561.692 1021.81 563.521 1023.64 563.521 1025.92Z" fill="#FCFCFC"/>
<path d="M584 1025.92C584 1028.17 582.17 1030.02 579.897 1030.02C577.624 1030.02 575.794 1028.19 575.794 1025.92C575.794 1023.64 577.624 1021.81 579.897 1021.81C582.17 1021.81 584 1023.64 584 1025.92Z" fill="#FCFCFC"/>
</g>
<g clip-path="url(#clip2_915_6287)">
<path d="M1842.19 422.103C1842.19 424.359 1840.36 426.206 1838.09 426.206C1835.81 426.206 1834 424.359 1834 422.103C1834 419.847 1835.83 418 1838.1 418C1840.38 418 1842.21 419.829 1842.21 422.103H1842.19Z" fill="#FCFCFC" fill-opacity="0.8"/>
<path d="M1862.67 422.103C1862.67 424.359 1860.84 426.206 1858.56 426.206C1856.29 426.206 1854.46 424.376 1854.46 422.103C1854.46 419.829 1856.29 418 1858.56 418C1860.84 418 1862.67 419.829 1862.67 422.103Z" fill="#FCFCFC" fill-opacity="0.8"/>
<path d="M1883.15 422.103C1883.15 424.359 1881.32 426.206 1879.04 426.206C1876.77 426.206 1874.94 424.376 1874.94 422.103C1874.94 419.829 1876.77 418 1879.04 418C1881.32 418 1883.15 419.829 1883.15 422.103Z" fill="#FCFCFC" fill-opacity="0.8"/>
<path d="M1903.62 422.103C1903.62 424.359 1901.79 426.206 1899.52 426.206C1897.25 426.206 1895.42 424.376 1895.42 422.103C1895.42 419.829 1897.25 418 1899.52 418C1901.79 418 1903.62 419.829 1903.62 422.103Z" fill="#FCFCFC" fill-opacity="0.8"/>
<path d="M1924.1 422.103C1924.1 424.359 1922.27 426.206 1920 426.206C1917.73 426.206 1915.9 424.376 1915.9 422.103C1915.9 419.829 1917.73 418 1920 418C1922.27 418 1924.1 419.829 1924.1 422.103Z" fill="#FCFCFC" fill-opacity="0.8"/>
<path d="M1838.1 446.667C1840.37 446.667 1842.21 444.83 1842.21 442.564C1842.21 440.298 1840.37 438.461 1838.1 438.461C1835.84 438.461 1834 440.298 1834 442.564C1834 444.83 1835.84 446.667 1838.1 446.667Z" fill="#FCFCFC" fill-opacity="0.8"/>
<path d="M1858.56 446.667C1860.83 446.667 1862.67 444.83 1862.67 442.564C1862.67 440.298 1860.83 438.461 1858.56 438.461C1856.3 438.461 1854.46 440.298 1854.46 442.564C1854.46 444.83 1856.3 446.667 1858.56 446.667Z" fill="#FCFCFC" fill-opacity="0.8"/>
<path d="M1883.15 442.564C1883.15 444.819 1881.32 446.667 1879.04 446.667C1876.77 446.667 1874.94 444.837 1874.94 442.564C1874.94 440.29 1876.77 438.461 1879.04 438.461C1881.32 438.461 1883.15 440.29 1883.15 442.564Z" fill="#FCFCFC" fill-opacity="0.8"/>
<path d="M1899.52 446.667C1901.79 446.667 1903.62 444.83 1903.62 442.564C1903.62 440.298 1901.79 438.461 1899.52 438.461C1897.26 438.461 1895.42 440.298 1895.42 442.564C1895.42 444.83 1897.26 446.667 1899.52 446.667Z" fill="#FCFCFC" fill-opacity="0.8"/>
<path d="M1920 446.667C1922.27 446.667 1924.1 444.83 1924.1 442.564C1924.1 440.298 1922.27 438.461 1920 438.461C1917.73 438.461 1915.9 440.298 1915.9 442.564C1915.9 444.83 1917.73 446.667 1920 446.667Z" fill="#FCFCFC" fill-opacity="0.8"/>
<path d="M1838.1 467.145C1840.37 467.145 1842.21 465.308 1842.21 463.042C1842.21 460.776 1840.37 458.939 1838.1 458.939C1835.84 458.939 1834 460.776 1834 463.042C1834 465.308 1835.84 467.145 1838.1 467.145Z" fill="#FCFCFC" fill-opacity="0.8"/>
<path d="M1858.56 467.145C1860.83 467.145 1862.67 465.308 1862.67 463.042C1862.67 460.776 1860.83 458.939 1858.56 458.939C1856.3 458.939 1854.46 460.776 1854.46 463.042C1854.46 465.308 1856.3 467.145 1858.56 467.145Z" fill="#FCFCFC" fill-opacity="0.8"/>
<path d="M1883.15 463.042C1883.15 465.298 1881.32 467.145 1879.04 467.145C1876.77 467.145 1874.94 465.316 1874.94 463.042C1874.94 460.769 1876.77 458.939 1879.04 458.939C1881.32 458.939 1883.15 460.769 1883.15 463.042Z" fill="#FCFCFC" fill-opacity="0.8"/>
<path d="M1899.52 467.145C1901.79 467.145 1903.62 465.308 1903.62 463.042C1903.62 460.776 1901.79 458.939 1899.52 458.939C1897.26 458.939 1895.42 460.776 1895.42 463.042C1895.42 465.308 1897.26 467.145 1899.52 467.145Z" fill="#FCFCFC" fill-opacity="0.8"/>
<path d="M1920 467.145C1922.27 467.145 1924.1 465.308 1924.1 463.042C1924.1 460.776 1922.27 458.939 1920 458.939C1917.73 458.939 1915.9 460.776 1915.9 463.042C1915.9 465.308 1917.73 467.145 1920 467.145Z" fill="#FCFCFC" fill-opacity="0.8"/>
<path d="M1838.1 487.624C1840.37 487.624 1842.21 485.787 1842.21 483.521C1842.21 481.255 1840.37 479.418 1838.1 479.418C1835.84 479.418 1834 481.255 1834 483.521C1834 485.787 1835.84 487.624 1838.1 487.624Z" fill="#FCFCFC" fill-opacity="0.8"/>
<path d="M1858.56 487.624C1860.83 487.624 1862.67 485.787 1862.67 483.521C1862.67 481.255 1860.83 479.418 1858.56 479.418C1856.3 479.418 1854.46 481.255 1854.46 483.521C1854.46 485.787 1856.3 487.624 1858.56 487.624Z" fill="#FCFCFC" fill-opacity="0.8"/>
<path d="M1883.15 483.521C1883.15 485.776 1881.32 487.624 1879.04 487.624C1876.77 487.624 1874.94 485.794 1874.94 483.521C1874.94 481.247 1876.77 479.418 1879.04 479.418C1881.32 479.418 1883.15 481.247 1883.15 483.521Z" fill="#FCFCFC" fill-opacity="0.8"/>
<path d="M1899.52 487.624C1901.79 487.624 1903.62 485.787 1903.62 483.521C1903.62 481.255 1901.79 479.418 1899.52 479.418C1897.26 479.418 1895.42 481.255 1895.42 483.521C1895.42 485.787 1897.26 487.624 1899.52 487.624Z" fill="#FCFCFC" fill-opacity="0.8"/>
<path d="M1920 487.624C1922.27 487.624 1924.1 485.787 1924.1 483.521C1924.1 481.255 1922.27 479.418 1920 479.418C1917.73 479.418 1915.9 481.255 1915.9 483.521C1915.9 485.787 1917.73 487.624 1920 487.624Z" fill="#FCFCFC" fill-opacity="0.8"/>
<path d="M1842.19 504C1842.19 506.256 1840.36 508.103 1838.09 508.103C1835.81 508.103 1833.98 506.274 1833.98 504C1833.98 501.727 1835.81 499.897 1838.09 499.897C1840.36 499.897 1842.19 501.727 1842.19 504Z" fill="#FCFCFC" fill-opacity="0.8"/>
<path d="M1862.67 504C1862.67 506.256 1860.84 508.103 1858.56 508.103C1856.29 508.103 1854.46 506.274 1854.46 504C1854.46 501.727 1856.29 499.897 1858.56 499.897C1860.84 499.897 1862.67 501.727 1862.67 504Z" fill="#FCFCFC" fill-opacity="0.8"/>
<path d="M1883.15 504C1883.15 506.256 1881.32 508.103 1879.04 508.103C1876.77 508.103 1874.94 506.274 1874.94 504C1874.94 501.727 1876.77 499.897 1879.04 499.897C1881.32 499.897 1883.15 501.727 1883.15 504Z" fill="#FCFCFC" fill-opacity="0.8"/>
<path d="M1903.62 504C1903.62 506.256 1901.79 508.103 1899.52 508.103C1897.25 508.103 1895.42 506.274 1895.42 504C1895.42 501.727 1897.25 499.897 1899.52 499.897C1901.79 499.897 1903.62 501.727 1903.62 504Z" fill="#FCFCFC" fill-opacity="0.8"/>
<path d="M1924.1 504C1924.1 506.256 1922.27 508.103 1920 508.103C1917.73 508.103 1915.9 506.274 1915.9 504C1915.9 501.727 1917.73 499.897 1920 499.897C1922.27 499.897 1924.1 501.727 1924.1 504Z" fill="#FCFCFC" fill-opacity="0.8"/>
<path d="M1838.1 528.582C1840.37 528.582 1842.21 526.745 1842.21 524.479C1842.21 522.213 1840.37 520.376 1838.1 520.376C1835.84 520.376 1834 522.213 1834 524.479C1834 526.745 1835.84 528.582 1838.1 528.582Z" fill="#FCFCFC" fill-opacity="0.8"/>
<path d="M1858.56 528.582C1860.83 528.582 1862.67 526.745 1862.67 524.479C1862.67 522.213 1860.83 520.376 1858.56 520.376C1856.3 520.376 1854.46 522.213 1854.46 524.479C1854.46 526.745 1856.3 528.582 1858.56 528.582Z" fill="#FCFCFC" fill-opacity="0.8"/>
<path d="M1883.15 524.479C1883.15 526.735 1881.32 528.582 1879.04 528.582C1876.77 528.582 1874.94 526.752 1874.94 524.479C1874.94 522.205 1876.77 520.376 1879.04 520.376C1881.32 520.376 1883.15 522.205 1883.15 524.479Z" fill="#FCFCFC" fill-opacity="0.8"/>
<path d="M1899.52 528.582C1901.79 528.582 1903.62 526.745 1903.62 524.479C1903.62 522.213 1901.79 520.376 1899.52 520.376C1897.26 520.376 1895.42 522.213 1895.42 524.479C1895.42 526.745 1897.26 528.582 1899.52 528.582Z" fill="#FCFCFC" fill-opacity="0.8"/>
<path d="M1920 528.582C1922.27 528.582 1924.1 526.745 1924.1 524.479C1924.1 522.213 1922.27 520.376 1920 520.376C1917.73 520.376 1915.9 522.213 1915.9 524.479C1915.9 526.745 1917.73 528.582 1920 528.582Z" fill="#FCFCFC" fill-opacity="0.8"/>
<path d="M1838.1 549.06C1840.37 549.06 1842.21 547.223 1842.21 544.957C1842.21 542.691 1840.37 540.854 1838.1 540.854C1835.84 540.854 1834 542.691 1834 544.957C1834 547.223 1835.84 549.06 1838.1 549.06Z" fill="#FCFCFC" fill-opacity="0.8"/>
<path d="M1858.56 549.06C1860.83 549.06 1862.67 547.223 1862.67 544.957C1862.67 542.691 1860.83 540.854 1858.56 540.854C1856.3 540.854 1854.46 542.691 1854.46 544.957C1854.46 547.223 1856.3 549.06 1858.56 549.06Z" fill="#FCFCFC" fill-opacity="0.8"/>
<path d="M1883.15 544.957C1883.15 547.213 1881.32 549.06 1879.04 549.06C1876.77 549.06 1874.94 547.231 1874.94 544.957C1874.94 542.684 1876.77 540.854 1879.04 540.854C1881.32 540.854 1883.15 542.684 1883.15 544.957Z" fill="#FCFCFC" fill-opacity="0.8"/>
<path d="M1899.52 549.06C1901.79 549.06 1903.62 547.223 1903.62 544.957C1903.62 542.691 1901.79 540.854 1899.52 540.854C1897.26 540.854 1895.42 542.691 1895.42 544.957C1895.42 547.223 1897.26 549.06 1899.52 549.06Z" fill="#FCFCFC" fill-opacity="0.8"/>
<path d="M1920 549.06C1922.27 549.06 1924.1 547.223 1924.1 544.957C1924.1 542.691 1922.27 540.854 1920 540.854C1917.73 540.854 1915.9 542.691 1915.9 544.957C1915.9 547.223 1917.73 549.06 1920 549.06Z" fill="#FCFCFC" fill-opacity="0.8"/>
<path d="M1838.1 569.539C1840.37 569.539 1842.21 567.702 1842.21 565.436C1842.21 563.17 1840.37 561.333 1838.1 561.333C1835.84 561.333 1834 563.17 1834 565.436C1834 567.702 1835.84 569.539 1838.1 569.539Z" fill="#FCFCFC" fill-opacity="0.8"/>
<path d="M1858.56 569.539C1860.83 569.539 1862.67 567.702 1862.67 565.436C1862.67 563.17 1860.83 561.333 1858.56 561.333C1856.3 561.333 1854.46 563.17 1854.46 565.436C1854.46 567.702 1856.3 569.539 1858.56 569.539Z" fill="#FCFCFC" fill-opacity="0.8"/>
<path d="M1883.15 565.436C1883.15 567.692 1881.32 569.539 1879.04 569.539C1876.77 569.539 1874.94 567.709 1874.94 565.436C1874.94 563.162 1876.77 561.333 1879.04 561.333C1881.32 561.333 1883.15 563.162 1883.15 565.436Z" fill="#FCFCFC" fill-opacity="0.8"/>
<path d="M1899.52 569.539C1901.79 569.539 1903.62 567.702 1903.62 565.436C1903.62 563.17 1901.79 561.333 1899.52 561.333C1897.26 561.333 1895.42 563.17 1895.42 565.436C1895.42 567.702 1897.26 569.539 1899.52 569.539Z" fill="#FCFCFC" fill-opacity="0.8"/>
<path d="M1920 569.539C1922.27 569.539 1924.1 567.702 1924.1 565.436C1924.1 563.17 1922.27 561.333 1920 561.333C1917.73 561.333 1915.9 563.17 1915.9 565.436C1915.9 567.702 1917.73 569.539 1920 569.539Z" fill="#FCFCFC" fill-opacity="0.8"/>
<path d="M1842.19 585.915C1842.19 588.171 1840.36 590.018 1838.09 590.018C1835.81 590.018 1833.98 588.189 1833.98 585.915C1833.98 583.642 1835.81 581.812 1838.09 581.812C1840.36 581.812 1842.19 583.642 1842.19 585.915Z" fill="#FCFCFC" fill-opacity="0.8"/>
<path d="M1862.67 585.915C1862.67 588.171 1860.84 590.018 1858.56 590.018C1856.29 590.018 1854.46 588.189 1854.46 585.915C1854.46 583.642 1856.29 581.812 1858.56 581.812C1860.84 581.812 1862.67 583.642 1862.67 585.915Z" fill="#FCFCFC" fill-opacity="0.8"/>
<path d="M1883.15 585.915C1883.15 588.171 1881.32 590.018 1879.04 590.018C1876.77 590.018 1874.94 588.189 1874.94 585.915C1874.94 583.642 1876.77 581.812 1879.04 581.812C1881.32 581.812 1883.15 583.642 1883.15 585.915Z" fill="#FCFCFC" fill-opacity="0.8"/>
<path d="M1903.62 585.915C1903.62 588.171 1901.79 590.018 1899.52 590.018C1897.25 590.018 1895.42 588.189 1895.42 585.915C1895.42 583.642 1897.25 581.812 1899.52 581.812C1901.79 581.812 1903.62 583.642 1903.62 585.915Z" fill="#FCFCFC" fill-opacity="0.8"/>
<path d="M1924.1 585.915C1924.1 588.171 1922.27 590.018 1920 590.018C1917.73 590.018 1915.9 588.189 1915.9 585.915C1915.9 583.642 1917.73 581.812 1920 581.812C1922.27 581.812 1924.1 583.642 1924.1 585.915Z" fill="#FCFCFC" fill-opacity="0.8"/>
</g>
<g clip-path="url(#clip3_915_6287)">
<path d="M1871.42 776.441C1874.93 778.075 1879.09 776.56 1880.73 773.056C1882.36 769.553 1880.85 765.387 1877.34 763.753C1873.84 762.119 1869.67 763.634 1868.04 767.138C1866.41 770.641 1867.92 774.806 1871.42 776.441Z" stroke="white" stroke-width="3" stroke-miterlimit="10"/>
<path d="M1709.1 645.934L1711.66 660.712" stroke="#EBF7FF" stroke-width="3" stroke-miterlimit="10"/>
<path d="M1702.99 654.603L1717.77 652.041" stroke="#EBF7FF" stroke-width="3" stroke-miterlimit="10"/>
</g>
<path d="M263.446 102.722C278.814 109.891 297.085 103.244 304.254 87.8754C311.423 72.5069 304.776 54.2366 289.407 47.0676C274.038 39.8985 255.768 46.5456 248.599 61.9141C241.43 77.2826 248.077 95.5529 263.446 102.722Z" stroke="white" stroke-width="3" stroke-miterlimit="10"/>
<path d="M1721.7 76.6444C1748.04 88.9325 1779.36 77.5391 1791.64 51.1966C1803.93 24.854 1792.54 -6.4623 1766.2 -18.7504C1739.85 -31.0385 1708.54 -19.6452 1696.25 6.69739C1683.96 33.0399 1695.35 64.3563 1721.7 76.6444Z" stroke="white" stroke-width="3" stroke-miterlimit="10"/>
<path d="M3.04376 1001.39C28.4329 1013.23 58.6158 1002.25 70.4591 976.86C82.3025 951.471 71.3215 921.288 45.9324 909.444C20.5432 897.601 -9.63963 908.582 -21.483 933.971C-33.3263 959.36 -22.3453 989.543 3.04376 1001.39Z" stroke="white" stroke-width="3" stroke-miterlimit="10"/>
<defs>
<linearGradient id="paint0_linear_915_6287" x1="960" y1="0" x2="960" y2="1080" gradientUnits="userSpaceOnUse">
<stop stop-color="#D3EAF9"/>
<stop offset="0.9999" stop-color="#EAF7FF"/>
<stop offset="1" stop-color="#EFF9FF"/>
</linearGradient>
<clipPath id="clip0_915_6287">
<rect width="213.51" height="52.01" fill="white" transform="translate(134.987 147) rotate(25.0078)"/>
</clipPath>
<clipPath id="clip1_915_6287">
<rect width="172" height="172" fill="white" transform="translate(412 858)"/>
</clipPath>
<clipPath id="clip2_915_6287">
<rect width="172" height="172" fill="white" transform="translate(1834 418)"/>
</clipPath>
<clipPath id="clip3_915_6287">
<rect width="213.51" height="52.01" fill="white" transform="translate(1706.99 644) rotate(25.0078)"/>
</clipPath>
</defs>
</svg>
