<svg width="64" height="64" viewBox="0 0 64 64" fill="none" xmlns="http://www.w3.org/2000/svg">
<g filter="url(#filter0_d_1789_10129)">
<circle cx="32" cy="28" r="28" fill="black" fill-opacity="0.4"/>
<path d="M28.8208 14.3792C29.3264 14.2431 29.8611 14.1458 30.425 14.0875C30.9889 14.0292 31.5333 14 32.0583 14C33.8667 14 35.5875 14.3257 37.2208 14.9771C38.8542 15.6285 40.2979 16.5278 41.5521 17.675C42.8062 18.8222 43.8319 20.1736 44.6292 21.7292C45.4264 23.2847 45.9028 24.9667 46.0583 26.775H44.3083C44.1917 25.2972 43.7931 23.9069 43.1125 22.6042C42.4319 21.3014 41.5618 20.1542 40.5021 19.1625C39.4424 18.1708 38.2368 17.3687 36.8854 16.7562C35.534 16.1437 34.1292 15.7986 32.6708 15.7208L34.8875 18.025L33.6333 19.1917L28.8208 14.3792ZM35.2667 41.6208C34.7611 41.7569 34.2264 41.8542 33.6625 41.9125C33.0986 41.9708 32.5639 42 32.0583 42C30.2306 42 28.5049 41.6743 26.8813 41.0229C25.2576 40.3715 23.8139 39.4722 22.55 38.325C21.2861 37.1778 20.2556 35.8264 19.4583 34.2708C18.6611 32.7153 18.175 31.0333 18 29.225H19.7792C19.8958 30.7028 20.2944 32.0931 20.975 33.3958C21.6556 34.6986 22.5257 35.8458 23.5854 36.8375C24.6451 37.8292 25.8507 38.6312 27.2021 39.2437C28.5535 39.8562 29.9583 40.2014 31.4167 40.2792L29.2 37.975L30.4542 36.8083L35.2667 41.6208Z" fill="#FCFCFC"/>
<path d="M35.5826 27.0885V24.6215C35.5826 24.2339 35.2655 23.9167 34.8778 23.9167H26.4194C26.0318 23.9167 25.7146 24.2339 25.7146 24.6215V31.6701C25.7146 32.0578 26.0318 32.375 26.4194 32.375H34.8778C35.2655 32.375 35.5826 32.0578 35.5826 31.6701V29.2031L38.4021 32.0226V24.2691L35.5826 27.0885Z" fill="#FCFCFC"/>
</g>
<defs>
<filter id="filter0_d_1789_10129" x="0" y="0" width="64" height="64" filterUnits="userSpaceOnUse" color-interpolation-filters="sRGB">
<feFlood flood-opacity="0" result="BackgroundImageFix"/>
<feColorMatrix in="SourceAlpha" type="matrix" values="0 0 0 0 0 0 0 0 0 0 0 0 0 0 0 0 0 0 127 0" result="hardAlpha"/>
<feOffset dy="4"/>
<feGaussianBlur stdDeviation="2"/>
<feComposite in2="hardAlpha" operator="out"/>
<feColorMatrix type="matrix" values="0 0 0 0 0 0 0 0 0 0 0 0 0 0 0 0 0 0 0.25 0"/>
<feBlend mode="normal" in2="BackgroundImageFix" result="effect1_dropShadow_1789_10129"/>
<feBlend mode="normal" in="SourceGraphic" in2="effect1_dropShadow_1789_10129" result="shape"/>
</filter>
</defs>
</svg>
