<svg width="147" height="21" viewBox="0 0 147 21" fill="none" xmlns="http://www.w3.org/2000/svg">
<path d="M12.6632 6.39768C12.3109 6.17262 11.8431 6.06055 11.2588 6.06055C10.6745 6.06055 10.2066 6.17262 9.85436 6.39768C9.50208 6.62274 9.32642 6.94346 9.32642 7.35987V14.8305C9.32642 15.5467 9.08968 16.1171 8.6181 16.5417C8.14558 16.9663 7.47203 17.1786 6.59556 17.1786C5.72004 17.1786 5.04554 16.9663 4.57302 16.5417C4.1005 16.1171 3.86471 15.5467 3.86471 14.8305V7.35987C3.86471 6.94346 3.6881 6.62274 3.33677 6.39768C2.98449 6.17262 2.51666 6.06055 1.93235 6.06055C1.34804 6.06055 0.880222 6.17262 0.527945 6.39768C0.175668 6.62274 0 6.94346 0 7.35987V15.1804C0 16.7631 0.450914 17.9913 1.35274 18.866C2.25457 19.7407 3.65804 20.1781 5.56504 20.1781C6.42365 20.1781 7.17893 20.0323 7.83182 19.7407C8.48471 19.4492 8.98259 19.0537 9.32642 18.5535V18.753C9.32642 19.1694 9.50208 19.4902 9.85436 19.7152C10.2057 19.9403 10.6745 20.0524 11.2588 20.0524C11.8421 20.0524 12.3109 19.9394 12.6632 19.7152C13.0145 19.4902 13.1911 19.1694 13.1911 18.753V7.35987C13.1911 6.94346 13.0155 6.62274 12.6632 6.39768Z" fill="#063250"/>
<path d="M24.4161 5.93652C23.5913 5.93652 22.8708 6.09871 22.2517 6.424C21.6336 6.74837 21.1441 7.18573 20.7834 7.73607V7.36158C20.7834 6.94518 20.6068 6.62445 20.2555 6.39939C19.9032 6.17434 19.4354 6.06226 18.8511 6.06226C18.2667 6.06226 17.7989 6.17434 17.4466 6.39939C17.0944 6.62445 16.9187 6.94518 16.9187 7.36158V18.7557C16.9187 19.1721 17.0944 19.4928 17.4466 19.7179C17.7989 19.9429 18.2667 20.055 18.8511 20.055C19.4344 20.055 19.9032 19.942 20.2555 19.7179C20.6077 19.4928 20.7834 19.1721 20.7834 18.7557V11.1602C20.7834 10.4778 21.0192 9.93562 21.4917 9.53653C21.9642 9.13653 22.6378 8.93698 23.5143 8.93698C24.3898 8.93698 25.0643 9.13653 25.5368 9.53653C26.0093 9.93653 26.2451 10.4778 26.2451 11.1602V18.7557C26.2451 19.1721 26.4208 19.4928 26.7731 19.7179C27.1253 19.9429 27.5932 20.055 28.1775 20.055C28.7608 20.055 29.2296 19.942 29.5819 19.7179C29.9342 19.4928 30.1098 19.1721 30.1098 18.7557V10.9352C30.1098 9.35247 29.6373 8.12423 28.6932 7.24951C27.7472 6.37388 26.3221 5.93652 24.4161 5.93652Z" fill="#063250"/>
<path d="M40.432 5.93652C39.7622 5.93652 39.114 5.97024 38.4874 6.03675C37.8599 6.10327 37.238 6.2199 36.6199 6.38664C36.122 6.53698 35.7951 6.79484 35.641 7.16113C35.487 7.52741 35.4691 7.91921 35.5894 8.33561C35.7265 8.76933 35.9585 9.06455 36.2845 9.22309C36.6105 9.38163 37.006 9.40259 37.47 9.28596C38.3972 9.0527 39.316 8.93607 40.2263 8.93607C41.1535 8.93607 41.8364 9.11921 42.2742 9.4855C42.7119 9.85179 42.9308 10.3019 42.9308 10.8349V11.5848C42.5184 11.4518 41.9942 11.3434 41.3592 11.2604C40.7232 11.1775 40.0797 11.1356 39.4268 11.1356C37.6748 11.1356 36.3052 11.5274 35.3179 12.3101C34.3306 13.0937 33.8364 14.1844 33.8364 15.583C33.8364 16.9826 34.2873 18.0987 35.1892 18.9315C36.091 19.7643 37.4174 20.1807 39.1694 20.1807C39.9426 20.1807 40.664 20.0477 41.3338 19.7807C42.0036 19.5138 42.5353 19.1475 42.9308 18.681V18.8313C42.9308 19.6477 43.5574 20.0559 44.8115 20.0559C46.0647 20.0559 46.6922 19.6477 46.6922 18.8313V11.4354C46.6922 9.63676 46.1981 8.27092 45.2107 7.33789C44.2234 6.40304 42.6302 5.93652 40.432 5.93652ZM42.9308 15.3661C42.9308 15.6349 42.8538 15.8828 42.6988 16.1097C42.5438 16.3365 42.3296 16.5343 42.0543 16.7019C41.7791 16.8696 41.4616 16.9999 41.1008 17.0919C40.7401 17.1848 40.3446 17.2304 39.9153 17.2304C39.1591 17.2304 38.5842 17.0882 38.1896 16.8021C37.7941 16.5169 37.5969 16.106 37.5969 15.5684C37.5969 15.0308 37.7988 14.6199 38.2018 14.3347C38.6048 14.0495 39.1939 13.9065 39.967 13.9065C40.2244 13.9065 40.4987 13.9147 40.7918 13.9311C41.0839 13.9475 41.3629 13.9775 41.6288 14.0185C41.8946 14.0604 42.1436 14.1024 42.3756 14.1434C42.6077 14.1853 42.7918 14.2308 42.9299 14.281V15.3661H42.9308Z" fill="#063250"/>
<path d="M57.9171 5.93652C57.0923 5.93652 56.3717 6.09871 55.7527 6.424C55.1346 6.74837 54.6451 7.18573 54.2844 7.73607V7.36158C54.2844 6.94518 54.1078 6.62445 53.7564 6.39939C53.4042 6.17434 52.9363 6.06226 52.352 6.06226C51.7677 6.06226 51.2999 6.17434 50.9476 6.39939C50.5953 6.62445 50.4197 6.94518 50.4197 7.36158V18.7557C50.4197 19.1721 50.5953 19.4928 50.9476 19.7179C51.2999 19.9429 51.7677 20.055 52.352 20.055C52.9354 20.055 53.4042 19.942 53.7564 19.7179C54.1087 19.4928 54.2844 19.1721 54.2844 18.7557V11.1602C54.2844 10.4778 54.5202 9.93562 54.9927 9.53653C55.4652 9.13653 56.1388 8.93698 57.0152 8.93698C57.8908 8.93698 58.5653 9.13653 59.0378 9.53653C59.5103 9.93653 59.7461 10.4778 59.7461 11.1602V18.7557C59.7461 19.1721 59.9218 19.4928 60.274 19.7179C60.6263 19.9429 61.0941 20.055 61.6784 20.055C62.2618 20.055 62.7306 19.942 63.0829 19.7179C63.4351 19.4928 63.6108 19.1721 63.6108 18.7557V10.9352C63.6108 9.35247 63.1383 8.12423 62.1942 7.24951C61.2482 6.37388 59.8231 5.93652 57.9171 5.93652Z" fill="#063250"/>
<path d="M71.1374 7.02268C70.7852 6.79762 70.3173 6.68555 69.733 6.68555C69.1487 6.68555 68.6809 6.79762 68.3286 7.02268C67.9763 7.24773 67.8007 7.56846 67.8007 7.98486V18.7539C67.8007 19.1703 67.9763 19.491 68.3286 19.7161C68.6799 19.9411 69.1487 20.0532 69.733 20.0532C70.3164 20.0532 70.7852 19.9402 71.1374 19.7161C71.4888 19.491 71.6654 19.1703 71.6654 18.7539V7.98486C71.6663 7.56846 71.4897 7.24773 71.1374 7.02268Z" fill="#063250"/>
<path d="M69.7339 0.189453C68.9956 0.189453 68.4113 0.40631 67.982 0.839113C67.5526 1.27283 67.3375 1.80586 67.3375 2.4382C67.3375 3.07146 67.5517 3.60449 67.982 4.03729C68.4113 4.47101 68.9956 4.68695 69.7339 4.68695C70.4723 4.68695 71.0566 4.47101 71.4859 4.03729C71.9152 3.60449 72.1304 3.07146 72.1304 2.4382C72.1304 1.80495 71.9152 1.27283 71.4859 0.839113C71.0557 0.40631 70.4723 0.189453 69.7339 0.189453Z" fill="#063250"/>
<path d="M94.4056 7.2113C93.9584 6.8113 93.4173 6.49877 92.7823 6.27463C92.1463 6.04957 91.4258 5.9375 90.6179 5.9375C89.5874 5.9375 88.7457 6.10424 88.0937 6.43682C87.4408 6.7703 86.9429 7.1949 86.5991 7.71153C86.2553 7.1785 85.7912 6.74934 85.2079 6.42497C84.6235 6.1006 83.8335 5.9375 82.8377 5.9375C82.1332 5.9375 81.5066 6.10424 80.957 6.43682C80.4075 6.7703 79.9951 7.2031 79.7208 7.73613V7.36165C79.7208 6.94524 79.5442 6.62451 79.1928 6.39946C78.8406 6.1744 78.3727 6.06233 77.7884 6.06233C77.2041 6.06233 76.7363 6.1744 76.384 6.39946C76.0317 6.62451 75.8561 6.94524 75.8561 7.36165V18.7557C75.8561 19.1721 76.0317 19.4929 76.384 19.7179C76.7363 19.943 77.2041 20.0551 77.7884 20.0551C78.3718 20.0551 78.8406 19.9421 79.1928 19.7179C79.5451 19.4929 79.7208 19.1721 79.7208 18.7557V10.8596C79.7208 10.3603 79.9096 9.96028 80.2872 9.66051C80.6649 9.36074 81.1712 9.2104 81.8072 9.2104C82.4601 9.2104 82.9749 9.36438 83.3525 9.67236C83.7302 9.98124 83.919 10.3767 83.919 10.8596V18.7557C83.919 19.1721 84.0947 19.4929 84.4469 19.7179C84.7983 19.943 85.2586 20.0551 85.825 20.0551C86.3915 20.0551 86.8509 19.9421 87.2031 19.7179C87.5554 19.4929 87.7311 19.1721 87.7311 18.7557V10.8596C87.7311 10.3767 87.9199 9.98124 88.2976 9.67236C88.6752 9.36438 89.19 9.2104 89.8429 9.2104C90.4958 9.2104 91.0059 9.36438 91.376 9.67236C91.7452 9.98124 91.9302 10.3767 91.9302 10.8596V18.7557C91.9302 19.1721 92.1059 19.4929 92.4582 19.7179C92.8095 19.943 93.2783 20.0551 93.8626 20.0551C94.446 20.0551 94.9147 19.9421 95.267 19.7179C95.6183 19.4929 95.795 19.1721 95.795 18.7557V10.4851C95.795 9.81905 95.6747 9.20675 95.4342 8.64821C95.1956 8.08967 94.8518 7.61039 94.4056 7.2113Z" fill="#063250"/>
<path d="M131.195 6.39768C130.842 6.17262 130.374 6.06055 129.79 6.06055C129.206 6.06055 128.738 6.17262 128.386 6.39768C128.033 6.62274 127.858 6.94346 127.858 7.35987V14.8305C127.858 15.5467 127.621 16.1171 127.149 16.5417C126.677 16.9663 126.003 17.1786 125.127 17.1786C124.251 17.1786 123.577 16.9663 123.104 16.5417C122.632 16.1171 122.396 15.5467 122.396 14.8305V7.35987C122.396 6.94346 122.219 6.62274 121.868 6.39768C121.516 6.17262 121.048 6.06055 120.464 6.06055C119.879 6.06055 119.412 6.17262 119.059 6.39768C118.707 6.62274 118.531 6.94346 118.531 7.35987V15.1804C118.531 16.7631 118.982 17.9913 119.884 18.866C120.786 19.7407 122.189 20.1781 124.096 20.1781C124.955 20.1781 125.71 20.0323 126.363 19.7407C127.016 19.4492 127.514 19.0537 127.858 18.5535V18.753C127.858 19.1694 128.033 19.4902 128.386 19.7152C128.737 19.9403 129.206 20.0524 129.79 20.0524C130.374 20.0524 130.842 19.9394 131.195 19.7152C131.546 19.4902 131.722 19.1694 131.722 18.753V7.35987C131.722 6.94346 131.546 6.62274 131.195 6.39768Z" fill="#063250"/>
<path d="M146.576 14.2819C146.293 13.8153 145.915 13.4199 145.443 13.0946C144.97 12.7702 144.429 12.4951 143.819 12.27C143.21 12.045 142.578 11.8327 141.925 11.6331C141.496 11.5001 141.122 11.3871 140.805 11.296C140.487 11.2049 140.225 11.1083 140.019 11.009C139.814 10.9087 139.659 10.793 139.555 10.6591C139.452 10.526 139.4 10.3511 139.4 10.1343C139.4 9.76796 139.567 9.47639 139.903 9.25953C140.237 9.04359 140.792 8.93516 141.565 8.93516C142.079 8.93516 142.582 8.99803 143.071 9.12286C143.561 9.24769 144.002 9.40168 144.398 9.58482C144.792 9.75156 145.171 9.77252 145.532 9.64769C145.892 9.52286 146.167 9.26865 146.357 8.88596C146.545 8.48596 146.575 8.09871 146.447 7.72422C146.318 7.34974 146.03 7.05361 145.583 6.83675C145.017 6.55338 144.338 6.33288 143.549 6.17434C142.759 6.01579 141.882 5.93652 140.921 5.93652C140.046 5.93652 139.276 6.0404 138.616 6.24905C137.955 6.45771 137.4 6.74472 136.954 7.11101C136.507 7.4773 136.169 7.91101 135.937 8.41033C135.705 8.90965 135.589 9.44359 135.589 10.0094C135.589 10.6755 135.705 11.2295 135.937 11.6714C136.169 12.1133 136.495 12.4878 136.916 12.7958C137.336 13.1046 137.851 13.3707 138.461 13.5958C139.071 13.8208 139.762 14.0413 140.535 14.2582C140.913 14.3748 141.26 14.4832 141.579 14.5825C141.896 14.6828 142.175 14.7948 142.416 14.9197C142.656 15.0445 142.845 15.1903 142.982 15.357C143.119 15.5238 143.188 15.7233 143.188 15.9566C143.188 16.373 142.994 16.681 142.608 16.8814C142.222 17.081 141.668 17.1812 140.947 17.1812C140.397 17.1812 139.847 17.1101 139.298 16.9689C138.748 16.8277 138.199 16.6564 137.649 16.4568C137.202 16.2737 136.794 16.2609 136.425 16.4195C136.056 16.578 135.785 16.8568 135.614 17.2568C135.425 17.6905 135.398 18.086 135.536 18.4441C135.674 18.8021 135.957 19.0728 136.387 19.2559C137.056 19.5721 137.838 19.8053 138.73 19.9557C139.623 20.106 140.534 20.1807 141.461 20.1807C142.389 20.1807 143.195 20.0769 143.883 19.8682C144.57 19.6605 145.146 19.3689 145.609 18.9935C146.073 18.619 146.42 18.1734 146.652 17.6568C146.884 17.1402 147 16.5826 147 15.983C147.001 15.3151 146.86 14.7484 146.576 14.2819Z" fill="#063250"/>
<path d="M114.518 5.66462C114.028 5.25187 113.505 5.42317 113.25 5.65096L110.87 6.98854C109.686 6.25597 108.319 5.86964 106.907 5.86964C102.837 5.86964 99.5253 9.08149 99.5253 13.0296C99.5253 16.9776 102.837 20.1895 106.907 20.1895C110.978 20.1895 114.289 16.9776 114.289 13.0296C114.289 11.6446 113.883 10.3079 113.113 9.15073L114.56 6.92112C114.793 6.66053 114.972 6.13478 114.541 5.68467L114.518 5.66462ZM106.907 17.015C104.642 17.015 102.8 15.2282 102.8 13.0314C102.8 10.8346 104.642 9.04777 106.907 9.04777C109.172 9.04777 111.014 10.8346 111.014 13.0314C111.014 15.2282 109.172 17.015 106.907 17.015Z" fill="#063250"/>
</svg>
