<svg width="314" height="44" viewBox="0 0 314 44" fill="none" xmlns="http://www.w3.org/2000/svg">
<path d="M27.0492 13.6587C26.2968 13.1636 25.2975 12.917 24.0493 12.917C22.8012 12.917 21.8019 13.1636 21.0494 13.6587C20.297 14.1538 19.9217 14.8594 19.9217 15.7755V32.2109C19.9217 33.7864 19.4161 35.0413 18.4087 35.9754C17.3994 36.9095 15.9607 37.3766 14.0885 37.3766C12.2183 37.3766 10.7776 36.9095 9.76823 35.9754C8.7589 35.0413 8.25523 33.7864 8.25523 32.2109V15.7755C8.25523 14.8594 7.87799 14.1538 7.12751 13.6587C6.37503 13.1636 5.37573 12.917 4.12761 12.917C2.8795 12.917 1.8802 13.1636 1.12772 13.6587C0.375237 14.1538 0 14.8594 0 15.7755V32.9806C0 36.4625 0.963177 39.1647 2.88953 41.0891C4.81589 43.0134 7.81378 43.9756 11.8872 43.9756C13.7213 43.9756 15.3346 43.6549 16.7292 43.0134C18.1238 42.372 19.1873 41.502 19.9217 40.4015V40.8405C19.9217 41.7566 20.297 42.4622 21.0494 42.9573C21.7999 43.4524 22.8012 43.699 24.0493 43.699C25.2955 43.699 26.2968 43.4504 27.0492 42.9573C27.7997 42.4622 28.177 41.7566 28.177 40.8405V15.7755C28.177 14.8594 27.8017 14.1538 27.0492 13.6587Z" fill="#2396F0"/>
<path d="M52.1541 12.6426C50.3923 12.6426 48.8532 12.9994 47.5309 13.715C46.2105 14.4286 45.1651 15.3908 44.3945 16.6016V15.7777C44.3945 14.8616 44.0173 14.156 43.2668 13.6609C42.5143 13.1658 41.515 12.9192 40.2669 12.9192C39.0188 12.9192 38.0195 13.1658 37.267 13.6609C36.5145 14.156 36.1393 14.8616 36.1393 15.7777V40.8447C36.1393 41.7608 36.5145 42.4664 37.267 42.9615C38.0195 43.4566 39.0188 43.7032 40.2669 43.7032C41.513 43.7032 42.5143 43.4546 43.2668 42.9615C44.0193 42.4664 44.3945 41.7608 44.3945 40.8447V24.1347C44.3945 22.6333 44.8982 21.4406 45.9075 20.5626C46.9168 19.6826 48.3556 19.2436 50.2278 19.2436C52.0979 19.2436 53.5387 19.6826 54.548 20.5626C55.5574 21.4426 56.061 22.6333 56.061 24.1347V40.8447C56.061 41.7608 56.4362 42.4664 57.1887 42.9615C57.9412 43.4566 58.9405 43.7032 60.1886 43.7032C61.4347 43.7032 62.436 43.4546 63.1885 42.9615C63.941 42.4664 64.3162 41.7608 64.3162 40.8447V23.6396C64.3162 20.1577 63.3069 17.4555 61.2903 15.5311C59.2696 13.6048 56.2256 12.6426 52.1541 12.6426Z" fill="#2396F0"/>
<path d="M86.365 12.6426C84.9343 12.6426 83.5497 12.7167 82.2113 12.8631C80.8708 13.0094 79.5425 13.266 78.2221 13.6328C77.1586 13.9636 76.4603 14.5309 76.1312 15.3367C75.8021 16.1425 75.764 17.0045 76.0208 17.9206C76.3138 18.8747 76.8094 19.5242 77.5057 19.873C78.202 20.2218 79.0468 20.2679 80.0381 20.0113C82.0186 19.4982 83.9811 19.2416 85.9255 19.2416C87.9061 19.2416 89.3649 19.6445 90.3 20.4503C91.235 21.2562 91.7026 22.2464 91.7026 23.4191V25.0688C90.8217 24.7762 89.702 24.5376 88.3455 24.3552C86.987 24.1728 85.6125 24.0806 84.2179 24.0806C80.4755 24.0806 77.5499 24.9425 75.4409 26.6645C73.332 28.3884 72.2765 30.7878 72.2765 33.8648C72.2765 36.9438 73.2397 39.3994 75.166 41.2316C77.0924 43.0638 79.9257 43.9798 83.6681 43.9798C85.3195 43.9798 86.8606 43.6872 88.2913 43.0998C89.722 42.5125 90.8578 41.7067 91.7026 40.6803V41.0111C91.7026 42.8072 93.041 43.7052 95.7198 43.7052C98.3967 43.7052 99.7371 42.8072 99.7371 41.0111V24.7401C99.7371 20.7831 98.6816 17.7783 96.5727 15.7256C94.4637 13.6689 91.0605 12.6426 86.365 12.6426ZM91.7026 33.3878C91.7026 33.9791 91.538 34.5243 91.207 35.0235C90.8759 35.5226 90.4184 35.9576 89.8304 36.3264C89.2425 36.6953 88.5642 36.9819 87.7937 37.1844C87.0231 37.3888 86.1784 37.4891 85.2613 37.4891C83.646 37.4891 82.418 37.1764 81.5752 36.5469C80.7304 35.9195 80.309 35.0155 80.309 33.8328C80.309 32.6501 80.7404 31.746 81.6013 31.1186C82.4621 30.4912 83.7202 30.1765 85.3717 30.1765C85.9215 30.1765 86.5074 30.1945 87.1335 30.2306C87.7576 30.2667 88.3535 30.3328 88.9214 30.423C89.4893 30.5152 90.021 30.6074 90.5167 30.6976C91.0123 30.7898 91.4056 30.8901 91.7006 31.0003V33.3878H91.7026Z" fill="#2396F0"/>
<path d="M123.714 12.6426C121.952 12.6426 120.413 12.9994 119.091 13.715C117.771 14.4286 116.725 15.3908 115.955 16.6016V15.7777C115.955 14.8616 115.577 14.156 114.827 13.6609C114.074 13.1658 113.075 12.9192 111.827 12.9192C110.579 12.9192 109.579 13.1658 108.827 13.6609C108.075 14.156 107.699 14.8616 107.699 15.7777V40.8447C107.699 41.7608 108.075 42.4664 108.827 42.9615C109.579 43.4566 110.579 43.7032 111.827 43.7032C113.073 43.7032 114.074 43.4546 114.827 42.9615C115.579 42.4664 115.955 41.7608 115.955 40.8447V24.1347C115.955 22.6333 116.458 21.4406 117.468 20.5626C118.477 19.6826 119.916 19.2436 121.788 19.2436C123.658 19.2436 125.099 19.6826 126.108 20.5626C127.117 21.4426 127.621 22.6333 127.621 24.1347V40.8447C127.621 41.7608 127.996 42.4664 128.749 42.9615C129.501 43.4566 130.501 43.7032 131.749 43.7032C132.995 43.7032 133.996 43.4546 134.749 42.9615C135.501 42.4664 135.876 41.7608 135.876 40.8447V23.6396C135.876 20.1577 134.867 17.4555 132.85 15.5311C130.83 13.6048 127.786 12.6426 123.714 12.6426Z" fill="#2396F0"/>
<path d="M151.953 15.0337C151.201 14.5385 150.202 14.292 148.953 14.292C147.705 14.292 146.706 14.5385 145.954 15.0337C145.201 15.5288 144.826 16.2344 144.826 17.1505V40.8424C144.826 41.7584 145.201 42.464 145.954 42.9592C146.704 43.4543 147.705 43.7009 148.953 43.7009C150.2 43.7009 151.201 43.4523 151.953 42.9592C152.704 42.464 153.081 41.7584 153.081 40.8424V17.1505C153.083 16.2344 152.706 15.5288 151.953 15.0337Z" fill="#2396F0"/>
<path d="M148.955 0C147.378 0 146.13 0.477086 145.213 1.42925C144.296 2.38342 143.837 3.55609 143.837 4.94725C143.837 6.34042 144.294 7.51309 145.213 8.46525C146.13 9.41942 147.378 9.8945 148.955 9.8945C150.533 9.8945 151.781 9.41942 152.698 8.46525C153.615 7.51309 154.074 6.34042 154.074 4.94725C154.074 3.55408 153.615 2.38342 152.698 1.42925C151.779 0.477086 150.533 0 148.955 0Z" fill="#2396F0"/>
<path d="M201.655 15.4469C200.7 14.5669 199.544 13.8793 198.188 13.3862C196.829 12.8911 195.29 12.6445 193.565 12.6445C191.363 12.6445 189.566 13.0114 188.173 13.743C186.778 14.4767 185.715 15.4108 184.98 16.5474C184.246 15.3747 183.255 14.4306 182.009 13.717C180.76 13.0033 179.073 12.6445 176.946 12.6445C175.441 12.6445 174.102 13.0114 172.929 13.743C171.755 14.4767 170.874 15.4289 170.288 16.6015V15.7777C170.288 14.8616 169.911 14.156 169.16 13.6608C168.408 13.1657 167.408 12.9192 166.16 12.9192C164.912 12.9192 163.913 13.1657 163.16 13.6608C162.408 14.156 162.033 14.8616 162.033 15.7777V40.8447C162.033 41.7607 162.408 42.4663 163.16 42.9615C163.913 43.4566 164.912 43.7032 166.16 43.7032C167.406 43.7032 168.408 43.4546 169.16 42.9615C169.913 42.4663 170.288 41.7607 170.288 40.8447V23.4732C170.288 22.3747 170.691 21.4947 171.498 20.8352C172.305 20.1757 173.386 19.8449 174.745 19.8449C176.139 19.8449 177.239 20.1837 178.045 20.8612C178.852 21.5408 179.255 22.4107 179.255 23.4732V40.8447C179.255 41.7607 179.631 42.4663 180.383 42.9615C181.134 43.4566 182.117 43.7032 183.327 43.7032C184.537 43.7032 185.518 43.4546 186.271 42.9615C187.023 42.4663 187.398 41.7607 187.398 40.8447V23.4732C187.398 22.4107 187.802 21.5408 188.608 20.8612C189.415 20.1837 190.515 19.8449 191.909 19.8449C193.304 19.8449 194.393 20.1837 195.184 20.8612C195.973 21.5408 196.368 22.4107 196.368 23.4732V40.8447C196.368 41.7607 196.743 42.4663 197.496 42.9615C198.246 43.4566 199.247 43.7032 200.496 43.7032C201.742 43.7032 202.743 43.4546 203.495 42.9615C204.246 42.4663 204.623 41.7607 204.623 40.8447V22.6493C204.623 21.1839 204.366 19.8369 203.853 18.6081C203.343 17.3793 202.609 16.3249 201.655 15.4469Z" fill="#2396F0"/>
<path d="M280.239 13.6587C279.486 13.1636 278.487 12.917 277.239 12.917C275.991 12.917 274.991 13.1636 274.239 13.6587C273.486 14.1538 273.111 14.8594 273.111 15.7755V32.2109C273.111 33.7864 272.605 35.0413 271.598 35.9754C270.589 36.9095 269.15 37.3766 267.278 37.3766C265.408 37.3766 263.967 36.9095 262.958 35.9754C261.948 35.0413 261.445 33.7864 261.445 32.2109V15.7755C261.445 14.8594 261.067 14.1538 260.317 13.6587C259.564 13.1636 258.565 12.917 257.317 12.917C256.069 12.917 255.07 13.1636 254.317 13.6587C253.565 14.1538 253.189 14.8594 253.189 15.7755V32.9806C253.189 36.4625 254.153 39.1647 256.079 41.0891C258.005 43.0134 261.003 43.9756 265.077 43.9756C266.911 43.9756 268.524 43.6549 269.919 43.0134C271.313 42.372 272.377 41.502 273.111 40.4015V40.8405C273.111 41.7566 273.486 42.4622 274.239 42.9573C274.989 43.4524 275.991 43.699 277.239 43.699C278.485 43.699 279.486 43.4504 280.239 42.9573C280.989 42.4622 281.366 41.7566 281.366 40.8405V15.7755C281.366 14.8594 280.989 14.1538 280.239 13.6587Z" fill="#2396F0"/>
<path d="M313.095 31.0023C312.489 29.976 311.682 29.106 310.673 28.3904C309.664 27.6768 308.508 27.0714 307.206 26.5763C305.903 26.0811 304.555 25.6141 303.16 25.1751C302.243 24.8824 301.445 24.6338 300.766 24.4334C300.088 24.2329 299.528 24.0204 299.089 23.802C298.649 23.5814 298.318 23.3269 298.097 23.0322C297.877 22.7395 297.766 22.3547 297.766 21.8776C297.766 21.0717 298.124 20.4303 298.84 19.9532C299.554 19.4781 300.738 19.2396 302.39 19.2396C303.489 19.2396 304.563 19.3779 305.608 19.6525C306.654 19.9271 307.597 20.2659 308.442 20.6688C309.284 21.0357 310.093 21.0818 310.864 20.8071C311.634 20.5325 312.22 19.9732 312.625 19.1313C313.029 18.2513 313.093 17.3994 312.818 16.5755C312.543 15.7516 311.927 15.1002 310.974 14.6231C309.764 13.9997 308.313 13.5146 306.628 13.1658C304.94 12.817 303.068 12.6426 301.015 12.6426C299.145 12.6426 297.502 12.8711 296.091 13.3301C294.678 13.7892 293.494 14.4206 292.541 15.2265C291.586 16.0323 290.864 16.9865 290.368 18.085C289.872 19.1835 289.626 20.3581 289.626 21.603C289.626 23.0683 289.872 24.2871 290.368 25.2593C290.864 26.2315 291.56 27.0554 292.459 27.7329C293.358 28.4124 294.457 28.9978 295.76 29.4929C297.062 29.988 298.539 30.4731 300.19 30.9502C300.997 31.2068 301.74 31.4453 302.42 31.6638C303.098 31.8843 303.694 32.1309 304.208 32.4055C304.721 32.6801 305.125 33.0009 305.418 33.3677C305.711 33.7345 305.857 34.1735 305.857 34.6867C305.857 35.6028 305.444 36.2803 304.619 36.7213C303.794 37.1603 302.61 37.3808 301.069 37.3808C299.895 37.3808 298.722 37.2245 297.548 36.9138C296.374 36.6031 295.2 36.2262 294.026 35.7872C293.071 35.3843 292.2 35.3562 291.411 35.705C290.623 36.0538 290.045 36.6672 289.678 37.5472C289.274 38.5014 289.218 39.3714 289.513 40.1591C289.806 40.9469 290.412 41.5423 291.329 41.9452C292.76 42.6408 294.429 43.154 296.336 43.4847C298.242 43.8155 300.188 43.9798 302.169 43.9798C304.149 43.9798 305.873 43.7513 307.342 43.2923C308.809 42.8352 310.039 42.1938 311.028 41.3679C312.019 40.544 312.762 39.5638 313.258 38.4272C313.753 37.2906 314 36.0638 314 34.7448C314.002 33.2755 313.701 32.0287 313.095 31.0023Z" fill="#2396F0"/>
<path d="M244.617 12.0454C243.57 11.1373 242.454 11.5142 241.908 12.0153L236.823 14.958C234.295 13.3463 231.375 12.4964 228.36 12.4964C219.665 12.4964 212.591 19.5625 212.591 28.2482C212.591 36.934 219.665 44 228.36 44C237.054 44 244.128 36.934 244.128 28.2482C244.128 25.2013 243.261 22.2606 241.615 19.7148L244.705 14.8097C245.205 14.2364 245.586 13.0797 244.665 12.0895L244.617 12.0454ZM228.36 37.0162C223.522 37.0162 219.587 33.0852 219.587 28.2522C219.587 23.4192 223.522 19.4883 228.36 19.4883C233.197 19.4883 237.132 23.4192 237.132 28.2522C237.132 33.0852 233.197 37.0162 228.36 37.0162Z" fill="#2396F0"/>
</svg>
