<svg width="375" height="54" viewBox="0 0 375 54" fill="none" xmlns="http://www.w3.org/2000/svg">
<path d="M32.304 16.9539C31.4054 16.3575 30.2119 16.0605 28.7214 16.0605C27.2308 16.0605 26.0373 16.3575 25.1387 16.9539C24.24 17.5503 23.7919 18.4003 23.7919 19.5037V39.3009C23.7919 41.1988 23.188 42.7103 21.985 43.8355C20.7795 44.9607 19.0613 45.5233 16.8254 45.5233C14.5919 45.5233 12.8713 44.9607 11.6659 43.8355C10.4605 42.7103 9.85896 41.1988 9.85896 39.3009V19.5037C9.85896 18.4003 9.40843 17.5503 8.51216 16.9539C7.61349 16.3575 6.42006 16.0605 4.92948 16.0605C3.43889 16.0605 2.24546 16.3575 1.3468 16.9539C0.448133 17.5503 0 18.4003 0 19.5037V40.2281C0 44.4222 1.15029 47.6771 3.45087 49.9951C5.75146 52.3131 9.33174 53.4721 14.1965 53.4721C16.3869 53.4721 18.3136 53.0857 19.9791 52.3131C21.6447 51.5404 22.9148 50.4925 23.7919 49.1669V49.6957C23.7919 50.7991 24.24 51.6491 25.1387 52.2455C26.0349 52.8419 27.2308 53.1389 28.7214 53.1389C30.2095 53.1389 31.4054 52.8395 32.304 52.2455C33.2003 51.6491 33.6508 50.7991 33.6508 49.6957V19.5037C33.6508 18.4003 33.2027 17.5503 32.304 16.9539Z" fill="#2396F0"/>
<path d="M62.2859 15.7285C60.1818 15.7285 58.3438 16.1583 56.7645 17.0203C55.1876 17.8799 53.9391 19.0389 53.0189 20.4973V19.5049C53.0189 18.4015 52.5683 17.5515 51.6721 16.9551C50.7734 16.3587 49.58 16.0617 48.0894 16.0617C46.5988 16.0617 45.4054 16.3587 44.5067 16.9551C43.608 17.5515 43.1599 18.4015 43.1599 19.5049V49.6993C43.1599 50.8027 43.608 51.6527 44.5067 52.2491C45.4054 52.8455 46.5988 53.1424 48.0894 53.1424C49.5776 53.1424 50.7734 52.843 51.6721 52.2491C52.5707 51.6527 53.0189 50.8027 53.0189 49.6993V29.5713C53.0189 27.7628 53.6204 26.3261 54.8258 25.2685C56.0312 24.2085 57.7494 23.6797 59.9853 23.6797C62.2188 23.6797 63.9395 24.2085 65.1449 25.2685C66.3503 26.3285 66.9518 27.7628 66.9518 29.5713V49.6993C66.9518 50.8027 67.3999 51.6527 68.2986 52.2491C69.1972 52.8455 70.3907 53.1424 71.8813 53.1424C73.3695 53.1424 74.5653 52.843 75.4639 52.2491C76.3626 51.6527 76.8107 50.8027 76.8107 49.6993V28.9749C76.8107 24.7808 75.6053 21.5259 73.1969 19.2079C70.7837 16.8875 67.1483 15.7285 62.2859 15.7285Z" fill="#2396F0"/>
<path d="M103.143 15.7285C101.434 15.7285 99.7806 15.8179 98.1822 15.9941C96.5813 16.1704 94.9949 16.4795 93.418 16.9213C92.1479 17.3197 91.314 18.0031 90.921 18.9737C90.5279 19.9444 90.4824 20.9826 90.7892 22.0861C91.139 23.2354 91.7309 24.0178 92.5625 24.4379C93.3941 24.8581 94.403 24.9136 95.5868 24.6045C97.9521 23.9864 100.296 23.6773 102.618 23.6773C104.983 23.6773 106.725 24.1626 107.842 25.1333C108.959 26.104 109.517 27.2968 109.517 28.7093V30.6965C108.465 30.344 107.128 30.0566 105.508 29.8369C103.886 29.6172 102.244 29.5061 100.579 29.5061C96.1092 29.5061 92.6152 30.5444 90.0966 32.6185C87.5779 34.695 86.3174 37.5853 86.3174 41.2917C86.3174 45.0005 87.4677 47.9583 89.7683 50.1653C92.0688 52.3722 95.4526 53.4757 99.922 53.4757C101.894 53.4757 103.735 53.1231 105.443 52.4157C107.152 51.7082 108.508 50.7375 109.517 49.5013V49.8997C109.517 52.0631 111.116 53.1449 114.315 53.1449C117.512 53.1449 119.113 52.0631 119.113 49.8997V30.3005C119.113 25.5341 117.852 21.9147 115.334 19.4421C112.815 16.9648 108.75 15.7285 103.143 15.7285ZM109.517 40.717C109.517 41.4293 109.321 42.0861 108.925 42.6873C108.53 43.2885 107.984 43.8125 107.281 44.2568C106.579 44.7011 105.769 45.0464 104.849 45.2902C103.929 45.5365 102.92 45.6573 101.825 45.6573C99.8956 45.6573 98.429 45.2806 97.4225 44.5224C96.4136 43.7666 95.9103 42.6777 95.9103 41.2531C95.9103 39.8285 96.4256 38.7395 97.4537 37.9837C98.4817 37.2279 99.9843 36.8489 101.957 36.8489C102.613 36.8489 103.313 36.8706 104.061 36.9141C104.806 36.9575 105.518 37.0372 106.196 37.1459C106.874 37.2569 107.509 37.368 108.101 37.4767C108.693 37.5877 109.163 37.7084 109.515 37.8413V40.717H109.517Z" fill="#2396F0"/>
<path d="M147.748 15.7285C145.644 15.7285 143.806 16.1583 142.226 17.0203C140.65 17.8799 139.401 19.0389 138.481 20.4973V19.5049C138.481 18.4015 138.03 17.5515 137.134 16.9551C136.235 16.3587 135.042 16.0617 133.551 16.0617C132.061 16.0617 130.867 16.3587 129.969 16.9551C129.07 17.5515 128.622 18.4015 128.622 19.5049V49.6993C128.622 50.8027 129.07 51.6527 129.969 52.2491C130.867 52.8455 132.061 53.1424 133.551 53.1424C135.039 53.1424 136.235 52.843 137.134 52.2491C138.033 51.6527 138.481 50.8027 138.481 49.6993V29.5713C138.481 27.7628 139.082 26.3261 140.288 25.2685C141.493 24.2085 143.211 23.6797 145.447 23.6797C147.681 23.6797 149.401 24.2085 150.607 25.2685C151.812 26.3285 152.414 27.7628 152.414 29.5713V49.6993C152.414 50.8027 152.862 51.6527 153.76 52.2491C154.659 52.8455 155.853 53.1424 157.343 53.1424C158.831 53.1424 160.027 52.843 160.926 52.2491C161.825 51.6527 162.273 50.8027 162.273 49.6993V28.9749C162.273 24.7808 161.067 21.5259 158.659 19.2079C156.246 16.8875 152.61 15.7285 147.748 15.7285Z" fill="#2396F0"/>
<path d="M181.473 18.6102C180.574 18.0138 179.381 17.7168 177.89 17.7168C176.4 17.7168 175.206 18.0138 174.308 18.6102C173.409 19.2066 172.961 20.0565 172.961 21.16V49.6979C172.961 50.8014 173.409 51.6513 174.308 52.2477C175.204 52.8441 176.4 53.1411 177.89 53.1411C179.378 53.1411 180.574 52.8417 181.473 52.2477C182.369 51.6513 182.82 50.8014 182.82 49.6979V21.16C182.822 20.0565 182.372 19.2066 181.473 18.6102Z" fill="#2396F0"/>
<path d="M177.893 0.5C176.009 0.5 174.518 1.07467 173.423 2.2216C172.328 3.37094 171.779 4.78347 171.779 6.45919C171.779 8.13732 172.326 9.54985 173.423 10.6968C174.518 11.8461 176.009 12.4184 177.893 12.4184C179.776 12.4184 181.267 11.8461 182.362 10.6968C183.457 9.54985 184.006 8.13732 184.006 6.45919C184.006 4.78105 183.457 3.37094 182.362 2.2216C181.264 1.07467 179.776 0.5 177.893 0.5Z" fill="#2396F0"/>
<path d="M240.831 19.106C239.69 18.046 238.309 17.2178 236.689 16.6239C235.067 16.0275 233.229 15.7305 231.168 15.7305C228.539 15.7305 226.392 16.1723 224.729 17.0537C223.063 17.9374 221.793 19.0626 220.916 20.4317C220.039 19.0191 218.855 17.8819 217.367 17.0223C215.876 16.1627 213.861 15.7305 211.321 15.7305C209.523 15.7305 207.925 16.1723 206.523 17.0537C205.121 17.9374 204.069 19.0843 203.369 20.4969V19.5045C203.369 18.401 202.919 17.5511 202.023 16.9547C201.124 16.3583 199.93 16.0613 198.44 16.0613C196.949 16.0613 195.756 16.3583 194.857 16.9547C193.959 17.5511 193.51 18.401 193.51 19.5045V49.6988C193.51 50.8023 193.959 51.6522 194.857 52.2486C195.756 52.845 196.949 53.142 198.44 53.142C199.928 53.142 201.124 52.8426 202.023 52.2486C202.921 51.6522 203.369 50.8023 203.369 49.6988V28.774C203.369 27.4508 203.851 26.3908 204.814 25.5964C205.778 24.802 207.069 24.4036 208.692 24.4036C210.357 24.4036 211.671 24.8117 212.634 25.6278C213.597 26.4464 214.079 27.4943 214.079 28.774V49.6988C214.079 50.8023 214.527 51.6522 215.426 52.2486C216.322 52.845 217.496 53.142 218.941 53.142C220.386 53.142 221.558 52.8426 222.457 52.2486C223.356 51.6522 223.804 50.8023 223.804 49.6988V28.774C223.804 27.4943 224.285 26.4464 225.249 25.6278C226.212 24.8117 227.525 24.4036 229.191 24.4036C230.857 24.4036 232.158 24.8117 233.102 25.6278C234.044 26.4464 234.516 27.4943 234.516 28.774V49.6988C234.516 50.8023 234.964 51.6522 235.863 52.2486C236.759 52.845 237.955 53.142 239.445 53.142C240.934 53.142 242.129 52.8426 243.028 52.2486C243.924 51.6522 244.375 50.8023 244.375 49.6988V27.7816C244.375 26.0166 244.068 24.394 243.455 22.9138C242.846 21.4337 241.969 20.1636 240.831 19.106Z" fill="#2396F0"/>
<path d="M334.68 16.9539C333.781 16.3575 332.588 16.0605 331.097 16.0605C329.607 16.0605 328.413 16.3575 327.515 16.9539C326.616 17.5503 326.168 18.4003 326.168 19.5037V39.3009C326.168 41.1988 325.564 42.7103 324.361 43.8355C323.155 44.9607 321.437 45.5233 319.201 45.5233C316.968 45.5233 315.247 44.9607 314.042 43.8355C312.836 42.7103 312.235 41.1988 312.235 39.3009V19.5037C312.235 18.4003 311.784 17.5503 310.888 16.9539C309.989 16.3575 308.796 16.0605 307.305 16.0605C305.815 16.0605 304.621 16.3575 303.723 16.9539C302.824 17.5503 302.376 18.4003 302.376 19.5037V40.2281C302.376 44.4222 303.526 47.6771 305.827 49.9951C308.127 52.3131 311.708 53.4721 316.572 53.4721C318.763 53.4721 320.689 53.0857 322.355 52.3131C324.021 51.5404 325.291 50.4925 326.168 49.1669V49.6957C326.168 50.7991 326.616 51.6491 327.515 52.2455C328.411 52.8419 329.607 53.1389 331.097 53.1389C332.585 53.1389 333.781 52.8395 334.68 52.2455C335.576 51.6491 336.027 50.7991 336.027 49.6957V19.5037C336.027 18.4003 335.576 17.5503 334.68 16.9539Z" fill="#2396F0"/>
<path d="M373.919 37.8437C373.195 36.6074 372.232 35.5595 371.027 34.6975C369.821 33.8379 368.441 33.1087 366.886 32.5123C365.33 31.9159 363.72 31.3533 362.054 30.8245C360.959 30.4719 360.005 30.1725 359.195 29.9311C358.385 29.6896 357.717 29.4337 357.192 29.1705C356.667 28.9049 356.272 28.5982 356.008 28.2433C355.745 27.8908 355.613 27.4272 355.613 26.8525C355.613 25.8818 356.039 25.1092 356.895 24.5345C357.748 23.9622 359.162 23.6749 361.134 23.6749C362.447 23.6749 363.73 23.8415 364.978 24.1723C366.227 24.5031 367.353 24.9112 368.362 25.3965C369.368 25.8384 370.334 25.8939 371.254 25.5631C372.175 25.2323 372.874 24.5586 373.358 23.5445C373.84 22.4845 373.917 21.4583 373.588 20.4659C373.26 19.4735 372.524 18.6888 371.386 18.1141C369.941 17.3632 368.208 16.7789 366.195 16.3587C364.18 15.9386 361.944 15.7285 359.493 15.7285C357.259 15.7285 355.296 16.0038 353.612 16.5567C351.925 17.1097 350.511 17.8702 349.372 18.8409C348.232 19.8116 347.369 20.9609 346.777 22.2841C346.185 23.6073 345.89 25.0222 345.89 26.5217C345.89 28.2868 346.185 29.7548 346.777 30.9259C347.369 32.097 348.201 33.0894 349.274 33.9055C350.348 34.724 351.661 35.4291 353.216 36.0255C354.772 36.6219 356.535 37.2062 358.508 37.7809C359.471 38.09 360.358 38.3773 361.17 38.6405C361.98 38.9061 362.692 39.2031 363.305 39.5339C363.919 39.8647 364.401 40.251 364.75 40.6929C365.1 41.1347 365.275 41.6635 365.275 42.2817C365.275 43.3851 364.782 44.2013 363.797 44.7325C362.812 45.2613 361.398 45.5269 359.557 45.5269C358.155 45.5269 356.753 45.3385 355.352 44.9643C353.95 44.59 352.548 44.1361 351.146 43.6073C350.005 43.1219 348.965 43.0881 348.023 43.5083C347.081 43.9284 346.391 44.6673 345.953 45.7273C345.471 46.8766 345.404 47.9245 345.756 48.8735C346.106 49.8224 346.83 50.5395 347.925 51.0249C349.634 51.8627 351.627 52.4809 353.904 52.8793C356.181 53.2777 358.505 53.4757 360.871 53.4757C363.236 53.4757 365.294 53.2004 367.049 52.6475C368.8 52.0969 370.269 51.3243 371.451 50.3295C372.635 49.3371 373.521 48.1563 374.113 46.7873C374.705 45.4182 375 43.9405 375 42.3517C375.002 40.5818 374.643 39.0799 373.919 37.8437Z" fill="#2396F0"/>
<path d="M292.138 15.0097C290.887 13.9159 289.555 14.3698 288.903 14.9735L282.831 18.5181C279.811 16.5768 276.324 15.553 272.722 15.553C262.339 15.553 253.891 24.0644 253.891 34.5268C253.891 44.9891 262.339 53.5005 272.722 53.5005C283.106 53.5005 291.554 44.9891 291.554 34.5268C291.554 30.8566 290.518 27.3144 288.553 24.2479L292.244 18.3394C292.841 17.6488 293.296 16.2556 292.196 15.0628L292.138 15.0097ZM272.722 45.0881C266.945 45.0881 262.245 40.3531 262.245 34.5316C262.245 28.71 266.945 23.975 272.722 23.975C278.5 23.975 283.2 28.71 283.2 34.5316C283.2 40.3531 278.5 45.0881 272.722 45.0881Z" fill="#2396F0"/>
</svg>
