<svg width="115" height="29" viewBox="0 0 115 29" fill="none" xmlns="http://www.w3.org/2000/svg">
<path d="M0 5C0 2.23858 2.23858 0 5 0H110C112.761 0 115 2.23858 115 5V24C115 26.7614 112.761 29 110 29H5C2.23858 29 0 26.7614 0 24V5Z" fill="white"/>
<path d="M20.3391 8.422V21.106H21.5011V8.422H20.3391ZM14.8231 9.402C12.9611 9.402 11.6171 11.124 11.6171 13.812C11.6171 16.514 12.9611 18.236 14.8231 18.236C16.6991 18.236 18.0431 16.514 18.0431 13.812C18.0431 11.124 16.6991 9.402 14.8231 9.402ZM14.8231 10.452C16.0691 10.452 16.9231 11.768 16.9231 13.812C16.9231 15.87 16.0691 17.214 14.8231 17.214C13.5911 17.214 12.7231 15.87 12.7231 13.812C12.7231 11.768 13.5911 10.452 14.8231 10.452ZM24.748 9.668V17.914H30.572V9.668H24.748ZM29.438 10.606V16.976H25.882V10.606H29.438ZM33.218 8.422V21.106H34.38V8.422H33.218ZM40.2589 10.242V12.3C40.2589 14.484 38.7329 16.864 36.8989 17.732L37.5709 18.656C39.5869 17.662 41.1969 14.974 41.1969 12.3V10.242H40.2589ZM40.4829 10.242V12.3C40.4829 14.932 42.1069 17.396 44.1509 18.348L44.8089 17.424C42.9469 16.626 41.4209 14.442 41.4209 12.3V10.242H40.4829ZM37.3189 9.724V10.704H44.3889V9.724H37.3189ZM46.0969 8.436V21.092H47.2589V8.436H46.0969ZM58.8673 16.486V21.106H60.0153V16.486H58.8673ZM53.7293 16.08V17.046H65.1673V16.08H53.7293ZM58.8533 10.606V10.928C58.8533 12.51 56.7253 13.896 54.4433 14.204L54.8493 15.128C57.5093 14.722 59.8753 13.112 59.8753 10.928V10.606H58.8533ZM59.0073 10.606V10.928C59.0073 13.084 61.3593 14.736 64.0053 15.128L64.4253 14.204C62.1573 13.896 60.0153 12.496 60.0153 10.928V10.606H59.0073ZM54.8353 9.99V10.942H64.0613V9.99H54.8353ZM58.8673 8.436V10.326H60.0153V8.436H58.8673ZM75.1622 8.422V21.092H76.3382V8.422H75.1622ZM76.0162 13.56V14.526H78.3542V13.56H76.0162ZM71.9282 9.794V9.976C71.9282 13.322 70.1782 16.024 66.6782 17.802L67.3222 18.698C71.4102 16.64 73.0622 13.392 73.0622 9.794H71.9282ZM67.2662 9.794V10.746H72.5302V9.794H67.2662ZM88.0551 8.436V21.092H89.2171V8.436H88.0551ZM88.9371 13.63V14.61H91.2891V13.63H88.9371ZM79.4171 10.452V11.404H86.8791V10.452H79.4171ZM83.1971 12.454C81.4191 12.454 80.1171 13.658 80.1171 15.366C80.1171 17.074 81.4191 18.278 83.1971 18.278C84.9891 18.278 86.2771 17.074 86.2771 15.366C86.2771 13.658 84.9891 12.454 83.1971 12.454ZM83.1971 13.42C84.3451 13.42 85.1711 14.218 85.1711 15.366C85.1711 16.5 84.3451 17.312 83.1971 17.312C82.0491 17.312 81.2231 16.5 81.2231 15.366C81.2231 14.218 82.0491 13.42 83.1971 13.42ZM82.5951 8.59V10.886H83.7571V8.59H82.5951ZM101.578 8.436V21.092H102.74V8.436H101.578ZM97.868 9.794V9.99C97.868 13.35 96.174 16.038 92.52 17.802L93.136 18.74C97.364 16.668 99.016 13.462 99.016 9.794H97.868ZM93.094 9.794V10.746H98.372V9.794H93.094Z" fill="black"/>
<path d="M5 1H110V-1H5V1ZM114 5V24H116V5H114ZM110 28H5V30H110V28ZM1 24V5H-1V24H1ZM5 28C2.79086 28 1 26.2091 1 24H-1C-1 27.3137 1.68629 30 5 30V28ZM114 24C114 26.2091 112.209 28 110 28V30C113.314 30 116 27.3137 116 24H114ZM110 1C112.209 1 114 2.79086 114 5H116C116 1.68629 113.314 -1 110 -1V1ZM5 -1C1.68629 -1 -1 1.68629 -1 5H1C1 2.79086 2.79086 1 5 1V-1Z" fill="black"/>
</svg>
