<svg width="117" height="117" viewBox="0 0 117 117" fill="none" xmlns="http://www.w3.org/2000/svg">
<circle cx="58.5" cy="58.5" r="58.5" fill="#D9D9D9"/>
<path d="M58 40.5C62.6964 40.5 66.5 44.3036 66.5 49C66.5 53.6964 62.6964 57.5 58 57.5C53.3036 57.5 49.5 53.6964 49.5 49C49.5 44.3036 53.3036 40.5 58 40.5ZM75.5 75.5H40.5V71.5C40.5 70.1874 41.1536 69.0006 42.3068 67.9363C43.4634 66.8687 45.0891 65.9585 46.9331 65.2198C50.622 63.742 55.0588 63 58 63C60.9412 63 65.378 63.742 69.0669 65.2198C70.9109 65.9585 72.5366 66.8687 73.6932 67.9363C74.8464 69.0006 75.5 70.1874 75.5 71.5V75.5Z" fill="#888888" stroke="#D7D7D7"/>
</svg>
