<svg width="132" height="54" viewBox="0 0 132 54" fill="none" xmlns="http://www.w3.org/2000/svg">
<rect width="132" height="54" rx="6" fill="#063250"/>
<path d="M30.6831 24.42V26.48H32.2231C36.0031 26.48 38.2031 26.44 40.7031 26.06L40.4831 24C38.0031 24.38 35.9431 24.42 32.2231 24.42H30.6831ZM30.6831 18V25.68H33.3431V20.06H39.3831V18H30.6831ZM32.5231 21.2V23.18H38.9831V21.2H32.5231ZM41.9231 17.26V26.76H44.5831V17.26H41.9231ZM43.5031 20.88V23.02H47.0231V20.88H43.5031ZM32.3431 27.54V29.56H41.9631V30.6H32.3831V34.7H35.0231V32.48H44.5831V27.54H32.3431ZM32.3831 33.64V35.66H45.1231V33.64H32.3831ZM53.1416 27.14V30.76H55.8016V27.14H53.1416ZM49.7616 25.74V27.84H59.3816V25.74H49.7616ZM49.7616 18.78V26.52H52.4216V20.88H59.3416V18.78H49.7616ZM51.6816 22.28V24.32H58.9816V22.28H51.6816ZM61.2016 17.24V35.82H63.8616V17.24H61.2016ZM48.8016 32.46C52.0016 32.44 56.3616 32.42 60.3816 31.62L60.1816 29.68C56.2816 30.26 51.7216 30.3 48.4816 30.3L48.8016 32.46ZM78.68 17.26V35.78H81.32V17.26H78.68ZM80.72 24.48V26.7H84V24.48H80.72ZM66.72 20V22.12H77.5V20H66.72ZM72.14 23.16C69.44 23.16 67.44 25 67.44 27.58C67.44 30.16 69.44 32 72.14 32C74.84 32 76.84 30.16 76.84 27.58C76.84 25 74.84 23.16 72.14 23.16ZM72.14 25.32C73.4 25.32 74.3 26.16 74.3 27.58C74.3 29 73.4 29.84 72.14 29.84C70.88 29.84 69.98 29 69.98 27.58C69.98 26.16 70.88 25.32 72.14 25.32ZM70.8 17.56V20.8H73.46V17.56H70.8ZM97.9584 17.26V35.78H100.638V17.26H97.9584ZM92.4984 19.18V19.66C92.4984 24.62 90.5784 27.98 85.2584 30.54L86.6384 32.66C93.2184 29.48 95.1384 24.84 95.1384 19.18H92.4984ZM86.2384 19.18V21.28H93.7584V19.18H86.2384Z" fill="white"/>
</svg>
