<svg width="237" height="54" viewBox="0 0 237 54" fill="none" xmlns="http://www.w3.org/2000/svg">
<path d="M0.5 6C0.5 2.68629 3.18629 0 6.5 0H230.5C233.814 0 236.5 2.68629 236.5 6V48C236.5 51.3137 233.814 54 230.5 54H6.49999C3.18629 54 0.5 51.3137 0.5 48V6Z" fill="#063250"/>
<path d="M105.122 24.76V27.56H107.782V24.76H105.122ZM106.422 18C103.742 18 101.802 19.54 101.802 21.78C101.802 23.98 103.742 25.52 106.422 25.52C109.102 25.52 111.042 23.98 111.042 21.78C111.042 19.54 109.102 18 106.422 18ZM106.422 20C107.702 20 108.562 20.64 108.562 21.78C108.562 22.9 107.702 23.54 106.422 23.54C105.162 23.54 104.282 22.9 104.282 21.78C104.282 20.64 105.162 20 106.422 20ZM112.942 17.28V31.4H115.602V17.28H112.942ZM114.662 23.08V25.26H117.922V23.08H114.662ZM103.242 33.32V35.46H116.222V33.32H103.242ZM103.242 30.18V34.24H105.922V30.18H103.242ZM101.142 29C104.202 29 108.402 28.94 112.142 28.24L111.962 26.34C108.322 26.86 103.982 26.88 100.842 26.88L101.142 29ZM123.56 28.06V32.42H126.16V28.06H123.56ZM129.42 28.04V32.42H132.02V28.04H129.42ZM119.32 31.58V33.74H136.08V31.58H119.32ZM121.2 18.46V20.56H131.56V22.52H121.24V27.74H123.88V24.6H134.2V18.46H121.2ZM121.24 26.62V28.76H134.62V26.62H121.24Z" fill="white"/>
</svg>
