<svg width="258" height="36" viewBox="0 0 258 36" fill="none" xmlns="http://www.w3.org/2000/svg">
<path d="M22.2252 11.1757C21.6069 10.7706 20.7858 10.5688 19.7603 10.5688C18.7348 10.5688 17.9137 10.7706 17.2954 11.1757C16.6771 11.5808 16.3688 12.1581 16.3688 12.9076V26.3547C16.3688 27.6439 15.9533 28.6706 15.1257 29.4348C14.2963 30.1991 13.1142 30.5813 11.5759 30.5813C10.0393 30.5813 8.85545 30.1991 8.02612 29.4348C7.1968 28.6706 6.78296 27.6439 6.78296 26.3547V12.9076C6.78296 12.1581 6.473 11.5808 5.85637 11.1757C5.23808 10.7706 4.417 10.5688 3.39148 10.5688C2.36596 10.5688 1.54488 10.7706 0.926598 11.1757C0.308316 11.5808 0 12.1581 0 12.9076V26.9845C0 29.8334 0.7914 32.0442 2.3742 33.6187C3.957 35.1932 6.42024 35.9804 9.76721 35.9804C11.2742 35.9804 12.5998 35.718 13.7456 35.1932C14.8915 34.6684 15.7654 33.9566 16.3688 33.0562V33.4153C16.3688 34.1649 16.6771 34.7422 17.2954 35.1473C17.912 35.5524 18.7348 35.7541 19.7603 35.7541C20.7842 35.7541 21.6069 35.5507 22.2252 35.1473C22.8418 34.7422 23.1518 34.1649 23.1518 33.4153V12.9076C23.1518 12.1581 22.8435 11.5808 22.2252 11.1757Z" fill="#FCFCFC"/>
<path d="M42.8528 10.3442C41.4052 10.3442 40.1406 10.6362 39.054 11.2217C37.9692 11.8056 37.1102 12.5928 36.4771 13.5834V12.9093C36.4771 12.1598 36.1671 11.5825 35.5505 11.1774C34.9322 10.7723 34.1111 10.5706 33.0856 10.5706C32.0601 10.5706 31.239 10.7723 30.6207 11.1774C30.0024 11.5825 29.6941 12.1598 29.6941 12.9093V33.4187C29.6941 34.1682 30.0024 34.7455 30.6207 35.1506C31.239 35.5557 32.0601 35.7575 33.0856 35.7575C34.1095 35.7575 34.9322 35.5541 35.5505 35.1506C36.1687 34.7455 36.4771 34.1682 36.4771 33.4187V19.7469C36.4771 18.5185 36.8909 17.5426 37.7202 16.8242C38.5495 16.1042 39.7317 15.7451 41.27 15.7451C42.8066 15.7451 43.9904 16.1042 44.8197 16.8242C45.6491 17.5442 46.0629 18.5185 46.0629 19.7469V33.4187C46.0629 34.1682 46.3712 34.7455 46.9895 35.1506C47.6078 35.5557 48.4289 35.7575 49.4544 35.7575C50.4783 35.7575 51.301 35.5541 51.9193 35.1506C52.5375 34.7455 52.8459 34.1682 52.8459 33.4187V19.3418C52.8459 16.4929 52.0165 14.2821 50.3595 12.7076C48.6992 11.1315 46.1981 10.3442 42.8528 10.3442Z" fill="#FCFCFC"/>
<path d="M70.9622 10.3442C69.7867 10.3442 68.649 10.4049 67.5493 10.5246C66.448 10.6444 65.3565 10.8543 64.2716 11.1544C63.3978 11.4251 62.824 11.8892 62.5536 12.5485C62.2832 13.2078 62.2519 13.9131 62.4629 14.6626C62.7036 15.4433 63.1109 15.9747 63.683 16.2601C64.2551 16.5454 64.9492 16.5832 65.7637 16.3732C67.391 15.9534 69.0035 15.7434 70.6012 15.7434C72.2285 15.7434 73.4271 16.0731 74.1954 16.7324C74.9638 17.3917 75.3479 18.2019 75.3479 19.1614V20.5112C74.6241 20.2717 73.7041 20.0765 72.5896 19.9273C71.4734 19.7781 70.344 19.7026 69.1981 19.7026C66.1232 19.7026 63.7193 20.4078 61.9864 21.8167C60.2536 23.2272 59.3864 25.1904 59.3864 27.7079C59.3864 30.2271 60.1778 32.2362 61.7606 33.7352C63.3434 35.2343 65.6714 35.9838 68.7463 35.9838C70.1032 35.9838 71.3695 35.7444 72.545 35.2638C73.7206 34.7833 74.6538 34.1239 75.3479 33.2842V33.5548C75.3479 35.0244 76.4476 35.7591 78.6487 35.7591C80.8482 35.7591 81.9495 35.0244 81.9495 33.5548V20.2422C81.9495 17.0047 81.0823 14.5462 79.3494 12.8667C77.6166 11.184 74.8203 10.3442 70.9622 10.3442ZM75.3479 27.3176C75.3479 27.8014 75.2127 28.2475 74.9407 28.6559C74.6686 29.0643 74.2927 29.4202 73.8096 29.7219C73.3266 30.0237 72.7693 30.2582 72.1362 30.4239C71.503 30.5912 70.8089 30.6732 70.0554 30.6732C68.7282 30.6732 67.7192 30.4173 67.0267 29.9023C66.3325 29.389 65.9863 28.6493 65.9863 27.6817C65.9863 26.714 66.3408 25.9743 67.0481 25.461C67.7554 24.9476 68.7892 24.6901 70.1461 24.6901C70.5979 24.6901 71.0793 24.7049 71.5937 24.7344C72.1065 24.7639 72.5962 24.8181 73.0628 24.8919C73.5293 24.9673 73.9663 25.0428 74.3735 25.1166C74.7808 25.192 75.1039 25.274 75.3463 25.3642V27.3176H75.3479Z" fill="#FCFCFC"/>
<path d="M101.651 10.3442C100.203 10.3442 98.9383 10.6362 97.8518 11.2217C96.7669 11.8056 95.9079 12.5928 95.2748 13.5834V12.9093C95.2748 12.1598 94.9648 11.5825 94.3482 11.1774C93.7299 10.7723 92.9088 10.5706 91.8833 10.5706C90.8578 10.5706 90.0367 10.7723 89.4184 11.1774C88.8001 11.5825 88.4918 12.1598 88.4918 12.9093V33.4187C88.4918 34.1682 88.8001 34.7455 89.4184 35.1506C90.0367 35.5557 90.8578 35.7575 91.8833 35.7575C92.9072 35.7575 93.7299 35.5541 94.3482 35.1506C94.9665 34.7455 95.2748 34.1682 95.2748 33.4187V19.7469C95.2748 18.5185 95.6886 17.5426 96.5179 16.8242C97.3473 16.1042 98.5294 15.7451 100.068 15.7451C101.604 15.7451 102.788 16.1042 103.617 16.8242C104.447 17.5442 104.861 18.5185 104.861 19.7469V33.4187C104.861 34.1682 105.169 34.7455 105.787 35.1506C106.406 35.5557 107.227 35.7575 108.252 35.7575C109.276 35.7575 110.099 35.5541 110.717 35.1506C111.335 34.7455 111.644 34.1682 111.644 33.4187V19.3418C111.644 16.4929 110.814 14.2821 109.157 12.7076C107.497 11.1315 104.996 10.3442 101.651 10.3442Z" fill="#FCFCFC"/>
<path d="M124.853 12.3007C124.235 11.8956 123.414 11.6938 122.389 11.6938C121.363 11.6938 120.542 11.8956 119.924 12.3007C119.305 12.7058 118.997 13.2831 118.997 14.0326V33.4169C118.997 34.1664 119.305 34.7437 119.924 35.1488C120.54 35.5539 121.363 35.7556 122.389 35.7556C123.412 35.7556 124.235 35.5523 124.853 35.1488C125.47 34.7437 125.78 34.1664 125.78 33.4169V14.0326C125.782 13.2831 125.472 12.7058 124.853 12.3007Z" fill="#FCFCFC"/>
<path d="M122.39 0C121.094 0 120.069 0.390343 119.315 1.16939C118.562 1.95007 118.184 2.90953 118.184 4.04775C118.184 5.18762 118.56 6.14707 119.315 6.92611C120.069 7.7068 121.094 8.0955 122.39 8.0955C123.686 8.0955 124.712 7.7068 125.465 6.92611C126.219 6.14707 126.596 5.18762 126.596 4.04775C126.596 2.90789 126.219 1.95007 125.465 1.16939C124.71 0.390343 123.686 0 122.39 0Z" fill="#FCFCFC"/>
<path d="M165.691 12.6386C164.907 11.9185 163.957 11.356 162.842 10.9525C161.726 10.5474 160.462 10.3457 159.044 10.3457C157.235 10.3457 155.758 10.6458 154.613 11.2445C153.468 11.8447 152.594 12.609 151.99 13.539C151.387 12.5795 150.572 11.807 149.548 11.2231C148.523 10.6393 147.136 10.3457 145.389 10.3457C144.152 10.3457 143.052 10.6458 142.088 11.2445C141.123 11.8447 140.4 12.6238 139.918 13.5832V12.9092C139.918 12.1596 139.608 11.5823 138.992 11.1772C138.373 10.7721 137.552 10.5704 136.527 10.5704C135.501 10.5704 134.68 10.7721 134.062 11.1772C133.443 11.5823 133.135 12.1596 133.135 12.9092V33.4185C133.135 34.1681 133.443 34.7454 134.062 35.1505C134.68 35.5556 135.501 35.7573 136.527 35.7573C137.55 35.7573 138.373 35.5539 138.992 35.1505C139.61 34.7454 139.918 34.1681 139.918 33.4185V19.2055C139.918 18.3067 140.249 17.5867 140.912 17.0471C141.575 16.5075 142.464 16.2369 143.58 16.2369C144.726 16.2369 145.629 16.5141 146.292 17.0684C146.955 17.6244 147.286 18.3362 147.286 19.2055V33.4185C147.286 34.1681 147.595 34.7454 148.213 35.1505C148.83 35.5556 149.637 35.7573 150.632 35.7573C151.626 35.7573 152.432 35.5539 153.05 35.1505C153.669 34.7454 153.977 34.1681 153.977 33.4185V19.2055C153.977 18.3362 154.308 17.6244 154.971 17.0684C155.634 16.5141 156.538 16.2369 157.683 16.2369C158.829 16.2369 159.725 16.5141 160.374 17.0684C161.022 17.6244 161.347 18.3362 161.347 19.2055V33.4185C161.347 34.1681 161.655 34.7454 162.274 35.1505C162.89 35.5556 163.713 35.7573 164.738 35.7573C165.762 35.7573 166.585 35.5539 167.203 35.1505C167.82 34.7454 168.13 34.1681 168.13 33.4185V18.5314C168.13 17.3325 167.919 16.2304 167.497 15.225C167.078 14.2196 166.475 13.3569 165.691 12.6386Z" fill="#FCFCFC"/>
<path d="M230.26 11.1757C229.641 10.7706 228.82 10.5688 227.795 10.5688C226.769 10.5688 225.948 10.7706 225.33 11.1757C224.712 11.5808 224.403 12.1581 224.403 12.9076V26.3547C224.403 27.6439 223.988 28.6706 223.16 29.4348C222.331 30.1991 221.149 30.5813 219.61 30.5813C218.074 30.5813 216.89 30.1991 216.061 29.4348C215.231 28.6706 214.818 27.6439 214.818 26.3547V12.9076C214.818 12.1581 214.508 11.5808 213.891 11.1757C213.273 10.7706 212.452 10.5688 211.426 10.5688C210.401 10.5688 209.579 10.7706 208.961 11.1757C208.343 11.5808 208.035 12.1581 208.035 12.9076V26.9845C208.035 29.8334 208.826 32.0442 210.409 33.6187C211.992 35.1932 214.455 35.9804 217.802 35.9804C219.309 35.9804 220.634 35.718 221.78 35.1932C222.926 34.6684 223.8 33.9566 224.403 33.0562V33.4153C224.403 34.1649 224.712 34.7422 225.33 35.1473C225.947 35.5524 226.769 35.7541 227.795 35.7541C228.819 35.7541 229.641 35.5507 230.26 35.1473C230.876 34.7422 231.186 34.1649 231.186 33.4153V12.9076C231.186 12.1581 230.876 11.5808 230.26 11.1757Z" fill="#FCFCFC"/>
<path d="M257.256 25.3659C256.758 24.5261 256.096 23.8143 255.266 23.2288C254.437 22.6449 253.487 22.1496 252.417 21.7445C251.347 21.3394 250.239 20.9573 249.093 20.5981C248.34 20.3586 247.684 20.1553 247.126 19.9913C246.569 19.8273 246.109 19.6534 245.748 19.4746C245.387 19.2942 245.115 19.0859 244.934 18.8448C244.752 18.6054 244.662 18.2905 244.662 17.9001C244.662 17.2408 244.955 16.716 245.544 16.3257C246.131 15.937 247.103 15.7418 248.46 15.7418C249.364 15.7418 250.246 15.855 251.105 16.0796C251.964 16.3043 252.739 16.5815 253.433 16.9112C254.125 17.2113 254.79 17.249 255.423 17.0243C256.056 16.7996 256.538 16.3421 256.871 15.6532C257.202 14.9332 257.255 14.2362 257.029 13.5621C256.803 12.888 256.297 12.355 255.514 11.9647C254.519 11.4546 253.327 11.0577 251.942 10.7723C250.556 10.4869 249.018 10.3442 247.331 10.3442C245.794 10.3442 244.444 10.5312 243.285 10.9068C242.124 11.2824 241.151 11.799 240.368 12.4583C239.583 13.1176 238.99 13.8983 238.583 14.7971C238.175 15.6959 237.973 16.657 237.973 17.6755C237.973 18.8744 238.175 19.8715 238.583 20.667C238.99 21.4624 239.562 22.1365 240.301 22.6909C241.039 23.2469 241.943 23.7258 243.013 24.1309C244.083 24.536 245.296 24.9329 246.653 25.3232C247.316 25.5331 247.926 25.7283 248.485 25.9071C249.042 26.0875 249.532 26.2892 249.954 26.5139C250.376 26.7386 250.708 27.001 250.948 27.3012C251.189 27.6013 251.309 27.9605 251.309 28.3803C251.309 29.1299 250.97 29.6842 250.292 30.045C249.614 30.4042 248.642 30.5846 247.375 30.5846C246.411 30.5846 245.446 30.4567 244.482 30.2025C243.517 29.9483 242.553 29.6399 241.588 29.2808C240.804 28.9511 240.088 28.9281 239.44 29.2135C238.792 29.4989 238.317 30.0008 238.015 30.7208C237.684 31.5014 237.638 32.2132 237.88 32.8578C238.121 33.5024 238.619 33.9895 239.372 34.3191C240.548 34.8882 241.92 35.3081 243.486 35.5787C245.052 35.8493 246.652 35.9838 248.279 35.9838C249.906 35.9838 251.323 35.7968 252.529 35.4213C253.735 35.0473 254.745 34.5225 255.558 33.8468C256.373 33.1727 256.983 32.3707 257.39 31.4408C257.797 30.5108 258 29.5071 258 28.4279C258.002 27.2257 257.754 26.2056 257.256 25.3659Z" fill="#FCFCFC"/>
<path d="M200.991 9.85531C200.131 9.11234 199.214 9.42068 198.765 9.83071L194.587 12.2384C192.51 10.9197 190.111 10.2243 187.633 10.2243C180.489 10.2243 174.677 16.0057 174.677 23.1122C174.677 30.2187 180.489 36 187.633 36C194.777 36 200.589 30.2187 200.589 23.1122C200.589 20.6192 199.877 18.2132 198.525 16.1303L201.064 12.117C201.474 11.6479 201.788 10.7016 201.031 9.89139L200.991 9.85531ZM187.633 30.2859C183.658 30.2859 180.425 27.0697 180.425 23.1155C180.425 19.1612 183.658 15.945 187.633 15.945C191.608 15.945 194.841 19.1612 194.841 23.1155C194.841 27.0697 191.608 30.2859 187.633 30.2859Z" fill="#FCFCFC"/>
</svg>
