<svg width="155" height="52" viewBox="0 0 155 52" fill="none" xmlns="http://www.w3.org/2000/svg">
<rect width="155" height="52" rx="26" fill="#2396F0"/>
<path d="M37 21L35.59 22.41L38.17 25H28V27H38.17L35.59 29.58L37 31L42 26L37 21ZM24 19H32V17H24C22.9 17 22 17.9 22 19V33C22 34.1 22.9 35 24 35H32V33H24V19Z" fill="#FCFCFC"/>
<path d="M60.912 27.456V29.84H62.256V27.456H60.912ZM67.248 18.784V33.248H68.576V18.784H67.248ZM57.056 30.496C59.728 30.496 63.216 30.464 66.432 29.92L66.336 28.944C63.216 29.344 59.616 29.376 56.88 29.392L57.056 30.496ZM57.184 20.544V21.616H65.968V20.544H57.184ZM61.568 22.448C59.504 22.448 58.096 23.504 58.096 25.12C58.096 26.752 59.504 27.792 61.568 27.792C63.648 27.792 65.056 26.752 65.056 25.12C65.056 23.504 63.648 22.448 61.568 22.448ZM61.568 23.472C62.88 23.472 63.792 24.128 63.792 25.12C63.792 26.112 62.88 26.768 61.568 26.768C60.272 26.768 59.36 26.112 59.36 25.12C59.36 24.128 60.272 23.472 61.568 23.472ZM60.912 18.784V21.136H62.24V18.784H60.912ZM76.2068 19.824C73.9508 19.824 72.3188 21.216 72.3188 23.232C72.3188 25.264 73.9508 26.656 76.2068 26.656C78.4628 26.656 80.0788 25.264 80.0788 23.232C80.0788 21.216 78.4628 19.824 76.2068 19.824ZM76.2068 20.976C77.6948 20.976 78.7828 21.888 78.7828 23.232C78.7828 24.576 77.6948 25.504 76.2068 25.504C74.7028 25.504 73.6148 24.576 73.6148 23.232C73.6148 21.888 74.7028 20.976 76.2068 20.976ZM81.9668 18.768V33.264H83.2948V18.768H81.9668ZM71.7747 30.096C74.3508 30.096 77.8868 30.08 81.1348 29.456L81.0228 28.48C77.8708 28.976 74.2228 28.992 71.5828 28.992L71.7747 30.096ZM101.49 24.544V25.664H104.162V24.544H101.49ZM100.514 18.768V33.248H101.858V18.768H100.514ZM91.2975 20.192V29.152H92.6255V20.192H91.2975ZM91.2975 28.464V29.584H92.4495C94.6415 29.584 96.8655 29.44 99.3295 28.928L99.1695 27.824C96.7855 28.32 94.5935 28.464 92.4495 28.464H91.2975ZM115.232 18.768V33.248H116.576V18.768H115.232ZM116.208 24.64V25.744H118.88V24.64H116.208ZM111.536 20.336V20.544C111.536 24.368 109.536 27.456 105.536 29.488L106.272 30.512C110.944 28.16 112.832 24.448 112.832 20.336H111.536ZM106.208 20.336V21.424H112.224V20.336H106.208ZM130.703 18.784V33.248H132.031V18.784H130.703ZM126.463 20.336V20.56C126.463 24.4 124.527 27.472 120.351 29.488L121.055 30.56C125.887 28.192 127.775 24.528 127.775 20.336H126.463ZM121.007 20.336V21.424H127.039V20.336H121.007Z" fill="#FCFCFC"/>
</svg>
