<svg width="163" height="60" viewBox="0 0 163 60" fill="none" xmlns="http://www.w3.org/2000/svg">
<g filter="url(#filter0_d_1356_9208)">
<rect x="4" width="155" height="52" rx="26" fill="#1E2222" fill-opacity="0.4"/>
<path d="M41 21L39.59 22.41L42.17 25H32V27H42.17L39.59 29.58L41 31L46 26L41 21ZM28 19H36V17H28C26.9 17 26 17.9 26 19V33C26 34.1 26.9 35 28 35H36V33H28V19Z" fill="#FCFCFC"/>
<path d="M64.912 27.456V29.84H66.256V27.456H64.912ZM71.248 18.784V33.248H72.576V18.784H71.248ZM61.056 30.496C63.728 30.496 67.216 30.464 70.432 29.92L70.336 28.944C67.216 29.344 63.616 29.376 60.88 29.392L61.056 30.496ZM61.184 20.544V21.616H69.968V20.544H61.184ZM65.568 22.448C63.504 22.448 62.096 23.504 62.096 25.12C62.096 26.752 63.504 27.792 65.568 27.792C67.648 27.792 69.056 26.752 69.056 25.12C69.056 23.504 67.648 22.448 65.568 22.448ZM65.568 23.472C66.88 23.472 67.792 24.128 67.792 25.12C67.792 26.112 66.88 26.768 65.568 26.768C64.272 26.768 63.36 26.112 63.36 25.12C63.36 24.128 64.272 23.472 65.568 23.472ZM64.912 18.784V21.136H66.24V18.784H64.912ZM80.2068 19.824C77.9508 19.824 76.3188 21.216 76.3188 23.232C76.3188 25.264 77.9508 26.656 80.2068 26.656C82.4628 26.656 84.0788 25.264 84.0788 23.232C84.0788 21.216 82.4628 19.824 80.2068 19.824ZM80.2068 20.976C81.6948 20.976 82.7828 21.888 82.7828 23.232C82.7828 24.576 81.6948 25.504 80.2068 25.504C78.7028 25.504 77.6148 24.576 77.6148 23.232C77.6148 21.888 78.7028 20.976 80.2068 20.976ZM85.9668 18.768V33.264H87.2948V18.768H85.9668ZM75.7747 30.096C78.3508 30.096 81.8868 30.08 85.1348 29.456L85.0228 28.48C81.8708 28.976 78.2228 28.992 75.5828 28.992L75.7747 30.096ZM94.7215 24.352V25.424H107.842V24.352H94.7215ZM95.9375 19.344V20.416H99.7775V19.344H95.9375ZM99.3295 19.344V19.76C99.3295 20.592 99.3295 22.192 98.6575 24.592L99.9535 24.752C100.626 22.336 100.626 20.56 100.626 19.76V19.344H99.3295ZM101.602 19.344V20.416H105.506V19.344H101.602ZM104.914 19.344V19.968C104.914 20.896 104.914 22.416 104.338 24.624L105.634 24.816C106.21 22.56 106.21 20.912 106.21 19.968V19.344H104.914ZM96.3695 26.944V32.304H97.6975V27.968H106.242V26.944H96.3695ZM96.3695 32.032V33.056H106.338V32.032H96.3695ZM97.1375 29.472V30.464H105.874V29.472H97.1375ZM120.432 18.784V33.248H121.712V18.784H120.432ZM118 24.672V25.76H120.784V24.672H118ZM117.152 19.104V32.512H118.4V19.104H117.152ZM110.144 20.528V28.88H111.472V20.528H110.144ZM110.144 28.352V29.504H111.072C112.624 29.504 114.288 29.424 116.256 29.04L116.112 27.888C114.224 28.256 112.56 28.352 111.072 28.352H110.144ZM134.703 18.784V33.248H136.031V18.784H134.703ZM130.463 20.336V20.56C130.463 24.4 128.527 27.472 124.351 29.488L125.055 30.56C129.887 28.192 131.775 24.528 131.775 20.336H130.463ZM125.007 20.336V21.424H131.039V20.336H125.007Z" fill="#FCFCFC"/>
</g>
<defs>
<filter id="filter0_d_1356_9208" x="0" y="0" width="163" height="60" filterUnits="userSpaceOnUse" color-interpolation-filters="sRGB">
<feFlood flood-opacity="0" result="BackgroundImageFix"/>
<feColorMatrix in="SourceAlpha" type="matrix" values="0 0 0 0 0 0 0 0 0 0 0 0 0 0 0 0 0 0 127 0" result="hardAlpha"/>
<feOffset dy="4"/>
<feGaussianBlur stdDeviation="2"/>
<feComposite in2="hardAlpha" operator="out"/>
<feColorMatrix type="matrix" values="0 0 0 0 0 0 0 0 0 0 0 0 0 0 0 0 0 0 0.25 0"/>
<feBlend mode="normal" in2="BackgroundImageFix" result="effect1_dropShadow_1356_9208"/>
<feBlend mode="normal" in="SourceGraphic" in2="effect1_dropShadow_1356_9208" result="shape"/>
</filter>
</defs>
</svg>
