<svg width="64" height="64" viewBox="0 0 64 64" fill="none" xmlns="http://www.w3.org/2000/svg">
<g filter="url(#filter0_d_1350_7519)">
<circle cx="32" cy="28" r="28" fill="black" fill-opacity="0.4"/>
<path d="M39 27H37.3C37.3 27.74 37.14 28.43 36.87 29.05L38.1 30.28C38.66 29.3 39 28.19 39 27ZM34.98 27.17C34.98 27.11 35 27.06 35 27V21C35 19.34 33.66 18 32 18C30.34 18 29 19.34 29 21V21.18L34.98 27.17ZM24.27 19L23 20.27L29.01 26.28V27C29.01 28.66 30.34 30 32 30C32.22 30 32.44 29.97 32.65 29.92L34.31 31.58C33.6 31.91 32.81 32.1 32 32.1C29.24 32.1 26.7 30 26.7 27H25C25 30.41 27.72 33.23 31 33.72V37H33V33.72C33.91 33.59 34.77 33.27 35.54 32.82L39.73 37L41 35.73L24.27 19Z" fill="#EF6A61"/>
</g>
<defs>
<filter id="filter0_d_1350_7519" x="0" y="0" width="64" height="64" filterUnits="userSpaceOnUse" color-interpolation-filters="sRGB">
<feFlood flood-opacity="0" result="BackgroundImageFix"/>
<feColorMatrix in="SourceAlpha" type="matrix" values="0 0 0 0 0 0 0 0 0 0 0 0 0 0 0 0 0 0 127 0" result="hardAlpha"/>
<feOffset dy="4"/>
<feGaussianBlur stdDeviation="2"/>
<feComposite in2="hardAlpha" operator="out"/>
<feColorMatrix type="matrix" values="0 0 0 0 0 0 0 0 0 0 0 0 0 0 0 0 0 0 0.25 0"/>
<feBlend mode="normal" in2="BackgroundImageFix" result="effect1_dropShadow_1350_7519"/>
<feBlend mode="normal" in="SourceGraphic" in2="effect1_dropShadow_1350_7519" result="shape"/>
</filter>
</defs>
</svg>
