<svg width="64" height="64" viewBox="0 0 64 64" fill="none" xmlns="http://www.w3.org/2000/svg">
<g filter="url(#filter0_d_1350_7495)">
<circle cx="32" cy="28" r="28" fill="#FCFCFC"/>
<path d="M32 30C33.66 30 34.99 28.66 34.99 27L35 21C35 19.34 33.66 18 32 18C30.34 18 29 19.34 29 21V27C29 28.66 30.34 30 32 30ZM37.3 27C37.3 30 34.76 32.1 32 32.1C29.24 32.1 26.7 30 26.7 27H25C25 30.41 27.72 33.23 31 33.72V37H33V33.72C36.28 33.24 39 30.42 39 27H37.3Z" fill="#79DBCE"/>
</g>
<defs>
<filter id="filter0_d_1350_7495" x="0" y="0" width="64" height="64" filterUnits="userSpaceOnUse" color-interpolation-filters="sRGB">
<feFlood flood-opacity="0" result="BackgroundImageFix"/>
<feColorMatrix in="SourceAlpha" type="matrix" values="0 0 0 0 0 0 0 0 0 0 0 0 0 0 0 0 0 0 127 0" result="hardAlpha"/>
<feOffset dy="4"/>
<feGaussianBlur stdDeviation="2"/>
<feComposite in2="hardAlpha" operator="out"/>
<feColorMatrix type="matrix" values="0 0 0 0 0 0 0 0 0 0 0 0 0 0 0 0 0 0 0.25 0"/>
<feBlend mode="normal" in2="BackgroundImageFix" result="effect1_dropShadow_1350_7495"/>
<feBlend mode="normal" in="SourceGraphic" in2="effect1_dropShadow_1350_7495" result="shape"/>
</filter>
</defs>
</svg>
