<svg width="180" height="181" viewBox="0 0 180 181" fill="none" xmlns="http://www.w3.org/2000/svg">
<ellipse cx="90" cy="90.214" rx="90" ry="90.214" fill="#888888"/>
<path d="M110.461 69.5458C109.046 68.3177 107.856 69.5458 107.856 69.5458L100.548 73.7909C97.3223 71.6188 93.4412 70.349 89.2636 70.349C78.0725 70.349 69 79.4492 69 90.6745C69 101.9 78.0725 111 89.2636 111C100.455 111 109.527 101.9 109.527 90.6745C109.527 86.4347 108.23 82.4973 106.015 79.2379L110.458 72.156C110.461 72.1586 111.675 70.8574 110.461 69.5458ZM89.2636 103.24C82.3462 103.24 76.7363 97.6157 76.7363 90.6745C76.7363 83.7359 82.3436 78.1089 89.2636 78.1089C96.1811 78.1089 101.791 83.7333 101.791 90.6745C101.791 97.6157 96.1837 103.24 89.2636 103.24Z" fill="#FCFCFC" fill-opacity="0.2"/>
</svg>
