<svg width="233" height="232" viewBox="0 0 233 232" fill="none" xmlns="http://www.w3.org/2000/svg">
<path d="M124.36 63.839L116.336 84.667L122.296 86.9546L130.32 66.1266L124.36 63.839ZM109.909 60.092L108.666 63.317C106.527 68.8712 100.734 71.8919 89.5433 69.962L89.6688 75.5115C103.314 77.6123 112.162 73.6047 116.406 62.586L109.909 60.092ZM97.854 55.4653L96.025 60.2132L110.589 65.8031L112.418 61.0552L97.854 55.4653ZM113.413 65.5501L111.67 70.074L121.394 73.8064L123.137 69.2824L113.413 65.5501ZM110.038 73.5094L108.313 77.9885L118.082 81.738L119.807 77.2589L110.038 73.5094ZM94.2843 77.9513L92.4898 82.6096L113.955 90.8483L113.041 93.2222L91.6649 85.018L87.9897 94.5586L93.9497 96.8461L95.934 91.6951L117.31 99.8993L121.71 88.4775L94.2843 77.9513ZM88.9559 92.0503L87.1614 96.7086L115.349 107.527L117.143 102.869L88.9559 92.0503ZM127.98 91.5524L126.151 96.3003L163.748 110.731L165.577 105.983L127.98 91.5524ZM127.267 107.423L125.438 112.171L154.701 123.402L156.53 118.654L127.267 107.423ZM130.062 100.167L126.715 108.856L132.675 111.144L136.022 102.454L130.062 100.167ZM146.007 91.8905L142.988 99.729L148.948 102.017L151.967 94.1781L146.007 91.8905ZM141.085 71.2865L139.342 75.8105L161.883 84.4619L160.813 87.239L138.317 78.6047L135.039 87.1151L140.954 89.3855L142.61 85.0855L165.061 93.7025L169.496 82.1911L141.085 71.2865ZM135.573 85.7266L133.848 90.2057L163.021 101.403L164.747 96.9235L135.573 85.7266ZM76.8524 129.479L74.5575 135.436L80.5176 137.723L82.8124 131.766L76.8524 129.479ZM101.7 117.319L90.8299 145.537L96.79 147.825L107.661 119.606L101.7 117.319ZM100.999 130.623L99.1183 135.505L106.423 138.309L108.304 133.426L100.999 130.623ZM64.3426 134.446C71.6195 137.187 81.1543 140.744 90.3725 142.586L91.4946 138.337C82.7177 136.151 72.8865 132.429 65.4476 129.574L64.3426 134.446ZM68.0092 138.681L66.2493 143.25L88.4315 151.763L85.7398 158.751L91.6999 161.038L96.1516 149.482L68.0092 138.681ZM74.1497 110.189L72.5105 114.444L96.0371 123.474L97.6763 119.219L74.1497 110.189ZM83.9166 119.953C77.7773 117.597 72.8745 118.44 71.4078 122.247C69.9412 126.055 73.015 129.959 79.1543 132.316C85.2488 134.655 90.1517 133.812 91.6183 130.005C93.085 126.197 90.0111 122.293 83.9166 119.953ZM82.4155 123.85C85.1938 124.917 86.5758 126.27 85.9719 127.837C85.4025 129.315 83.4339 129.485 80.6555 128.419C77.8323 127.335 76.4848 125.893 77.0542 124.415C77.6581 122.847 79.5923 122.767 82.4155 123.85ZM84.2719 110.218L82.2358 115.504L88.1959 117.791L90.232 112.506L84.2719 110.218ZM134.595 141.41L132.732 146.247L140.619 149.274L142.483 144.437L134.595 141.41ZM144.734 133.784L135.244 158.42L141.204 160.707L150.694 136.072L144.734 133.784ZM126.788 156.202C118.005 152.831 111.426 153.751 109.494 158.768C107.544 163.829 111.845 168.822 120.628 172.193C129.411 175.564 135.955 174.734 137.905 169.672C139.838 164.656 135.571 159.573 126.788 156.202ZM125.045 160.726C130.468 162.807 132.904 165.028 131.99 167.402C131.093 169.731 127.793 169.75 122.371 167.669C116.993 165.605 114.557 163.384 115.454 161.055C116.368 158.681 119.668 158.662 125.045 160.726ZM123.95 130.588L122.949 133.186C120.896 138.517 115.816 142.891 108.062 142.588L109.298 148.461C118.265 148.818 124.735 142.972 127.789 135.044L128.79 132.446L123.95 130.588ZM125.205 131.07L124.204 133.668C121.357 141.059 122.24 149.315 128.964 154.827L133.689 151.242C127.991 146.536 127.118 140.391 128.999 135.508L130 132.91L125.205 131.07ZM116.388 125.784L114.559 130.532L136.875 139.097L138.704 134.349L116.388 125.784Z" fill="#2396F0"/>
<path d="M195.71 146.182C178.909 189.796 129.862 211.567 86.1526 194.791C42.4431 178.014 20.6445 129.052 37.4456 85.438C54.2467 41.8242 103.294 20.053 147.003 36.8292C190.713 53.6055 212.511 102.568 195.71 146.182Z" stroke="#2396F0" stroke-width="10"/>
</svg>
