<svg width="200" height="54" viewBox="0 0 200 54" fill="none" xmlns="http://www.w3.org/2000/svg">
<path d="M87.1816 20.78V21C87.1816 22.6 85.9216 24.12 83.0616 24.64L84.1216 26.7C87.6816 25.98 89.3216 23.74 89.3216 21V20.78H87.1816ZM87.7216 20.78V21C87.7216 23.62 89.3616 25.76 92.8616 26.42L93.9016 24.38C91.1016 23.88 89.8616 22.5 89.8616 21V20.78H87.7216ZM83.5616 19.1V21.14H93.4616V19.1H83.5616ZM87.1816 17.3V20.56H89.8616V17.3H87.1816ZM87.1616 27.78V35.22H89.8216V27.78H87.1616ZM95.2616 17.26V35.78H97.9016V17.26H95.2616ZM82.7816 29.64C86.0816 29.64 90.3816 29.58 94.3816 28.86L94.2016 26.94C90.3216 27.46 85.8216 27.48 82.4616 27.48L82.7816 29.64ZM100.82 31.44V33.62H117.58V31.44H100.82ZM107.78 27.32V32.02H110.42V27.32H107.78ZM107.68 18.28V19.62C107.68 22.18 105.42 25.02 101.2 25.7L102.3 27.92C107.14 27.04 110 23.56 110 19.62V18.28H107.68ZM108.2 18.28V19.62C108.2 23.62 111.06 27.02 115.92 27.92L117.02 25.7C112.78 25.02 110.52 22.24 110.52 19.62V18.28H108.2Z" fill="#888888"/>
<rect x="0.5" y="0.5" width="199" height="53" rx="5.5" stroke="#5C5C5C"/>
</svg>
