<svg width="140" height="68" viewBox="0 0 140 68" fill="none" xmlns="http://www.w3.org/2000/svg">
<path d="M49.3 26.592V41.456H51.444V26.592H49.3ZM43.46 27.632C41.22 27.632 39.572 29.68 39.572 32.912C39.572 36.176 41.22 38.224 43.46 38.224C45.7 38.224 47.348 36.176 47.348 32.912C47.348 29.68 45.7 27.632 43.46 27.632ZM43.46 29.568C44.564 29.568 45.3 30.736 45.3 32.912C45.3 35.12 44.564 36.304 43.46 36.304C42.356 36.304 41.604 35.12 41.604 32.912C41.604 30.736 42.356 29.568 43.46 29.568ZM61.7948 30.432V32.144H65.2508V30.432H61.7948ZM64.1308 26.624V37.424H66.2588V26.624H64.1308ZM56.4828 39.472V41.168H66.5948V39.472H56.4828ZM56.4828 36.512V40.48H58.6108V36.512H56.4828ZM57.2828 28.56V29.488C57.2828 31.36 56.2268 33.296 53.7788 34.096L54.8508 35.792C57.6988 34.848 59.0108 32.272 59.0108 29.488V28.56H57.2828ZM57.7308 28.56V29.488C57.7308 32.128 58.9948 34.592 61.7468 35.504L62.7868 33.84C60.4508 33.056 59.4428 31.216 59.4428 29.488V28.56H57.7308ZM54.3548 27.616V29.296H62.3228V27.616H54.3548ZM73.0166 27.936V37.904H80.1366V27.936H73.0166ZM78.0566 29.6V36.224H75.1126V29.6H78.0566ZM82.4406 26.592V41.456H84.5846V26.592H82.4406ZM87.8154 33.248V34.928H89.0794C92.1994 34.928 94.0714 34.896 96.1514 34.544L95.9434 32.896C93.9114 33.216 92.1354 33.248 89.0794 33.248H87.8154ZM87.8154 27.632V33.936H89.9274V29.312H94.9354V27.632H87.8154ZM89.2714 30.448V32.08H94.5034V30.448H89.2714ZM97.1754 26.624V35.568H99.3194V26.624H97.1754ZM94.3114 35.792C91.1754 35.792 89.2394 36.832 89.2394 38.608C89.2394 40.4 91.1754 41.424 94.3114 41.424C97.4314 41.424 99.3834 40.4 99.3834 38.608C99.3834 36.832 97.4314 35.792 94.3114 35.792ZM94.3114 37.424C96.2314 37.424 97.2554 37.808 97.2554 38.608C97.2554 39.424 96.2314 39.808 94.3114 39.808C92.3754 39.808 91.3674 39.424 91.3674 38.608C91.3674 37.808 92.3754 37.424 94.3114 37.424Z" fill="#2396F0"/>
<rect y="64" width="140" height="4" fill="#2396F0"/>
</svg>
