<svg width="140" height="68" viewBox="0 0 140 68" fill="none" xmlns="http://www.w3.org/2000/svg">
<path d="M26.24 28.256V29.504C26.24 31.376 25.168 33.296 22.704 34.096L23.792 35.76C26.64 34.832 28 32.304 28 29.504V28.256H26.24ZM26.672 28.256V29.504C26.672 32.192 28.016 34.608 30.8 35.488L31.888 33.84C29.472 33.072 28.416 31.264 28.416 29.504V28.256H26.672ZM23.264 27.664V29.344H31.328V27.664H23.264ZM32.816 26.624V37.312H34.96V26.624H32.816ZM25.088 39.472V41.168H35.328V39.472H25.088ZM25.088 36.352V40.32H27.216V36.352H25.088ZM47.9668 26.608V35.888H49.9828V26.608H47.9668ZM46.1588 30.256V31.984H48.5268V30.256H46.1588ZM44.8948 26.896V35.408H46.8788V26.896H44.8948ZM37.2948 28.128V29.76H44.4788V28.128H37.2948ZM40.9108 30.24C39.0548 30.24 37.7108 31.296 37.7108 32.832C37.7108 34.368 39.0548 35.408 40.9108 35.408C42.7668 35.408 44.1108 34.368 44.1108 32.832C44.1108 31.296 42.7668 30.24 40.9108 30.24ZM40.9108 31.76C41.6788 31.76 42.2068 32.144 42.2068 32.832C42.2068 33.52 41.6788 33.904 40.9108 33.904C40.1268 33.904 39.5988 33.52 39.5988 32.832C39.5988 32.144 40.1268 31.76 40.9108 31.76ZM39.8388 26.752V29.248H41.9348V26.752H39.8388ZM44.9748 36.048C41.7908 36.048 39.8708 37.008 39.8708 38.736C39.8708 40.448 41.7908 41.424 44.9748 41.424C48.1428 41.424 50.0628 40.448 50.0628 38.736C50.0628 37.008 48.1428 36.048 44.9748 36.048ZM44.9748 37.632C46.9428 37.632 47.9348 37.968 47.9348 38.736C47.9348 39.488 46.9428 39.84 44.9748 39.84C42.9908 39.84 41.9988 39.488 41.9988 38.736C41.9988 37.968 42.9908 37.632 44.9748 37.632ZM61.4126 34.048V36.656H63.5406V34.048H61.4126ZM55.7806 33.344V35.024H69.1726V33.344H55.7806ZM62.4526 36.08C59.2366 36.08 57.3006 37.04 57.3006 38.752C57.3006 40.464 59.2366 41.424 62.4526 41.424C65.6526 41.424 67.5886 40.464 67.5886 38.752C67.5886 37.04 65.6526 36.08 62.4526 36.08ZM62.4526 37.68C64.4366 37.68 65.4446 38.016 65.4446 38.752C65.4446 39.472 64.4366 39.824 62.4526 39.824C60.4686 39.824 59.4606 39.472 59.4606 38.752C59.4606 38.016 60.4686 37.68 62.4526 37.68ZM61.0126 28V28.368C61.0126 29.52 59.5886 30.832 56.3406 31.104L57.0766 32.768C60.9006 32.416 62.9006 30.592 62.9006 28.368V28H61.0126ZM62.0526 28V28.368C62.0526 30.608 64.0686 32.416 67.8766 32.768L68.6126 31.104C65.3486 30.832 63.9406 29.536 63.9406 28.368V28H62.0526ZM56.9966 27.216V28.896H67.9726V27.216H56.9966ZM80.6754 26.624V37.264H82.8194V26.624H80.6754ZM72.9474 39.472V41.168H83.1874V39.472H72.9474ZM72.9474 36.192V40.16H75.0754V36.192H72.9474ZM74.7554 27.552C72.4834 27.552 70.7234 29.12 70.7234 31.312C70.7234 33.488 72.4834 35.072 74.7554 35.072C77.0274 35.072 78.7714 33.488 78.7714 31.312C78.7714 29.12 77.0274 27.552 74.7554 27.552ZM74.7554 29.392C75.8434 29.392 76.6914 30.096 76.6914 31.312C76.6914 32.512 75.8434 33.216 74.7554 33.216C73.6514 33.216 72.8034 32.512 72.8034 31.312C72.8034 30.096 73.6514 29.392 74.7554 29.392ZM89.6573 27.936V37.904H96.7773V27.936H89.6573ZM94.6973 29.6V36.224H91.7533V29.6H94.6973ZM99.0813 26.592V41.456H101.225V26.592H99.0813ZM104.456 33.248V34.928H105.72C108.84 34.928 110.712 34.896 112.792 34.544L112.584 32.896C110.552 33.216 108.776 33.248 105.72 33.248H104.456ZM104.456 27.632V33.936H106.568V29.312H111.576V27.632H104.456ZM105.912 30.448V32.08H111.144V30.448H105.912ZM113.816 26.624V35.568H115.96V26.624H113.816ZM110.952 35.792C107.816 35.792 105.88 36.832 105.88 38.608C105.88 40.4 107.816 41.424 110.952 41.424C114.072 41.424 116.024 40.4 116.024 38.608C116.024 36.832 114.072 35.792 110.952 35.792ZM110.952 37.424C112.872 37.424 113.896 37.808 113.896 38.608C113.896 39.424 112.872 39.808 110.952 39.808C109.016 39.808 108.008 39.424 108.008 38.608C108.008 37.808 109.016 37.424 110.952 37.424Z" fill="#2396F0"/>
<rect y="64" width="140" height="4" fill="#2396F0"/>
</svg>
