<svg width="140" height="68" viewBox="0 0 140 68" fill="none" xmlns="http://www.w3.org/2000/svg">
<path d="M37.528 29.872V31.584H39.992V29.872H37.528ZM37.528 34.448V36.176H39.992V34.448H37.528ZM42.344 26.608V41.424H44.376V26.608H42.344ZM39.384 26.832V40.752H41.368V26.832H39.384ZM34.968 27.648C33.016 27.648 31.768 29.68 31.768 33.024C31.768 36.384 33.016 38.416 34.968 38.416C36.936 38.416 38.2 36.384 38.2 33.024C38.2 29.68 36.936 27.648 34.968 27.648ZM34.968 29.648C35.8 29.648 36.28 30.768 36.28 33.024C36.28 35.296 35.8 36.4 34.968 36.4C34.152 36.4 33.672 35.296 33.672 33.024C33.672 30.768 34.152 29.648 34.968 29.648ZM57.3668 28.528V30.272H59.9268V28.528H57.3668ZM57.3668 31.744V33.488H59.9268V31.744H57.3668ZM55.8948 26.608V35.344H58.0228V26.608H55.8948ZM48.1348 35.952V37.648H55.8948V41.424H58.0228V35.952H48.1348ZM50.4868 27.408C48.1988 27.408 46.4548 28.928 46.4548 31.04C46.4548 33.152 48.1988 34.656 50.4868 34.656C52.7748 34.656 54.5188 33.152 54.5188 31.04C54.5188 28.928 52.7748 27.408 50.4868 27.408ZM50.4868 29.216C51.6068 29.216 52.4388 29.872 52.4388 31.04C52.4388 32.208 51.6068 32.88 50.4868 32.88C49.3668 32.88 48.5348 32.208 48.5348 31.04C48.5348 29.872 49.3668 29.216 50.4868 29.216ZM62.3735 31.136V32.832H69.6375V31.136H62.3735ZM64.9175 32.224V35.056H67.0455V32.224H64.9175ZM62.3735 27.504V31.84H64.5015V29.2H69.5415V27.504H62.3735ZM71.2855 26.592V37.744H73.4295V26.592H71.2855ZM63.3975 39.472V41.168H73.8295V39.472H63.3975ZM63.3975 36.96V40.112H65.5255V36.96H63.3975ZM61.4135 36.08C64.1335 36.08 67.4615 36.016 70.5495 35.568L70.4055 34.048C67.4295 34.368 63.9575 34.4 61.1575 34.4L61.4135 36.08ZM80.2354 27.936V37.904H87.3554V27.936H80.2354ZM85.2754 29.6V36.224H82.3314V29.6H85.2754ZM89.6594 26.592V41.456H91.8034V26.592H89.6594ZM95.0341 33.248V34.928H96.2981C99.4181 34.928 101.29 34.896 103.37 34.544L103.162 32.896C101.13 33.216 99.3541 33.248 96.2981 33.248H95.0341ZM95.0341 27.632V33.936H97.1461V29.312H102.154V27.632H95.0341ZM96.4901 30.448V32.08H101.722V30.448H96.4901ZM104.394 26.624V35.568H106.538V26.624H104.394ZM101.53 35.792C98.3941 35.792 96.4581 36.832 96.4581 38.608C96.4581 40.4 98.3941 41.424 101.53 41.424C104.65 41.424 106.602 40.4 106.602 38.608C106.602 36.832 104.65 35.792 101.53 35.792ZM101.53 37.424C103.45 37.424 104.474 37.808 104.474 38.608C104.474 39.424 103.45 39.808 101.53 39.808C99.5941 39.808 98.5861 39.424 98.5861 38.608C98.5861 37.808 99.5941 37.424 101.53 37.424Z" fill="#2396F0"/>
<rect y="64" width="140" height="4" fill="#2396F0"/>
</svg>
